<?xml version="1.0" standalone="no"?>
<!DOCTYPE svg PUBLIC "-//W3C//DTD SVG 1.1//EN" "http://www.w3.org/Graphics/SVG/1.1/DTD/svg11.dtd" >
<svg xmlns="http://www.w3.org/2000/svg" xmlns:xlink="http://www.w3.org/1999/xlink" version="1.1">
<metadata>
Created by FontForge 20170731 at Fri Sep  7 16:45:05 2018
 By Aleksey,,,
Copyright 2018 The Krub Project Authors (https://github.com/cadsondemak/Krub)
</metadata>
<defs>
<font id="Krub-Light" horiz-adv-x="0" >
  <font-face 
    font-family="Krub Light"
    font-weight="300"
    font-stretch="normal"
    units-per-em="1000"
    panose-1="0 0 4 0 0 0 0 0 0 0"
    ascent="800"
    descent="-200"
    x-height="550"
    cap-height="700"
    bbox="-656 -498 1117 1201"
    underline-thickness="50"
    underline-position="-150"
    unicode-range="U+000D-FB02"
  />
<missing-glyph horiz-adv-x="400" 
 />
    <glyph glyph-name="fi" unicode="fi" horiz-adv-x="624" 
d="M326 771.5q24 -10.5 24 -30.5q0 -8 -3.5 -15t-8.5 -7q-26 16 -74 16q-46 0 -70 -28.5t-24 -83.5v-73h137v-44h-137v-506h-55v506h-103v44h103v74q0 73 39 115.5t105 42.5q43 0 67 -10.5zM452 550h55v-550h-55v550zM449 669q-10 10 -10 28v8q0 18 10 27.5t28 9.5h7
q37 0 37 -37v-8q0 -18 -9.5 -28t-27.5 -10h-7q-18 0 -28 10z" />
    <glyph glyph-name="fl" unicode="fl" horiz-adv-x="604" 
d="M326 771.5q24 -10.5 24 -30.5q0 -8 -3.5 -15t-8.5 -7q-26 16 -74 16q-46 0 -70 -28.5t-24 -83.5v-73h137v-44h-137v-506h-55v506h-103v44h103v74q0 73 39 115.5t105 42.5q43 0 67 -10.5zM442 791h55v-791h-55v791z" />
    <glyph glyph-name="uni0E240E45" unicode="&#xe24;&#xe45;" horiz-adv-x="935" 
d="M482 383q0 79 -50 119.5t-134 40.5q-53 0 -96.5 -16t-68.5 -40t-25 -44t26.5 -36.5t50.5 -16.5q11 0 33 6q15 5 26 5q7 0 15.5 -14t8.5 -24q0 -6 -5 -6q-68 0 -92.5 -33t-24.5 -103v-107q0 -39 17 -59.5t46 -20.5q26 0 40 14t14 39q0 23 -13.5 36.5t-36.5 13.5
q-19 0 -43 -8q-3 6 -3 11q0 14 13.5 24t36.5 10q37 0 62.5 -22t25.5 -65q0 -42 -27.5 -68t-71.5 -26q-53 0 -83.5 33t-30.5 87v108q0 50 11.5 82.5t35.5 53.5q-30 10 -57 34t-27 49q0 32 31 66t86.5 57t125.5 23q57 0 105.5 -16.5t81.5 -49.5q33 29 79 47.5t99 18.5
q86 0 139 -47.5t53 -133.5v-623h-53v620q0 69 -36.5 104.5t-101.5 35.5q-87 0 -151 -61q22 -41 22 -98v-603h-53v603z" />
    <glyph glyph-name="uni0E260E45" unicode="&#xe26;&#xe45;" horiz-adv-x="950" 
d="M497 366q0 100 -48.5 138.5t-134.5 38.5q-53 0 -97.5 -14t-70.5 -35t-26 -41q0 -17 16 -31.5t36 -24t28 -9.5q9 0 28 7q22 8 32 8q7 0 13.5 -10.5t8.5 -21.5t-3 -11q-47 0 -70.5 -22t-23.5 -70q0 -32 5 -61t6 -34q10 -54 10 -84q0 -44 -26.5 -70.5t-72.5 -26.5
q-40 0 -65.5 25t-25.5 63q0 37 23 59t51 22q17 0 27.5 -8.5t10.5 -23.5h-19q-25 0 -38.5 -13t-13.5 -36q0 -21 13.5 -34.5t36.5 -13.5q24 0 37.5 15.5t13.5 42.5q0 28 -6 56.5t-7 33.5q-7 29 -10.5 49t-3.5 41q0 55 32 85q-37 12 -67.5 39.5t-30.5 55.5q0 30 32.5 62
t89.5 53t127 21q126 0 185 -66q34 29 80 47.5t99 18.5q86 0 139 -47.5t53 -133.5v-623h-53v620q0 69 -36.5 104.5t-101.5 35.5q-88 0 -153 -62q24 -48 24 -114v-586h-53v586z" />
    <glyph glyph-name=".notdef" horiz-adv-x="400" 
 />
    <glyph glyph-name=".null" 
 />
    <glyph glyph-name="nonmarkingreturn" unicode="&#xd;" horiz-adv-x="258" 
 />
    <glyph glyph-name="NULL" 
 />
    <glyph glyph-name="NULL" 
 />
    <glyph glyph-name="space" unicode=" " horiz-adv-x="258" 
 />
    <glyph glyph-name="exclam" unicode="!" horiz-adv-x="246" 
d="M91 700h65l-11 -494h-44zM82 38v8q0 38 38 38h7q37 0 37 -38v-8q0 -38 -37 -38h-7q-38 0 -38 38z" />
    <glyph glyph-name="quotedbl" unicode="&#x22;" horiz-adv-x="324" 
d="M62 737h61l-10 -232h-41zM201 737h61l-10 -232h-41z" />
    <glyph glyph-name="numbersign" unicode="#" horiz-adv-x="540" 
d="M408 443l-30 -188h111v-40h-118l-34 -215h-43l34 215h-150l-34 -215h-43l34 215h-110v40h117l30 188h-121v40h127l35 217h43l-35 -217h150l35 217h43l-35 -217h101v-40h-107zM365 443h-150l-30 -188h150z" />
    <glyph glyph-name="dollar" unicode="$" horiz-adv-x="609" 
d="M495.5 52.5q-59.5 -53.5 -164.5 -61.5v-111h-52v110q-66 3 -121 25t-87 57.5t-32 77.5q0 16 10.5 25.5t29.5 10.5q13 -64 65.5 -102.5t134.5 -43.5v303q-118 28 -169 71.5t-51 114.5q0 82 58.5 130t161.5 51v99h52v-101q79 -9 133 -51.5t73 -111.5q-9 -11 -30 -11
q-12 0 -20.5 6t-15.5 21q-41 83 -140 98v-275q87 -24 135 -49.5t68.5 -59t20.5 -84.5q0 -85 -59.5 -138.5zM152.5 451.5q35.5 -28.5 126.5 -54.5v265q-80 -2 -121 -35.5t-41 -97.5q0 -49 35.5 -77.5zM451.5 88q44.5 38 44.5 97q0 55 -37 88t-128 57v-288q76 8 120.5 46z" />
    <glyph glyph-name="percent" unicode="%" horiz-adv-x="860" 
d="M601 710h52l-394 -720h-52zM131 408q-41 46 -41 122q0 79 40.5 124.5t106.5 45.5q68 0 109 -45.5t41 -124.5q0 -77 -41.5 -122.5t-108.5 -45.5q-65 0 -106 46zM312 437.5q27 32.5 27 93.5q0 64 -26.5 95t-75.5 31q-45 0 -72 -31t-27 -92q0 -62 27 -95.5t72 -33.5
q48 0 75 32.5zM514 46q-41 46 -41 122q0 79 40.5 124.5t106.5 45.5q68 0 109 -45.5t41 -124.5q0 -77 -41.5 -122.5t-108.5 -45.5q-65 0 -106 46zM695 75.5q27 32.5 27 93.5q0 64 -26.5 95t-75.5 31q-45 0 -72 -31t-27 -92q0 -62 27 -95.5t72 -33.5q48 0 75 32.5z" />
    <glyph glyph-name="ampersand" unicode="&#x26;" horiz-adv-x="687" 
d="M551.5 46q26.5 -10 64.5 -11v-19q0 -15 -9.5 -20.5t-31.5 -5.5q-28 0 -56.5 15.5t-64.5 53.5q-86 -69 -202 -69q-57 0 -105 20.5t-77.5 61.5t-29.5 99q0 69 34.5 116.5t118.5 97.5q-34 52 -50 91t-16 80q0 45 21 80t57.5 54.5t80.5 19.5q65 0 106.5 -38.5t41.5 -102.5
q0 -59 -41 -102t-131 -96q35 -50 92 -123t98 -119q36 43 57 100t24 119q25 0 35.5 -10t10.5 -38q0 -46 -23.5 -104t-67.5 -105q37 -35 63.5 -45zM208.5 637.5q-29.5 -27.5 -29.5 -79.5q0 -32 14.5 -68.5t41.5 -80.5q77 43 111.5 79t34.5 83q0 41 -26 67.5t-72 26.5
q-45 0 -74.5 -27.5zM116.5 96q23.5 -30 60.5 -45.5t78 -15.5q94 0 165 61q-51 58 -107.5 128.5t-92.5 121.5q-68 -43 -97.5 -81t-29.5 -98q0 -41 23.5 -71z" />
    <glyph glyph-name="quotesingle" unicode="'" horiz-adv-x="223" 
d="M84 737h56l-8 -232h-40z" />
    <glyph glyph-name="parenleft" unicode="(" horiz-adv-x="390" 
d="M121.5 130.5q-41.5 127.5 -41.5 249.5q0 121 41.5 247.5t119.5 226.5h57q-87 -117 -124 -233.5t-37 -240.5q0 -126 37 -242.5t124 -233.5h-57q-78 99 -119.5 226.5z" />
    <glyph glyph-name="parenright" unicode=")" horiz-adv-x="390" 
d="M92 -96q87 117 124.5 234t37.5 242q0 124 -37.5 240.5t-124.5 233.5h57q78 -100 119.5 -226.5t41.5 -247.5q0 -122 -41.5 -249.5t-119.5 -226.5h-57z" />
    <glyph glyph-name="asterisk" unicode="*" horiz-adv-x="618" 
d="M169 558l120 143l-185 41l20 55l171 -65l-14 180h59l-13 -180l172 65l20 -55l-186 -41l120 -143l-48 -32l-94 157l-94 -157z" />
    <glyph glyph-name="plus" unicode="+" horiz-adv-x="600" 
d="M276 302h-226v45h226v221h49v-221h225v-45h-225v-222h-49v222z" />
    <glyph glyph-name="comma" unicode="," horiz-adv-x="308" 
d="M185 73.5q10 -10.5 10 -29.5v-9q0 -31 -10 -64t-27 -59q-14 -22 -23 -30t-19 -8q-13 0 -23 10q26 30 40.5 57t18.5 59h-4q-16 0 -25.5 10t-9.5 27v10q0 16 9.5 26.5t25.5 10.5h10q17 0 27 -10.5z" />
    <glyph glyph-name="hyphen" unicode="-" horiz-adv-x="480" 
d="M60 324h360v-47h-360v47z" />
    <glyph glyph-name="period" unicode="." horiz-adv-x="308" 
d="M113 38v8q0 38 38 38h7q37 0 37 -38v-8q0 -38 -37 -38h-7q-38 0 -38 38z" />
    <glyph glyph-name="slash" unicode="/" horiz-adv-x="334" 
d="M292 811h52l-302 -866h-52z" />
    <glyph glyph-name="zero" unicode="0" horiz-adv-x="620" 
d="M116.5 79.5q-66.5 91.5 -66.5 258.5q0 177 66.5 274.5t193.5 97.5t193.5 -97.5t66.5 -274.5q0 -167 -66.5 -258.5t-193.5 -91.5t-193.5 91.5zM464 115q52 77 52 223q0 157 -52 239.5t-154 82.5t-154 -82.5t-52 -239.5q0 -146 52 -223t154 -77t154 77z" />
    <glyph glyph-name="one" unicode="1" horiz-adv-x="459" 
d="M382 45v-45h-304v45h131v582q-27 -26 -62.5 -45.5t-61.5 -19.5q-17 0 -25.5 8t-8.5 20q0 9 4 14q88 7 174 96h31v-655h122z" />
    <glyph glyph-name="two" unicode="2" horiz-adv-x="537" 
d="M435 348.5q-41 -71.5 -108 -139.5t-174 -160h318v-49h-419v26q133 109 211 186.5t118 147t40 139.5q0 77 -39 115t-111 38q-76 0 -116.5 -41.5t-48.5 -127.5q-22 0 -32.5 8t-10.5 26q0 50 24.5 92t72 66.5t111.5 24.5q95 0 150 -52t55 -156q0 -72 -41 -143.5z" />
    <glyph glyph-name="three" unicode="3" horiz-adv-x="550" 
d="M448.5 309q36.5 -41 36.5 -112q0 -96 -62.5 -151t-172.5 -55q-63 0 -113.5 16.5t-78.5 41t-28 47.5q0 15 9 24.5t24 9.5q28 -41 70 -66.5t118 -25.5q85 0 133 42t48 116q0 69 -43.5 105.5t-114.5 36.5l-37 -1q-26 -2 -40 -2q-12 0 -20 13.5t-8 25.5q0 9 7 9h89
q71 0 109.5 35.5t38.5 106.5q0 62 -40.5 95t-118.5 33q-125 0 -172 -117q-15 0 -24.5 8t-9.5 24q0 28 27.5 59t75.5 52t105 21q94 0 151.5 -45t57.5 -132q0 -63 -29 -103.5t-75 -56.5q51 -13 87.5 -54z" />
    <glyph glyph-name="four" unicode="4" horiz-adv-x="522" 
d="M331 173h-311v26q100 141 151 255.5t59 245.5q5 1 13 1q37 0 37 -46q0 -86 -57.5 -210.5t-130.5 -223.5h239v231h52v-231h113v-48h-113v-173h-52v173z" />
    <glyph glyph-name="five" unicode="5" horiz-adv-x="556" 
d="M406.5 425q50.5 -28 79 -78.5t28.5 -116.5q0 -71 -28 -125.5t-80 -84t-121 -29.5q-59 0 -106.5 19t-75 47.5t-27.5 56.5q0 30 31 36q19 -51 65 -81t113 -30q83 0 128.5 51.5t45.5 135.5q0 87 -44.5 133t-126.5 46q-48 0 -89.5 -22.5t-72.5 -62.5l-39 7l24 373h345v-48
h-297l-16 -250q58 51 149 51q64 0 114.5 -28z" />
    <glyph glyph-name="six" unicode="6" horiz-adv-x="577" 
d="M408 420.5q50 -28.5 77.5 -81.5t27.5 -123q0 -63 -27 -114t-78 -80t-119 -29q-78 0 -132 38.5t-80.5 103t-26.5 143.5q0 115 47 213t123.5 156t160.5 58q45 0 45 -46q-79 0 -143.5 -34.5t-107.5 -97t-61 -143.5q32 27 79 46t99 19q66 0 116 -28.5zM415.5 90
q45.5 48 45.5 126q0 91 -46.5 137.5t-122.5 46.5q-55 0 -105 -24t-83 -63q-1 -11 -1 -35q0 -103 47.5 -169.5t140.5 -66.5q79 0 124.5 48z" />
    <glyph glyph-name="seven" unicode="7" horiz-adv-x="482" 
d="M456 700v-28q-113 -184 -162.5 -322.5t-57.5 -277.5l-4 -72h-24q-36 0 -35 44l1 35q4 128 64.5 280.5t156.5 293.5l-308 -1q-20 0 -29 7t-9 22q0 9 3 19h404z" />
    <glyph glyph-name="eight" unicode="8" horiz-adv-x="564" 
d="M478 287.5q35 -46.5 35 -114.5q0 -85 -63 -133.5t-168 -48.5q-104 0 -167 48.5t-63 133.5q0 68 36 114.5t119 74.5q-68 26 -101 65.5t-33 97.5q0 83 57.5 131.5t151.5 48.5q95 0 151.5 -48.5t56.5 -131.5q0 -58 -31.5 -98t-98.5 -65q83 -28 118 -74.5zM284 382
q83 21 117.5 55.5t34.5 90.5q0 62 -41.5 96t-112.5 34q-70 0 -112.5 -34t-42.5 -96q0 -110 157 -146zM408 74.5q50 35.5 50 98.5q0 62 -39.5 100.5t-133.5 65.5q-92 -25 -135 -63.5t-43 -102.5q0 -63 49.5 -98.5t125.5 -35.5t126 35.5z" />
    <glyph glyph-name="nine" unicode="9" horiz-adv-x="577" 
d="M455 619.5q58 -80.5 58 -206.5q0 -115 -47 -212t-123.5 -154t-160.5 -57q-45 0 -45 47q118 0 202 74t111 196q-31 -26 -77 -44t-98 -18q-67 0 -118 28t-79 80t-28 120q0 64 28 116t79 81.5t117 29.5q123 0 181 -80.5zM379 316.5q48 22.5 81 61.5q1 11 1 35
q0 105 -46 171.5t-143 66.5q-78 0 -123.5 -50t-45.5 -128q0 -89 47 -134t125 -45q56 0 104 22.5z" />
    <glyph glyph-name="colon" unicode=":" horiz-adv-x="324" 
d="M113 400v8q0 38 38 38h7q37 0 37 -38v-8q0 -38 -37 -38h-7q-38 0 -38 38zM113 38v8q0 38 38 38h7q37 0 37 -38v-8q0 -38 -37 -38h-7q-38 0 -38 38z" />
    <glyph glyph-name="semicolon" unicode=";" horiz-adv-x="324" 
d="M185 73.5q10 -10.5 10 -29.5v-9q0 -31 -10 -64t-27 -59q-14 -22 -23 -30t-19 -8q-13 0 -23 10q26 30 40.5 57t18.5 59h-4q-16 0 -25.5 10t-9.5 27v10q0 16 9.5 26.5t25.5 10.5h10q17 0 27 -10.5zM113 400v8q0 38 38 38h7q37 0 37 -38v-8q0 -38 -37 -38h-7q-38 0 -38 38z
" />
    <glyph glyph-name="less" unicode="&#x3c;" horiz-adv-x="600" 
d="M550 538l-435 -234l435 -236v-60l-500 274v44l500 272v-60z" />
    <glyph glyph-name="equal" unicode="=" horiz-adv-x="600" 
d="M70 458h460v-47h-460v47zM70 254h460v-47h-460v47z" />
    <glyph glyph-name="greater" unicode="&#x3e;" horiz-adv-x="600" 
d="M550 326v-44l-500 -274v60l435 236l-435 234v60z" />
    <glyph glyph-name="question" unicode="?" horiz-adv-x="475" 
d="M193 229q0 47 24.5 79.5t73.5 74.5q33 28 51.5 47t31.5 44t13 56q0 60 -39 95t-108 35q-116 0 -158 -126l-49 24q18 67 74.5 109t134.5 42q86 0 142.5 -47.5t56.5 -132.5q0 -40 -14.5 -71t-35.5 -52.5t-56 -50.5q-46 -38 -68.5 -67.5t-22.5 -72.5v-26h-51v40zM179 38v8
q0 38 38 38h7q37 0 37 -38v-8q0 -38 -37 -38h-7q-38 0 -38 38z" />
    <glyph glyph-name="at" unicode="@" horiz-adv-x="834" 
d="M556 270q-5 -37 -5 -51q0 -33 33 -33q36 0 68.5 27.5t52.5 78.5t20 116q0 79 -38 139.5t-104.5 93.5t-149.5 33q-92 0 -163 -42t-111 -115.5t-40 -166.5q0 -102 42 -176t116 -112.5t168 -38.5q71 0 120 18t93 51q6 -4 10 -11.5t4 -15.5q0 -19 -31.5 -39t-84 -33
t-111.5 -13q-112 0 -196 43t-130.5 126.5t-46.5 202.5q0 104 46 187t128 130.5t186 47.5q100 0 177 -39t120 -109.5t43 -162.5q0 -80 -26.5 -140t-70.5 -91.5t-95 -31.5q-28 0 -48 15.5t-24 43.5q-16 -26 -45.5 -42.5t-69.5 -16.5q-67 0 -105 44.5t-38 122.5q0 102 48 165.5
t130 63.5q40 0 69 -16.5t44 -47.5l8 48h48zM487 238.5q33 55.5 33 136.5q0 125 -93 125q-58 0 -90.5 -52.5t-32.5 -138.5q0 -126 91 -126q59 0 92 55.5z" />
    <glyph glyph-name="A" unicode="A" horiz-adv-x="620" 
d="M497 203h-373q-30 -102 -50 -203h-59q45 207 109.5 375t158.5 325h55q94 -156 158 -324t109 -376h-59q-22 112 -49 203zM482 253q-69 217 -172 387q-101 -166 -171 -387h343z" />
    <glyph glyph-name="B" unicode="B" horiz-adv-x="615" 
d="M537 299q34 -44 34 -110q0 -92 -62 -140.5t-178 -48.5h-245v700h235q104 0 163 -48.5t59 -135.5q0 -57 -26.5 -99.5t-72.5 -59.5q59 -14 93 -58zM442 615q-43 35 -121 35h-178v-274h176q80 0 123 36t43 104q0 64 -43 99zM468.5 83q44.5 33 44.5 106q0 74 -45 106.5
t-148 32.5h-177v-278h182q99 0 143.5 33z" />
    <glyph glyph-name="C" unicode="C" horiz-adv-x="596" 
d="M130.5 84q-78.5 94 -78.5 266q0 173 78 266.5t222 93.5q58 0 108 -19.5t86 -57.5q-4 -14 -13 -22.5t-20 -8.5q-14 0 -24 9q-32 25 -65 36t-74 11q-115 0 -177 -80t-62 -228q0 -146 62.5 -226.5t176.5 -80.5q54 0 93 14.5t71 46.5q12 -1 19 -8t7 -18q0 -22 -27 -42.5
t-70.5 -33t-90.5 -12.5q-143 0 -221.5 94z" />
    <glyph glyph-name="D" unicode="D" horiz-adv-x="672" 
d="M531.5 609.5q83.5 -90.5 83.5 -259.5q0 -108 -38.5 -187t-111 -121t-172.5 -42h-207v700h207q155 0 238.5 -90.5zM488 128q68 78 68 221q0 149 -66.5 225t-196.5 76h-150v-600h150q127 0 195 78z" />
    <glyph glyph-name="E" unicode="E" horiz-adv-x="560" 
d="M505 50q0 -29 -8 -39.5t-32 -10.5h-379v700h418v-50h-361v-262h313v-50h-313v-288h362z" />
    <glyph glyph-name="F" unicode="F" horiz-adv-x="530" 
d="M143 650v-267h312v-50h-312v-333h-57v700h412v-50h-355z" />
    <glyph glyph-name="G" unicode="G" horiz-adv-x="666" 
d="M604 368v-295q-37 -38 -98.5 -60.5t-128.5 -22.5q-151 0 -233 93.5t-82 266.5q0 171 83 265.5t232 94.5q72 0 131.5 -23t92.5 -64q-6 -13 -15 -21t-19 -8q-14 0 -28 11q-35 28 -74.5 41t-88.5 13q-124 0 -189.5 -79.5t-65.5 -229.5q0 -151 65 -229.5t190 -78.5
q55 0 100.5 15t70.5 42v218h-159q-19 0 -26.5 11.5t-7.5 39.5h250z" />
    <glyph glyph-name="H" unicode="H" horiz-adv-x="680" 
d="M594 700v-700h-58v340h-392v-340h-58v700h58v-311h392v311h58z" />
    <glyph glyph-name="I" unicode="I" horiz-adv-x="350" 
d="M147 700h57v-700h-57v700z" />
    <glyph glyph-name="J" unicode="J" horiz-adv-x="427" 
d="M77 -1.5q-34 8.5 -53 18.5q0 20 6 31.5t16 11.5q8 0 23 -6q4 -1 27.5 -7.5t52.5 -6.5q133 0 133 143v517h57v-517q0 -92 -50.5 -142.5t-141.5 -50.5q-36 0 -70 8.5z" />
    <glyph glyph-name="K" unicode="K" horiz-adv-x="610" 
d="M585 3q-14 -11 -35 -11q-14 0 -22.5 6t-20.5 24l-156 247q-18 28 -34 41.5t-38 19t-60 5.5h-62v-335h-57v700h57v-315h80q12 0 30 -2l242 317h68l-258 -332q42 -21 81 -80z" />
    <glyph glyph-name="L" unicode="L" horiz-adv-x="513" 
d="M498 49v-49h-412v700h57v-651h355z" />
    <glyph glyph-name="M" unicode="M" horiz-adv-x="829" 
d="M696 0q-14 360 -59 619q-54 -115 -97 -231.5t-104 -312.5h-42q-53 171 -97 289.5t-105 251.5q-45 -261 -59 -616h-57q17 428 75 700h60q72 -149 118 -265.5t86 -245.5q39 128 85.5 244.5t117.5 266.5h60q58 -272 75 -700h-57z" />
    <glyph glyph-name="N" unicode="N" horiz-adv-x="690" 
d="M602 64q2 -28 2 -37q0 -27 -26 -27h-35v64q0 28 -7.5 49.5t-26.5 45.5l-366 463v-622h-57v700h47q10 0 16 -3t14 -13l380 -481v497h57v-563q0 -31 2 -73z" />
    <glyph glyph-name="O" unicode="O" horiz-adv-x="680" 
d="M123 84q-75 94 -75 270q0 173 75 264.5t217 91.5t217 -91.5t75 -264.5q0 -176 -75 -270t-217 -94t-217 94zM514.5 120.5q58.5 78.5 58.5 233.5q0 304 -233 304t-233 -304q0 -155 59 -233.5t174 -78.5q116 0 174.5 78.5z" />
    <glyph glyph-name="P" unicode="P" horiz-adv-x="615" 
d="M501.5 643.5q70.5 -56.5 70.5 -166.5q0 -112 -70.5 -169t-207.5 -57h-151v-251h-57v700h208q137 0 207.5 -56.5zM460.5 345.5q54.5 43.5 54.5 131.5q0 87 -54.5 129.5t-166.5 42.5h-151v-347h151q112 0 166.5 43.5z" />
    <glyph glyph-name="Q" unicode="Q" horiz-adv-x="680" 
d="M591 139q-41 -86 -120 -123q22 -31 59 -78q-18 -20 -42 -20q-20 0 -37 26l-35 54q-37 -8 -76 -8q-142 0 -217 94t-75 270q0 173 75 264.5t217 91.5t217 -91.5t75 -264.5q0 -129 -41 -215zM573 354q0 304 -233 304t-233 -304q0 -155 59 -233.5t174 -78.5q25 0 46 3
q-35 56 -67 104h61q29 -46 59 -88q134 57 134 293z" />
    <glyph glyph-name="R" unicode="R" horiz-adv-x="629" 
d="M585 3q-14 -11 -35 -11q-14 0 -23 6t-20 24l-119 195q-28 46 -61.5 63t-94.5 17h-89v-297h-57v700h227q124 0 191.5 -52.5t67.5 -149.5q0 -79 -51 -133.5t-135 -65.5q32 -25 55 -61zM308 347q99 0 151.5 39t52.5 112q0 151 -199 151h-170v-302h165z" />
    <glyph glyph-name="S" unicode="S" horiz-adv-x="642" 
d="M197 11.5q-59 21.5 -93.5 58.5t-34.5 80q0 16 10.5 25.5t29.5 10.5q14 -68 71.5 -107t146.5 -39q90 0 144.5 40t54.5 105q0 41 -19.5 69t-64 48.5t-122.5 37.5q-124 29 -177.5 73t-53.5 116q0 84 62 132.5t170 48.5q94 0 159 -43.5t87 -121.5q-9 -11 -30 -11
q-12 0 -20.5 6t-15.5 21q-24 49 -70 75t-110 26q-86 0 -130 -33.5t-44 -99.5q0 -34 17 -58t56.5 -42.5t108.5 -36.5q101 -26 155.5 -52t77.5 -60.5t23 -88.5q0 -93 -69.5 -147t-190.5 -54q-69 0 -128 21.5z" />
    <glyph glyph-name="T" unicode="T" horiz-adv-x="534" 
d="M523 679q0 -29 -31 -29h-194v-650h-57v650h-226v50h504q4 -14 4 -21z" />
    <glyph glyph-name="U" unicode="U" horiz-adv-x="708" 
d="M152.5 54.5q-66.5 64.5 -66.5 196.5v449h57v-454q0 -105 52 -155.5t161 -50.5q110 0 161 50t51 156v454h57v-449q0 -134 -65 -197.5t-204 -63.5q-137 0 -203.5 64.5z" />
    <glyph glyph-name="V" unicode="V" horiz-adv-x="638" 
d="M608 700q-66 -389 -258 -700h-60q-195 315 -260 700h62q57 -356 228 -639q171 286 226 639h62z" />
    <glyph glyph-name="W" unicode="W" horiz-adv-x="856" 
d="M841 700q-22 -149 -63.5 -307t-121.5 -393h-62q-73 244 -106.5 361.5t-54.5 210.5q-24 -104 -59.5 -230.5t-101.5 -341.5h-62q-80 224 -125 385t-70 315h57q41 -253 168 -622q44 131 83.5 271.5t91.5 350.5h32q67 -249 104.5 -379t74.5 -242q123 363 162 621h53z" />
    <glyph glyph-name="X" unicode="X" horiz-adv-x="582" 
d="M434 261.5q42 -48.5 75.5 -114t48.5 -147.5h-62q-11 70 -40.5 128t-68.5 104t-96 101q-57 -55 -96 -101t-68.5 -104t-40.5 -128h-62q15 82 48.5 147.5t75.5 114t105 108.5q-59 56 -98.5 101.5t-70.5 102.5t-45 126h60q19 -88 66 -154t126 -140q79 74 126 140t66 154h60
q-14 -69 -45 -126t-70.5 -102.5t-98.5 -101.5q63 -60 105 -108.5z" />
    <glyph glyph-name="Y" unicode="Y" horiz-adv-x="590" 
d="M570 700l-246 -406v-294h-57v294l-247 406h63l213 -358l212 358h62z" />
    <glyph glyph-name="Z" unicode="Z" horiz-adv-x="580" 
d="M528 50v-50h-474v50l403 600h-405v50h468v-49l-397 -601h405z" />
    <glyph glyph-name="bracketleft" unicode="[" horiz-adv-x="389" 
d="M107 842h198v-43h-143v-841h143v-43h-198v927z" />
    <glyph glyph-name="backslash" unicode="\" horiz-adv-x="334" 
d="M292 -55l-302 866h52l302 -866h-52z" />
    <glyph glyph-name="bracketright" unicode="]" horiz-adv-x="389" 
d="M84 -85v43h143v841h-143v43h198v-927h-198z" />
    <glyph glyph-name="asciicircum" unicode="^" horiz-adv-x="657" 
d="M302 791h49l244 -467h-57l-213 407l-206 -407h-57z" />
    <glyph glyph-name="underscore" unicode="_" horiz-adv-x="684" 
d="M0 -102h684v-48h-684v48z" />
    <glyph glyph-name="grave" unicode="`" horiz-adv-x="243" 
d="M9 783h64l102 -151h-56z" />
    <glyph glyph-name="a" unicode="a" horiz-adv-x="558" 
d="M483.5 60.5q7.5 -25.5 26.5 -43.5q-5 -9 -16 -15.5t-21 -6.5q-21 0 -34.5 26.5t-16.5 70.5q-34 -47 -90 -74.5t-119 -27.5q-72 0 -117.5 40.5t-45.5 104.5q0 93 94 145.5t277 60.5v32q0 141 -143 141q-50 0 -92.5 -19t-83.5 -61q-5 -5 -14 -5t-19 7t-18 20q43 50 103 77
t127 27q92 0 143.5 -49.5t51.5 -137.5v-241q0 -46 7.5 -71.5zM329 68.5q53 32.5 92 91.5v135q-159 -7 -237 -46t-78 -113q0 -47 30 -73.5t82 -26.5q58 0 111 32.5z" />
    <glyph glyph-name="b" unicode="b" horiz-adv-x="610" 
d="M502.5 487.5q62.5 -72.5 62.5 -203.5q0 -139 -63.5 -216.5t-178.5 -77.5q-53 0 -96.5 17t-73.5 48q-4 -26 -12 -41t-19 -15q-20 0 -40 13q19 42 19 120v659h56v-285q35 26 79.5 40t91.5 14q112 0 174.5 -72.5zM460 103q49 65 49 181q0 110 -47.5 170t-133.5 60
q-94 0 -171 -60v-342q30 -35 73.5 -54.5t92.5 -19.5q88 0 137 65z" />
    <glyph glyph-name="c" unicode="c" horiz-adv-x="549" 
d="M157.5 25q-56.5 35 -87 100t-30.5 153q0 85 31 149t88 98.5t133 34.5q91 0 149.5 -47t66.5 -126q-8 -4 -19 -7t-19 -3q-9 0 -13.5 5.5t-8.5 22.5q-12 51 -53.5 80t-102.5 29q-58 0 -102.5 -29.5t-69 -83t-24.5 -123.5q0 -72 24 -126.5t68.5 -84.5t102.5 -30
q66 0 112.5 29.5t70.5 86.5q11 0 19 -9.5t8 -22.5q0 -33 -29.5 -63.5t-78.5 -49t-102 -18.5q-77 0 -133.5 35z" />
    <glyph glyph-name="d" unicode="d" horiz-adv-x="598" 
d="M521 8q-19 -12 -35 -12q-27 0 -33 68q-62 -74 -175 -74q-109 0 -171 75.5t-62 207.5q0 135 65.5 211t181.5 76q42 0 86 -14t74 -37v282h55v-663q0 -80 14 -120zM452 121v333q-32 29 -74 45t-86 16q-90 0 -140.5 -64t-50.5 -178q0 -112 48 -174t134 -62q105 0 169 84z" />
    <glyph glyph-name="e" unicode="e" horiz-adv-x="560" 
d="M518 268h-412q3 -107 52 -168.5t132 -61.5q56 0 94.5 21t67.5 68q11 17 24 17q11 0 33 -14q-25 -67 -82 -103.5t-137 -36.5q-73 0 -127 35t-83.5 99.5t-29.5 151.5q0 134 64.5 209t179.5 75q107 0 166.5 -67t59.5 -186q0 -21 -2 -39zM464 314q0 97 -44 147.5t-129 50.5
q-80 0 -128.5 -52t-55.5 -146h357z" />
    <glyph glyph-name="f" unicode="f" horiz-adv-x="335" 
d="M326 771.5q24 -10.5 24 -30.5q0 -8 -3.5 -15t-8.5 -7q-26 16 -74 16q-46 0 -70 -28.5t-24 -83.5v-73h137v-44h-137v-506h-55v506h-103v44h103v74q0 73 39 115.5t105 42.5q43 0 67 -10.5z" />
    <glyph glyph-name="g" unicode="g" horiz-adv-x="585" 
d="M556 571.5q8 -7.5 8 -26.5q0 -10 -1 -15q-78 0 -111 -27q48 -48 48 -127q0 -192 -221 -192q-75 0 -107.5 -10t-32.5 -34q0 -28 36 -38.5t129 -10.5q118 0 180 -35t62 -102q0 -79 -63.5 -117.5t-193.5 -38.5q-115 0 -177 36.5t-62 105.5q0 44 27 74.5t78 44.5v3
q-30 7 -47.5 27t-17.5 48t20.5 47t57.5 25q-45 24 -70.5 64t-25.5 91q0 196 226 196q71 0 121 -31q26 23 55.5 36.5t55.5 13.5q18 0 26 -7.5zM405 264.5q38 33.5 38 107.5q0 73 -38.5 108t-119.5 35q-157 0 -157 -143q0 -68 40.5 -104.5t116.5 -36.5q82 0 120 33.5z
M443.5 20q-45.5 22 -150.5 22q-96 0 -141 -22.5t-45 -71.5q0 -53 44.5 -78t137.5 -25q104 0 152 24.5t48 78.5q0 50 -45.5 72z" />
    <glyph glyph-name="h" unicode="h" horiz-adv-x="630" 
d="M487.5 510q51.5 -50 51.5 -134v-376h-55v369q0 70 -36 107t-104 37q-47 0 -100.5 -20.5t-97.5 -54.5v-438h-55v791h55v-299q98 68 204 68q86 0 137.5 -50z" />
    <glyph glyph-name="i" unicode="i" horiz-adv-x="289" 
d="M117 550h55v-550h-55v550zM114 669q-10 10 -10 28v8q0 18 10 27.5t28 9.5h7q37 0 37 -37v-8q0 -18 -9.5 -28t-27.5 -10h-7q-18 0 -28 10z" />
    <glyph glyph-name="j" unicode="j" horiz-adv-x="270" 
d="M-13 -186q-23 6 -34 15q-7 7 -7 18q0 9 3.5 16t8.5 8q28 -15 77 -15q34 0 53 20.5t19 60.5v613h55v-608q0 -65 -35 -99.5t-94 -34.5q-23 0 -46 6zM103 669q-10 10 -10 28v8q0 18 10 27.5t28 9.5h7q37 0 37 -37v-8q0 -18 -9.5 -28t-27.5 -10h-7q-18 0 -28 10z" />
    <glyph glyph-name="k" unicode="k" horiz-adv-x="547" 
d="M527 0q-10 0 -24.5 -1.5t-22.5 -1.5q-16 0 -25 14l-127 204q-19 31 -47 42.5t-76 10.5l-59 -3v-265h-55v791h55v-477l52 1q29 1 45 8.5t33 30.5l153 196h66l-174 -217q-7 -8 -15 -17t-17 -14q56 -12 84 -58z" />
    <glyph glyph-name="l" unicode="l" horiz-adv-x="269" 
d="M107 791h55v-791h-55v791z" />
    <glyph glyph-name="m" unicode="m" horiz-adv-x="912" 
d="M775 515.5q46 -44.5 46 -120.5v-395h-55v392q0 123 -124 123q-44 0 -86 -20t-77 -58q3 -18 3 -38v-399h-55v397q0 58 -27.5 88t-80.5 30q-93 0 -173 -83v-432h-55v388q0 76 -2.5 108.5t-9.5 42.5q23 15 41 15q26 0 26 -63v-4q79 73 180 73q47 0 82.5 -20.5t54.5 -57.5
q78 78 188 78q78 0 124 -44.5z" />
    <glyph glyph-name="n" unicode="n" horiz-adv-x="610" 
d="M523 45.5q3 -21.5 12 -38.5q-8 -5 -18.5 -8.5t-20.5 -3.5q-17 0 -24 24t-7 83v271q0 74 -29.5 108.5t-93.5 34.5q-49 0 -100 -24t-97 -68v-424h-55v388q0 76 -2.5 108.5t-9.5 42.5q23 15 41 15q14 0 20 -15t6 -48v-11q95 80 204 80q86 0 128.5 -46.5t42.5 -141.5v-254
q0 -51 3 -72.5z" />
    <glyph glyph-name="o" unicode="o" horiz-adv-x="548" 
d="M99 62q-59 72 -59 214q0 284 234 284t234 -284q0 -142 -59 -214t-175 -72t-175 72zM408.5 95.5q43.5 58.5 43.5 180.5t-43.5 180t-134.5 58t-134.5 -58t-43.5 -180t43.5 -180.5t134.5 -58.5t134.5 58.5z" />
    <glyph glyph-name="p" unicode="p" horiz-adv-x="598" 
d="M498 487.5q60 -72.5 60 -211.5q0 -88 -30 -152.5t-86.5 -99t-133.5 -34.5q-89 0 -161 36v-246h-55v608q0 73 -2.5 106t-9.5 47q21 13 40 13q27 0 27 -59v-6q35 34 81 52.5t95 18.5q115 0 175 -72.5zM449.5 100q51.5 64 51.5 176q0 117 -45 177.5t-133 60.5q-48 0 -94 -22
t-82 -63v-353q34 -19 75.5 -29.5t85.5 -10.5q90 0 141.5 64z" />
    <glyph glyph-name="q" unicode="q" horiz-adv-x="608" 
d="M526 541q-8 -20 -13.5 -61.5t-5.5 -86.5v-613h-55v257q-36 -24 -76 -35.5t-91 -11.5q-73 0 -127.5 35t-83.5 100t-29 153q0 86 29.5 150t84 98t127.5 34q53 0 92.5 -14t77.5 -46q8 54 33 54q18 0 37 -13zM382 47.5q38 12.5 70 39.5v346v11q-65 71 -164 71
q-88 0 -137 -62.5t-49 -174.5q0 -118 49.5 -180.5t142.5 -62.5q50 0 88 12.5z" />
    <glyph glyph-name="r" unicode="r" horiz-adv-x="400" 
d="M358.5 546.5q19.5 -10.5 19.5 -29.5q0 -17 -11 -25q-23 14 -67 14q-46 0 -82.5 -26t-57 -71.5t-20.5 -103.5v-305h-55v550h55v-103q25 48 70 79t95 31q34 0 53.5 -10.5z" />
    <glyph glyph-name="s" unicode="s" horiz-adv-x="485" 
d="M145 5.5q-47 15.5 -76 40.5t-29 52q0 12 7.5 21t18.5 11q30 -47 71.5 -70.5t109.5 -23.5q67 0 105 30t38 83q0 34 -20.5 55t-51 32.5t-82.5 24.5q-59 15 -95.5 29t-62 43.5t-25.5 77.5q0 50 27 83.5t69 49.5t89 16q64 0 112.5 -26.5t79.5 -76.5q-11 -11 -18.5 -15.5
t-15.5 -4.5q-12 0 -23 14q-26 32 -57.5 48t-78.5 16q-57 0 -93 -25t-36 -76q0 -32 20 -52.5t49.5 -31.5t79.5 -23q61 -16 98.5 -31t63.5 -45.5t26 -81.5q0 -73 -54.5 -116t-147.5 -43q-51 0 -98 15.5z" />
    <glyph glyph-name="t" unicode="t" horiz-adv-x="374" 
d="M356 31q0 -17 -14 -25q-31 -16 -88 -16q-62 0 -100 37.5t-38 98.5v379h-104v45h104v150h55v-150h157v-45h-157v-368q0 -49 22 -74t63 -25q46 0 86 19q14 -8 14 -26z" />
    <glyph glyph-name="u" unicode="u" horiz-adv-x="610" 
d="M532 7q-16 -12 -35 -12q-18 0 -25.5 19.5t-9.5 67.5q-30 -42 -83 -67t-112 -25q-88 0 -132.5 48t-44.5 142v370h55v-368q0 -72 33.5 -109.5t97.5 -37.5q54 0 103.5 29.5t82.5 80.5v405h55v-437q0 -58 15 -106z" />
    <glyph glyph-name="v" unicode="v" horiz-adv-x="483" 
d="M467 550q-13 -150 -62 -285t-137 -265h-52q-87 123 -135.5 257.5t-64.5 292.5h55q14 -143 55 -261.5t115 -229.5q76 114 117 233t54 258h55z" />
    <glyph glyph-name="w" unicode="w" horiz-adv-x="760" 
d="M724 550q-41 -293 -161 -550h-47q-53 114 -86.5 216t-51.5 207q-18 -106 -50.5 -208t-83.5 -215h-49q-60 125 -99.5 259t-62.5 291h57q16 -131 48 -247t84 -228q94 206 131 475h52q41 -276 136 -477q102 234 124 477h59z" />
    <glyph glyph-name="x" unicode="x" horiz-adv-x="484" 
d="M411 142q48 -65 57 -142h-58q-8 65 -50.5 122.5t-117.5 130.5q-75 -73 -117.5 -130.5t-50.5 -122.5h-58q9 77 57 142t132 146q-80 76 -124.5 135.5t-52.5 126.5h58q7 -56 46 -107.5t110 -119.5q71 68 110 119.5t46 107.5h58q-8 -67 -52.5 -126.5t-124.5 -135.5
q84 -81 132 -146z" />
    <glyph glyph-name="y" unicode="y" horiz-adv-x="485" 
d="M474 550l-218 -592q-29 -79 -71 -115t-105 -36q-36 0 -57.5 10t-21.5 27t16 26q10 -7 29 -11.5t40 -4.5q43 0 76 38t58 117l-206 541h58l176 -460l168 460h58z" />
    <glyph glyph-name="z" unicode="z" horiz-adv-x="500" 
d="M470 48v-48h-440v38l359 465h-333v47h406v-36l-357 -466h365z" />
    <glyph glyph-name="braceleft" unicode="{" horiz-adv-x="364" 
d="M154.5 -59.5q-31.5 31.5 -31.5 89.5v218q0 38 -16.5 62t-58.5 31v29q42 7 58.5 31.5t16.5 62.5v218q0 58 31.5 89t80.5 31h43v-43h-35q-32 0 -50.5 -18t-18.5 -61v-206q0 -54 -17.5 -80.5t-54.5 -36.5v-3q36 -9 54 -36t18 -80v-206q0 -80 69 -80h35v-43h-43
q-49 0 -80.5 31.5z" />
    <glyph glyph-name="bar" unicode="|" horiz-adv-x="242" 
d="M97 802h48v-814h-48v814z" />
    <glyph glyph-name="braceright" unicode="}" horiz-adv-x="364" 
d="M86 -91v43h35q69 0 69 80v206q0 53 18 80t55 36v3q-38 10 -55.5 36.5t-17.5 80.5v206q0 43 -18.5 61t-50.5 18h-35v43h43q49 0 81 -31t32 -89v-218q0 -39 16 -63t58 -31v-29q-42 -7 -58 -30.5t-16 -62.5v-218q0 -58 -32 -89.5t-81 -31.5h-43z" />
    <glyph glyph-name="asciitilde" unicode="~" horiz-adv-x="600" 
d="M50 251q21 44 55.5 72t90.5 28q33 0 58 -11t58 -33q31 -21 54 -31.5t53 -10.5q37 0 58.5 22t35.5 64l37 -26q-11 -48 -45.5 -77.5t-91.5 -29.5q-34 0 -59 11t-60 34q-30 21 -52.5 31t-50.5 10q-65 0 -103 -86z" />
    <glyph glyph-name="uni00A0" unicode="&#xa0;" horiz-adv-x="258" 
 />
    <glyph glyph-name="exclamdown" unicode="&#xa1;" horiz-adv-x="243" 
d="M164 522v-7q0 -38 -37 -38h-7q-38 0 -38 38v7q0 38 38 38h7q37 0 37 -38zM156 -140h-65l10 494h44z" />
    <glyph glyph-name="cent" unicode="&#xa2;" horiz-adv-x="547" 
d="M493 143.5q8 -9.5 8 -22.5q0 -33 -29.5 -63.5t-78.5 -49t-102 -18.5q-45 0 -87 13l-28 -83h-50l34 103q-57 34 -88.5 100t-31.5 155q0 85 31 149t88 98.5t133 34.5q24 0 45 -3l27 81h49l-31 -93q54 -19 87 -60t39 -98q-8 -4 -19 -7t-19 -3q-9 0 -13.5 5.5t-8.5 22.5
q-7 33 -28 57.5t-53 37.5l-148 -450q36 -13 72 -13q66 0 112.5 29.5t70.5 86.5q11 0 19 -9.5zM117 158.5q21 -52.5 60 -83.5l145 437q-18 2 -30 2q-58 0 -102.5 -29.5t-69 -83t-24.5 -123.5q0 -67 21 -119.5z" />
    <glyph glyph-name="sterling" unicode="&#xa3;" horiz-adv-x="609" 
d="M518 161q-12 -79 -64 -125t-122 -46q-59 0 -101 16.5t-82 47.5q-47 -49 -133 -64v56q69 13 103 57t34 111q0 41 -18 111h-122v48h110q-22 81 -22 134q0 61 26 107t72.5 71t105.5 25q84 0 140 -44t71 -126q-17 -14 -36 -14q-17 0 -24 22q-18 59 -54 87t-97 28
q-73 0 -112 -42.5t-39 -116.5q0 -51 21 -131h194v-48h-181q18 -68 18 -112q0 -72 -29 -122q71 -53 148 -53q117 0 142 135z" />
    <glyph glyph-name="currency" unicode="&#xa4;" horiz-adv-x="609" 
d="M43 131l55 55q-28 33 -41.5 76.5t-13.5 90.5q0 99 55 166l-55 55l39 40l58 -57q34 28 76 42.5t88 14.5q97 0 166 -57l56 57l40 -40l-55 -55q55 -67 55 -166q0 -105 -55 -167l55 -55l-40 -40l-56 55q-73 -55 -166 -55q-45 0 -87.5 14t-76.5 41l-58 -55zM411 169
q47 27 73 75t26 109t-26 109t-73 75t-107 27q-59 0 -105.5 -27t-73 -75t-26.5 -109t26.5 -109t73 -75t105.5 -27q60 0 107 27z" />
    <glyph glyph-name="yen" unicode="&#xa5;" horiz-adv-x="590" 
d="M371 371h141v-46h-169l-19 -31v-75h188v-46h-188v-173h-57v173h-189v46h189v75l-19 31h-170v46h142l-200 329h63l213 -358l212 358h62z" />
    <glyph glyph-name="brokenbar" unicode="&#xa6;" horiz-adv-x="242" 
d="M97 802h48v-307h-48v307zM97 295h48v-307h-48v307z" />
    <glyph glyph-name="section" unicode="&#xa7;" horiz-adv-x="480" 
d="M355.5 330.5q-18.5 30.5 -59.5 47.5l-138 57q-48 20 -72.5 49.5t-24.5 75.5q0 45 24 78.5t63.5 51t86.5 17.5q79 0 126 -39.5t52 -102.5l-49 -9q-5 48 -37.5 76.5t-91.5 28.5q-58 0 -91 -26.5t-33 -74.5q0 -32 16 -51t52 -34l149 -61q49 -20 72.5 -62t23.5 -98h-50
q0 46 -18.5 76.5zM115 -48.5q-49 39.5 -54 102.5l49 9q5 -48 39.5 -76.5t94.5 -28.5q58 0 91 26.5t33 74.5q0 32 -16 51t-52 34l-144 61q-50 21 -75.5 63t-25.5 97h50q0 -88 83 -124l136 -57q49 -21 71.5 -50t22.5 -75q0 -45 -24 -78.5t-63.5 -51t-86.5 -17.5
q-80 0 -129 39.5z" />
    <glyph glyph-name="dieresis" unicode="&#xa8;" horiz-adv-x="302" 
d="M26 663q-10 10 -10 28v8q0 18 10 27.5t28 9.5h7q37 0 37 -37v-8q0 -18 -9.5 -28t-27.5 -10h-7q-18 0 -28 10zM214 663q-10 10 -10 28v8q0 18 10 27.5t28 9.5h7q37 0 37 -37v-8q0 -18 -9.5 -28t-27.5 -10h-7q-18 0 -28 10z" />
    <glyph glyph-name="copyright" unicode="&#xa9;" horiz-adv-x="774" 
d="M201 36q-82 46 -128 128t-46 186t46 186t128 128t186 46t186 -46t128 -128t46 -186t-46 -186t-128 -128t-186 -46t-186 46zM547.5 73.5q71.5 40.5 112 113t40.5 163.5q0 92 -40.5 164.5t-111.5 113t-161 40.5q-89 0 -160 -40.5t-111.5 -113t-40.5 -164.5
q0 -91 40.5 -163.5t111.5 -113t160 -40.5t160.5 40.5zM296 159.5q-45 27.5 -70 77t-25 114.5q0 98 53 157t141 59q68 0 111.5 -32.5t60.5 -92.5l-45 -18q-24 100 -125 100q-71 0 -109 -45.5t-38 -127.5q0 -78 41 -126.5t109 -48.5q46 0 76.5 21t44.5 60l45 -16
q-22 -52 -64 -80.5t-103 -28.5q-58 0 -103 27.5z" />
    <glyph glyph-name="ordfeminine" unicode="&#xaa;" horiz-adv-x="380" 
d="M334.5 403.5q1.5 -15.5 5.5 -33.5q-10 -10 -27 -10q-26 0 -26 56v4q-51 -61 -130 -61q-47 0 -79 25.5t-32 66.5q0 74 65 98.5t176 25.5v9q0 45 -24 67.5t-68 22.5q-30 0 -48.5 -10t-40.5 -28q-10 -8 -15 -11t-12 -3q-10 0 -16.5 6.5t-8.5 16.5q52 67 147 67q52 0 92 -33
t40 -96v-137q0 -27 1.5 -42.5zM236 420.5q35 22.5 51 51.5v66q-91 -1 -142.5 -17t-51.5 -68q0 -55 71 -55q37 0 72 22.5z" />
    <glyph glyph-name="guillemotleft" unicode="&#xab;" horiz-adv-x="500" 
d="M225 288l128 164h47l-119 -164l119 -171h-47zM70 288l128 164h47l-119 -164l119 -171h-47z" />
    <glyph glyph-name="logicalnot" unicode="&#xac;" horiz-adv-x="600" 
d="M493 317h-443v45h490v-230h-47v185z" />
    <glyph glyph-name="uni00AD" unicode="&#xad;" horiz-adv-x="380" 
d="M40 324h300v-47h-300v47z" />
    <glyph glyph-name="registered" unicode="&#xae;" horiz-adv-x="774" 
d="M570.5 662.5q82.5 -47.5 129.5 -129.5t47 -183q0 -100 -47 -182.5t-129.5 -130t-183.5 -47.5t-183.5 47.5t-129.5 130t-47 182.5q0 101 47 183t129.5 129.5t183.5 47.5t183.5 -47.5zM546.5 74.5q71.5 41.5 112.5 114t41 161.5t-41 162t-112.5 114.5t-159.5 41.5
q-87 0 -158.5 -41.5t-112.5 -114.5t-41 -162t41 -161.5t112.5 -114t158.5 -41.5q88 0 159.5 41.5zM528.5 338.5q-27.5 -30.5 -73.5 -38.5l93 -155h-52l-87 152h-106v-152h-48v398h163q138 0 138 -123q0 -51 -27.5 -81.5zM484.5 360q23.5 22 23.5 61q0 38 -23 60t-69 22h-113
v-165h109q49 0 72.5 22z" />
    <glyph glyph-name="macron" unicode="&#xaf;" horiz-adv-x="243" 
d="M-42 703h326v-49h-326v49z" />
    <glyph glyph-name="degree" unicode="&#xb0;" horiz-adv-x="438" 
d="M137.5 503q-36.5 22 -57.5 58.5t-21 80.5q0 43 21 80t57.5 58.5t81.5 21.5t81.5 -21.5t57.5 -58.5t21 -80q0 -44 -21 -80.5t-57.5 -58.5t-81.5 -22t-81.5 22zM302 556.5q32 33.5 32 85.5q0 51 -32 85t-83 34q-50 0 -82.5 -34t-32.5 -85t32 -85t83 -34t83 33.5z" />
    <glyph glyph-name="plusminus" unicode="&#xb1;" horiz-adv-x="600" 
d="M278 356h-238v44h238v229h46v-229h236v-44h-236v-231h-46v231zM40 44h520v-44h-520v44z" />
    <glyph glyph-name="uni00B2" unicode="&#xb2;" horiz-adv-x="333" 
d="M310 324v-42h-288v35q3 2 8 5.5t11 7.5q74 52 117.5 87t73.5 77t30 86q0 43 -24.5 65.5t-68.5 22.5q-94 0 -101 -96q-38 0 -38 27q0 29 17.5 54.5t49 41t70.5 15.5q65 0 102.5 -34t37.5 -101q0 -48 -30.5 -92.5t-70.5 -78t-105 -80.5h209z" />
    <glyph glyph-name="uni00B3" unicode="&#xb3;" horiz-adv-x="351" 
d="M309.5 473.5q20.5 -25.5 20.5 -65.5q0 -58 -41.5 -94t-114.5 -36q-39 0 -73.5 10.5t-55.5 27.5t-21 34q0 10 7 16.5t18 6.5q24 -27 53 -41t75 -14q52 0 80 23.5t28 66.5q0 77 -97 77l-43 -1q-11 0 -17.5 11.5t-6.5 23.5q0 7 6 7h55q86 0 86 72q0 34 -22 53.5t-65 19.5
t-68 -16t-45 -53q-10 0 -17.5 7.5t-7.5 19.5q0 21 17.5 39.5t48.5 30t70 11.5q62 0 99 -29t37 -83q0 -29 -14.5 -52t-43.5 -36q32 -11 52.5 -36.5z" />
    <glyph glyph-name="acute" unicode="&#xb4;" horiz-adv-x="243" 
d="M184 783h65l-117 -151h-55z" />
    <glyph glyph-name="paragraph" unicode="&#xb6;" horiz-adv-x="525" 
d="M243 328q-65 0 -115.5 26t-79 73t-28.5 108q0 103 62.5 159t178.5 56h264v-41h-79v-709h-48v709h-107v-709h-48v328z" />
    <glyph glyph-name="periodcentered" unicode="&#xb7;" horiz-adv-x="308" 
d="M113 276v8q0 38 38 38h7q37 0 37 -38v-8q0 -38 -37 -38h-7q-38 0 -38 38z" />
    <glyph glyph-name="cedilla" unicode="&#xb8;" horiz-adv-x="243" 
d="M194.5 -77.5q25.5 -20.5 25.5 -58.5q0 -44 -35 -68.5t-86 -24.5q-45 0 -70 10t-25 30q0 8 2 13q44 -13 88 -13q75 0 75 52q0 19 -14.5 30.5t-40.5 11.5q-17 0 -40 -6l-19 26l56 75h50l-46 -58q4 1 13 1q41 0 66.5 -20.5z" />
    <glyph glyph-name="uni00B9" unicode="&#xb9;" horiz-adv-x="379" 
d="M302 322v-40h-226v40h95v327q-17 -17 -37.5 -28t-39.5 -11q-15 0 -22.5 9t-7.5 23q30 3 62.5 20.5t57.5 47.5h31v-388h87z" />
    <glyph glyph-name="ordmasculine" unicode="&#xba;" horiz-adv-x="380" 
d="M76 405.5q-40 48.5 -40 127.5q0 80 40 128.5t115 48.5q74 0 113.5 -48.5t39.5 -128.5q0 -79 -39.5 -127.5t-113.5 -48.5q-75 0 -115 48.5zM270 430q28 34 28 103t-28 104t-79 35q-52 0 -80.5 -35t-28.5 -104t28.5 -103t80.5 -34q51 0 79 34z" />
    <glyph glyph-name="guillemotright" unicode="&#xbb;" horiz-adv-x="500" 
d="M100 117l119 171l-119 164h47l128 -164l-128 -171h-47zM255 117l119 171l-119 164h47l128 -164l-128 -171h-47z" />
    <glyph glyph-name="onequarter" unicode="&#xbc;" horiz-adv-x="1016" 
d="M302 322v-40h-226v40h95v327q-17 -17 -37.5 -28t-39.5 -11q-15 0 -22.5 9t-7.5 23q30 3 62.5 20.5t57.5 47.5h31v-388h87zM630 700h44l-296 -700h-44zM985 98h-60v-98h-44v98h-214v23q58 79 91.5 150.5t38.5 151.5q4 1 13 1q30 0 30 -32q0 -54 -33.5 -124t-76.5 -129h151
v136h44v-136h60v-41z" />
    <glyph glyph-name="onehalf" unicode="&#xbd;" horiz-adv-x="962" 
d="M302 322v-40h-226v40h95v327q-17 -17 -37.5 -28t-39.5 -11q-15 0 -22.5 9t-7.5 23q30 3 62.5 20.5t57.5 47.5h31v-388h87zM630 700h44l-296 -700h-44zM939 43v-42h-288v35q3 2 8 5.5t11 7.5q74 52 117.5 87t73.5 77t30 86q0 43 -24.5 65.5t-68.5 22.5q-94 0 -101 -96
q-38 0 -38 27q0 29 17.5 54.5t49 41t70.5 15.5q65 0 102.5 -34t37.5 -101q0 -48 -30.5 -92.5t-70.5 -78t-105 -80.5h209z" />
    <glyph glyph-name="threequarters" unicode="&#xbe;" horiz-adv-x="988" 
d="M309.5 473.5q20.5 -25.5 20.5 -65.5q0 -58 -41.5 -94t-114.5 -36q-39 0 -73.5 10.5t-55.5 27.5t-21 34q0 10 7 16.5t18 6.5q24 -27 53 -41t75 -14q52 0 80 23.5t28 66.5q0 77 -97 77l-43 -1q-11 0 -17.5 11.5t-6.5 23.5q0 7 6 7h55q86 0 86 72q0 34 -22 53.5t-65 19.5
t-68 -16t-45 -53q-10 0 -17.5 7.5t-7.5 19.5q0 21 17.5 39.5t48.5 30t70 11.5q62 0 99 -29t37 -83q0 -29 -14.5 -52t-43.5 -36q32 -11 52.5 -36.5zM602 700h44l-296 -700h-44zM957 98h-60v-98h-44v98h-214v23q58 79 91.5 150.5t38.5 151.5q4 1 13 1q30 0 30 -32
q0 -54 -33.5 -124t-76.5 -129h151v136h44v-136h60v-41z" />
    <glyph glyph-name="questiondown" unicode="&#xbf;" horiz-adv-x="475" 
d="M296 514v-7q0 -38 -37 -38h-7q-38 0 -38 38v7q0 38 38 38h7q37 0 37 -38zM283 323q0 -46 -25 -79t-74 -74q-48 -41 -72 -72.5t-24 -75.5q0 -60 39.5 -95t107.5 -35q116 0 158 126l49 -24q-18 -67 -74 -109t-135 -42q-55 0 -100.5 21t-72 61.5t-26.5 97.5q0 40 14.5 71
t35.5 52t56 51q47 39 69.5 68t22.5 72v26h51v-40z" />
    <glyph glyph-name="Agrave" unicode="&#xc0;" horiz-adv-x="620" 
d="M497 203h-373q-30 -102 -50 -203h-59q45 207 109.5 375t158.5 325h55q94 -156 158 -324t109 -376h-59q-22 112 -49 203zM482 253q-69 217 -172 387q-101 -166 -171 -387h343zM205 893h64l102 -151h-56z" />
    <glyph glyph-name="Aacute" unicode="&#xc1;" horiz-adv-x="620" 
d="M497 203h-373q-30 -102 -50 -203h-59q45 207 109.5 375t158.5 325h55q94 -156 158 -324t109 -376h-59q-22 112 -49 203zM482 253q-69 217 -172 387q-101 -166 -171 -387h343zM367 893h65l-117 -151h-55z" />
    <glyph glyph-name="Acircumflex" unicode="&#xc2;" horiz-adv-x="620" 
d="M497 203h-373q-30 -102 -50 -203h-59q45 207 109.5 375t158.5 325h55q94 -156 158 -324t109 -376h-59q-22 112 -49 203zM482 253q-69 217 -172 387q-101 -166 -171 -387h343zM284 875h53l116 -133h-54l-88 93l-90 -93h-54z" />
    <glyph glyph-name="Atilde" unicode="&#xc3;" horiz-adv-x="620" 
d="M497 203h-373q-30 -102 -50 -203h-59q45 207 109.5 375t158.5 325h55q94 -156 158 -324t109 -376h-59q-22 112 -49 203zM482 253q-69 217 -172 387q-101 -166 -171 -387h343zM169 753.5q-8 5.5 -8 18.5q0 35 25 55.5t62 20.5q22 0 38.5 -8t35.5 -22q19 -12 30.5 -18
t25.5 -6q22 0 33.5 14t14.5 43q17 0 26 -8t9 -22q0 -29 -22 -50t-58 -21q-24 0 -40.5 7.5t-39.5 22.5q-17 12 -29.5 18t-27.5 6q-23 0 -35.5 -13t-16.5 -43q-15 0 -23 5.5z" />
    <glyph glyph-name="Adieresis" unicode="&#xc4;" horiz-adv-x="620" 
d="M497 203h-373q-30 -102 -50 -203h-59q45 207 109.5 375t158.5 325h55q94 -156 158 -324t109 -376h-59q-22 112 -49 203zM482 253q-69 217 -172 387q-101 -166 -171 -387h343zM186 773q-10 10 -10 28v8q0 18 10 27.5t28 9.5h7q37 0 37 -37v-8q0 -18 -9.5 -28t-27.5 -10h-7
q-18 0 -28 10zM374 773q-10 10 -10 28v8q0 18 10 27.5t28 9.5h7q37 0 37 -37v-8q0 -18 -9.5 -28t-27.5 -10h-7q-18 0 -28 10z" />
    <glyph glyph-name="Aring" unicode="&#xc5;" horiz-adv-x="620" 
d="M497 203h-373q-30 -102 -50 -203h-59q45 207 109.5 375t158.5 325h55q94 -156 158 -324t109 -376h-59q-22 112 -49 203zM482 253q-69 217 -172 387q-101 -166 -171 -387h343zM232 769q-32 31 -32 78t32 78.5t78 31.5t78 -31.5t32 -78.5t-32 -78t-78 -31t-78 31z
M359 798.5q20 19.5 20 48.5q0 31 -19.5 50t-49.5 19t-49.5 -19t-19.5 -50q0 -29 20 -48.5t49 -19.5t49 19.5z" />
    <glyph glyph-name="AE" unicode="&#xc6;" horiz-adv-x="930" 
d="M520 650v-257h312v-50h-312v-294h350q0 -28 -9 -38.5t-33 -10.5h-358v206h-330q-46 -102 -66 -206h-59q38 186 149 372t276 328h435v-50h-355zM470 256v394h-9q-85 -72 -163.5 -175.5t-134.5 -218.5h307z" />
    <glyph glyph-name="Ccedilla" unicode="&#xc7;" horiz-adv-x="596" 
d="M533 96q7 -7 7 -18q0 -21 -23.5 -40t-62 -32t-81.5 -15l-39 -49q5 1 14 1q40 0 66 -20.5t26 -58.5q0 -44 -35 -68.5t-86 -24.5q-45 0 -70.5 10t-25.5 30q0 5 3 13q44 -13 88 -13q74 0 74 52q0 19 -14.5 30.5t-40.5 11.5q-17 0 -40 -6l-18 26l49 66q-131 9 -201.5 102
t-70.5 257q0 173 78 266.5t222 93.5q58 0 108 -19.5t86 -57.5q-4 -14 -13 -22.5t-20 -8.5q-14 0 -24 9q-32 25 -65 36t-74 11q-115 0 -177 -80t-62 -228q0 -146 62.5 -226.5t176.5 -80.5q54 0 93 14.5t71 46.5q12 -1 19 -8z" />
    <glyph glyph-name="Egrave" unicode="&#xc8;" horiz-adv-x="560" 
d="M505 50q0 -29 -8 -39.5t-32 -10.5h-379v700h418v-50h-361v-262h313v-50h-313v-288h362zM183 893h64l102 -151h-56z" />
    <glyph glyph-name="Eacute" unicode="&#xc9;" horiz-adv-x="560" 
d="M505 50q0 -29 -8 -39.5t-32 -10.5h-379v700h418v-50h-361v-262h313v-50h-313v-288h362zM345 893h65l-117 -151h-55z" />
    <glyph glyph-name="Ecircumflex" unicode="&#xca;" horiz-adv-x="560" 
d="M505 50q0 -29 -8 -39.5t-32 -10.5h-379v700h418v-50h-361v-262h313v-50h-313v-288h362zM262 875h53l116 -133h-54l-88 93l-90 -93h-54z" />
    <glyph glyph-name="Edieresis" unicode="&#xcb;" horiz-adv-x="560" 
d="M505 50q0 -29 -8 -39.5t-32 -10.5h-379v700h418v-50h-361v-262h313v-50h-313v-288h362zM164 773q-10 10 -10 28v8q0 18 10 27.5t28 9.5h7q37 0 37 -37v-8q0 -18 -9.5 -28t-27.5 -10h-7q-18 0 -28 10zM352 773q-10 10 -10 28v8q0 18 10 27.5t28 9.5h7q37 0 37 -37v-8
q0 -18 -9.5 -28t-27.5 -10h-7q-18 0 -28 10z" />
    <glyph glyph-name="Igrave" unicode="&#xcc;" horiz-adv-x="350" 
d="M147 700h57v-700h-57v700zM70 893h64l102 -151h-56z" />
    <glyph glyph-name="Iacute" unicode="&#xcd;" horiz-adv-x="350" 
d="M147 700h57v-700h-57v700zM232 893h65l-117 -151h-55z" />
    <glyph glyph-name="Icircumflex" unicode="&#xce;" horiz-adv-x="350" 
d="M147 700h57v-700h-57v700zM149 875h53l116 -133h-54l-88 93l-90 -93h-54z" />
    <glyph glyph-name="Idieresis" unicode="&#xcf;" horiz-adv-x="350" 
d="M147 700h57v-700h-57v700zM51 773q-10 10 -10 28v8q0 18 10 27.5t28 9.5h7q37 0 37 -37v-8q0 -18 -9.5 -28t-27.5 -10h-7q-18 0 -28 10zM239 773q-10 10 -10 28v8q0 18 10 27.5t28 9.5h7q37 0 37 -37v-8q0 -18 -9.5 -28t-27.5 -10h-7q-18 0 -28 10z" />
    <glyph glyph-name="Eth" unicode="&#xd0;" horiz-adv-x="672" 
d="M531.5 609.5q83.5 -90.5 83.5 -259.5q0 -108 -38.5 -187t-111 -121t-172.5 -42h-207v333h-85v46h85v321h207q155 0 238.5 -90.5zM488 128q68 78 68 221q0 149 -66.5 225t-196.5 76h-150v-271h203v-46h-203v-283h150q127 0 195 78z" />
    <glyph glyph-name="Ntilde" unicode="&#xd1;" horiz-adv-x="690" 
d="M602 64q2 -28 2 -37q0 -27 -26 -27h-35v64q0 28 -7.5 49.5t-26.5 45.5l-366 463v-622h-57v700h47q10 0 16 -3t14 -13l380 -481v497h57v-563q0 -31 2 -73zM203 753.5q-8 5.5 -8 18.5q0 35 25 55.5t62 20.5q22 0 38.5 -8t35.5 -22q19 -12 30.5 -18t25.5 -6q22 0 33.5 14
t14.5 43q17 0 26 -8t9 -22q0 -29 -22 -50t-58 -21q-24 0 -40.5 7.5t-39.5 22.5q-17 12 -29.5 18t-27.5 6q-23 0 -35.5 -13t-16.5 -43q-15 0 -23 5.5z" />
    <glyph glyph-name="Ograve" unicode="&#xd2;" horiz-adv-x="680" 
d="M123 84q-75 94 -75 270q0 173 75 264.5t217 91.5t217 -91.5t75 -264.5q0 -176 -75 -270t-217 -94t-217 94zM514.5 120.5q58.5 78.5 58.5 233.5q0 304 -233 304t-233 -304q0 -155 59 -233.5t174 -78.5q116 0 174.5 78.5zM235 893h64l102 -151h-56z" />
    <glyph glyph-name="Oacute" unicode="&#xd3;" horiz-adv-x="680" 
d="M123 84q-75 94 -75 270q0 173 75 264.5t217 91.5t217 -91.5t75 -264.5q0 -176 -75 -270t-217 -94t-217 94zM514.5 120.5q58.5 78.5 58.5 233.5q0 304 -233 304t-233 -304q0 -155 59 -233.5t174 -78.5q116 0 174.5 78.5zM397 893h65l-117 -151h-55z" />
    <glyph glyph-name="Ocircumflex" unicode="&#xd4;" horiz-adv-x="680" 
d="M123 84q-75 94 -75 270q0 173 75 264.5t217 91.5t217 -91.5t75 -264.5q0 -176 -75 -270t-217 -94t-217 94zM514.5 120.5q58.5 78.5 58.5 233.5q0 304 -233 304t-233 -304q0 -155 59 -233.5t174 -78.5q116 0 174.5 78.5zM314 875h53l116 -133h-54l-88 93l-90 -93h-54z" />
    <glyph glyph-name="Otilde" unicode="&#xd5;" horiz-adv-x="680" 
d="M123 84q-75 94 -75 270q0 173 75 264.5t217 91.5t217 -91.5t75 -264.5q0 -176 -75 -270t-217 -94t-217 94zM514.5 120.5q58.5 78.5 58.5 233.5q0 304 -233 304t-233 -304q0 -155 59 -233.5t174 -78.5q116 0 174.5 78.5zM199 753.5q-8 5.5 -8 18.5q0 35 25 55.5t62 20.5
q22 0 38.5 -8t35.5 -22q19 -12 30.5 -18t25.5 -6q22 0 33.5 14t14.5 43q17 0 26 -8t9 -22q0 -29 -22 -50t-58 -21q-24 0 -40.5 7.5t-39.5 22.5q-17 12 -29.5 18t-27.5 6q-23 0 -35.5 -13t-16.5 -43q-15 0 -23 5.5z" />
    <glyph glyph-name="Odieresis" unicode="&#xd6;" horiz-adv-x="680" 
d="M123 84q-75 94 -75 270q0 173 75 264.5t217 91.5t217 -91.5t75 -264.5q0 -176 -75 -270t-217 -94t-217 94zM514.5 120.5q58.5 78.5 58.5 233.5q0 304 -233 304t-233 -304q0 -155 59 -233.5t174 -78.5q116 0 174.5 78.5zM216 773q-10 10 -10 28v8q0 18 10 27.5t28 9.5h7
q37 0 37 -37v-8q0 -18 -9.5 -28t-27.5 -10h-7q-18 0 -28 10zM404 773q-10 10 -10 28v8q0 18 10 27.5t28 9.5h7q37 0 37 -37v-8q0 -18 -9.5 -28t-27.5 -10h-7q-18 0 -28 10z" />
    <glyph glyph-name="multiply" unicode="&#xd7;" horiz-adv-x="600" 
d="M108 163l161 161l-161 161l31 32l161 -161l161 161l32 -32l-161 -161l161 -161l-32 -31l-161 161l-161 -161z" />
    <glyph glyph-name="Oslash" unicode="&#xd8;" horiz-adv-x="680" 
d="M632 354q0 -176 -75 -270t-217 -94q-111 0 -180 57l-32 -47h-60l56 82q-76 94 -76 272q0 173 75 264.5t217 91.5q106 0 176 -52l30 43h60l-53 -78q79 -91 79 -269zM158 132l328 481q-55 45 -146 45q-233 0 -233 -304q0 -144 51 -222zM514.5 120.5q58.5 78.5 58.5 233.5
q0 145 -53 221l-329 -482q57 -51 149 -51q116 0 174.5 78.5z" />
    <glyph glyph-name="Ugrave" unicode="&#xd9;" horiz-adv-x="708" 
d="M152.5 54.5q-66.5 64.5 -66.5 196.5v449h57v-454q0 -105 52 -155.5t161 -50.5q110 0 161 50t51 156v454h57v-449q0 -134 -65 -197.5t-204 -63.5q-137 0 -203.5 64.5zM249 893h64l102 -151h-56z" />
    <glyph glyph-name="Uacute" unicode="&#xda;" horiz-adv-x="708" 
d="M152.5 54.5q-66.5 64.5 -66.5 196.5v449h57v-454q0 -105 52 -155.5t161 -50.5q110 0 161 50t51 156v454h57v-449q0 -134 -65 -197.5t-204 -63.5q-137 0 -203.5 64.5zM411 893h65l-117 -151h-55z" />
    <glyph glyph-name="Ucircumflex" unicode="&#xdb;" horiz-adv-x="708" 
d="M152.5 54.5q-66.5 64.5 -66.5 196.5v449h57v-454q0 -105 52 -155.5t161 -50.5q110 0 161 50t51 156v454h57v-449q0 -134 -65 -197.5t-204 -63.5q-137 0 -203.5 64.5zM328 875h53l116 -133h-54l-88 93l-90 -93h-54z" />
    <glyph glyph-name="Udieresis" unicode="&#xdc;" horiz-adv-x="708" 
d="M152.5 54.5q-66.5 64.5 -66.5 196.5v449h57v-454q0 -105 52 -155.5t161 -50.5q110 0 161 50t51 156v454h57v-449q0 -134 -65 -197.5t-204 -63.5q-137 0 -203.5 64.5zM230 773q-10 10 -10 28v8q0 18 10 27.5t28 9.5h7q37 0 37 -37v-8q0 -18 -9.5 -28t-27.5 -10h-7
q-18 0 -28 10zM418 773q-10 10 -10 28v8q0 18 10 27.5t28 9.5h7q37 0 37 -37v-8q0 -18 -9.5 -28t-27.5 -10h-7q-18 0 -28 10z" />
    <glyph glyph-name="Yacute" unicode="&#xdd;" horiz-adv-x="590" 
d="M570 700l-246 -406v-294h-57v294l-247 406h63l213 -358l212 358h62zM352 893h65l-117 -151h-55z" />
    <glyph glyph-name="Thorn" unicode="&#xde;" horiz-adv-x="641" 
d="M525 529q63 -64 63 -171t-63 -171t-198 -64h-161v-123h-57v700h57v-107h161q135 0 198 -64zM480.5 221.5q48.5 49.5 48.5 136.5t-48.5 136.5t-153.5 49.5h-161v-372h161q105 0 153.5 49.5z" />
    <glyph glyph-name="germandbls" unicode="&#xdf;" horiz-adv-x="617" 
d="M517.5 306q35.5 -45 35.5 -107q0 -103 -58.5 -158t-152.5 -55q-58 0 -103.5 18t-45.5 45q0 10 5 17t13 10q31 -24 62.5 -34t72.5 -10q73 0 114.5 41t41.5 118q0 68 -44.5 108t-117.5 40q-10 0 -28 -2l-25 -1q-14 0 -23 12.5t-9 26.5q0 9 7 9h69q65 0 104 40t39 109
t-44 111t-119 42q-79 0 -126 -43.5t-47 -125.5v-517h-54v517q0 68 30.5 116.5t82.5 73t116 24.5q63 0 112 -26.5t75.5 -72t26.5 -102.5q0 -63 -28 -104t-76 -61q59 -14 94.5 -59z" />
    <glyph glyph-name="agrave" unicode="&#xe0;" horiz-adv-x="558" 
d="M483.5 60.5q7.5 -25.5 26.5 -43.5q-5 -9 -16 -15.5t-21 -6.5q-21 0 -34.5 26.5t-16.5 70.5q-34 -47 -90 -74.5t-119 -27.5q-72 0 -117.5 40.5t-45.5 104.5q0 93 94 145.5t277 60.5v32q0 141 -143 141q-50 0 -92.5 -19t-83.5 -61q-5 -5 -14 -5t-19 7t-18 20q43 50 103 77
t127 27q92 0 143.5 -49.5t51.5 -137.5v-241q0 -46 7.5 -71.5zM329 68.5q53 32.5 92 91.5v135q-159 -7 -237 -46t-78 -113q0 -47 30 -73.5t82 -26.5q58 0 111 32.5zM172 783h64l102 -151h-56z" />
    <glyph glyph-name="aacute" unicode="&#xe1;" horiz-adv-x="558" 
d="M483.5 60.5q7.5 -25.5 26.5 -43.5q-5 -9 -16 -15.5t-21 -6.5q-21 0 -34.5 26.5t-16.5 70.5q-34 -47 -90 -74.5t-119 -27.5q-72 0 -117.5 40.5t-45.5 104.5q0 93 94 145.5t277 60.5v32q0 141 -143 141q-50 0 -92.5 -19t-83.5 -61q-5 -5 -14 -5t-19 7t-18 20q43 50 103 77
t127 27q92 0 143.5 -49.5t51.5 -137.5v-241q0 -46 7.5 -71.5zM329 68.5q53 32.5 92 91.5v135q-159 -7 -237 -46t-78 -113q0 -47 30 -73.5t82 -26.5q58 0 111 32.5zM334 783h65l-117 -151h-55z" />
    <glyph glyph-name="acircumflex" unicode="&#xe2;" horiz-adv-x="558" 
d="M483.5 60.5q7.5 -25.5 26.5 -43.5q-5 -9 -16 -15.5t-21 -6.5q-21 0 -34.5 26.5t-16.5 70.5q-34 -47 -90 -74.5t-119 -27.5q-72 0 -117.5 40.5t-45.5 104.5q0 93 94 145.5t277 60.5v32q0 141 -143 141q-50 0 -92.5 -19t-83.5 -61q-5 -5 -14 -5t-19 7t-18 20q43 50 103 77
t127 27q92 0 143.5 -49.5t51.5 -137.5v-241q0 -46 7.5 -71.5zM329 68.5q53 32.5 92 91.5v135q-159 -7 -237 -46t-78 -113q0 -47 30 -73.5t82 -26.5q58 0 111 32.5zM251 765h53l116 -133h-54l-88 93l-90 -93h-54z" />
    <glyph glyph-name="atilde" unicode="&#xe3;" horiz-adv-x="558" 
d="M483.5 60.5q7.5 -25.5 26.5 -43.5q-5 -9 -16 -15.5t-21 -6.5q-21 0 -34.5 26.5t-16.5 70.5q-34 -47 -90 -74.5t-119 -27.5q-72 0 -117.5 40.5t-45.5 104.5q0 93 94 145.5t277 60.5v32q0 141 -143 141q-50 0 -92.5 -19t-83.5 -61q-5 -5 -14 -5t-19 7t-18 20q43 50 103 77
t127 27q92 0 143.5 -49.5t51.5 -137.5v-241q0 -46 7.5 -71.5zM329 68.5q53 32.5 92 91.5v135q-159 -7 -237 -46t-78 -113q0 -47 30 -73.5t82 -26.5q58 0 111 32.5zM136 643.5q-8 5.5 -8 18.5q0 35 25 55.5t62 20.5q22 0 38.5 -8t35.5 -22q19 -12 30.5 -18t25.5 -6
q22 0 33.5 14t14.5 43q17 0 26 -8t9 -22q0 -29 -22 -50t-58 -21q-24 0 -40.5 7.5t-39.5 22.5q-17 12 -29.5 18t-27.5 6q-23 0 -35.5 -13t-16.5 -43q-15 0 -23 5.5z" />
    <glyph glyph-name="adieresis" unicode="&#xe4;" horiz-adv-x="558" 
d="M483.5 60.5q7.5 -25.5 26.5 -43.5q-5 -9 -16 -15.5t-21 -6.5q-21 0 -34.5 26.5t-16.5 70.5q-34 -47 -90 -74.5t-119 -27.5q-72 0 -117.5 40.5t-45.5 104.5q0 93 94 145.5t277 60.5v32q0 141 -143 141q-50 0 -92.5 -19t-83.5 -61q-5 -5 -14 -5t-19 7t-18 20q43 50 103 77
t127 27q92 0 143.5 -49.5t51.5 -137.5v-241q0 -46 7.5 -71.5zM329 68.5q53 32.5 92 91.5v135q-159 -7 -237 -46t-78 -113q0 -47 30 -73.5t82 -26.5q58 0 111 32.5zM153 663q-10 10 -10 28v8q0 18 10 27.5t28 9.5h7q37 0 37 -37v-8q0 -18 -9.5 -28t-27.5 -10h-7q-18 0 -28 10
zM341 663q-10 10 -10 28v8q0 18 10 27.5t28 9.5h7q37 0 37 -37v-8q0 -18 -9.5 -28t-27.5 -10h-7q-18 0 -28 10z" />
    <glyph glyph-name="aring" unicode="&#xe5;" horiz-adv-x="558" 
d="M483.5 60.5q7.5 -25.5 26.5 -43.5q-5 -9 -16 -15.5t-21 -6.5q-21 0 -34.5 26.5t-16.5 70.5q-34 -47 -90 -74.5t-119 -27.5q-72 0 -117.5 40.5t-45.5 104.5q0 93 94 145.5t277 60.5v32q0 141 -143 141q-50 0 -92.5 -19t-83.5 -61q-5 -5 -14 -5t-19 7t-18 20q43 50 103 77
t127 27q92 0 143.5 -49.5t51.5 -137.5v-241q0 -46 7.5 -71.5zM329 68.5q53 32.5 92 91.5v135q-159 -7 -237 -46t-78 -113q0 -47 30 -73.5t82 -26.5q58 0 111 32.5zM199 659q-32 31 -32 78t32 78.5t78 31.5t78 -31.5t32 -78.5t-32 -78t-78 -31t-78 31zM326 688.5
q20 19.5 20 48.5q0 31 -19.5 50t-49.5 19t-49.5 -19t-19.5 -50q0 -29 20 -48.5t49 -19.5t49 19.5z" />
    <glyph glyph-name="ae" unicode="&#xe6;" horiz-adv-x="932" 
d="M889 278h-411q0 -119 49.5 -180.5t134.5 -61.5q66 0 104 23.5t60 71.5q6 13 18 13q14 0 37 -16q-23 -66 -77.5 -103t-141.5 -37q-71 0 -125 32t-83 95q-40 -61 -101 -94t-135 -33q-72 0 -120 38.5t-48 105.5q0 193 373 195v46q0 141 -150 141q-54 0 -92.5 -20.5
t-78.5 -61.5q-7 -8 -15 -8q-15 0 -36 27q42 50 98.5 79.5t126.5 29.5q67 0 117 -28t70 -83q32 55 85 83t118 28q108 0 166 -60.5t60 -181.5q0 -22 -3 -40zM837 322q-2 94 -46.5 144t-127.5 50q-75 0 -124.5 -49.5t-58.5 -144.5h357zM350 74q58 40 83 102q-10 50 -10 100v5
q-172 -6 -245 -41.5t-73 -106.5q0 -46 31.5 -72.5t86.5 -26.5q69 0 127 40z" />
    <glyph glyph-name="ccedilla" unicode="&#xe7;" horiz-adv-x="549" 
d="M493 143.5q8 -9.5 8 -22.5q0 -31 -27 -60t-71.5 -48t-94.5 -22l-39 -49q5 1 14 1q40 0 66 -20.5t26 -58.5q0 -44 -35 -68.5t-86 -24.5q-45 0 -70.5 10t-25.5 30q0 5 3 13q44 -13 88 -13q74 0 74 52q0 19 -14.5 30.5t-40.5 11.5q-17 0 -40 -6l-18 26l50 67
q-103 11 -161.5 86.5t-58.5 199.5q0 85 31 149t88 98.5t133 34.5q91 0 149.5 -47t66.5 -126q-8 -4 -19 -7t-19 -3q-9 0 -13.5 5.5t-8.5 22.5q-12 51 -53.5 80t-102.5 29q-58 0 -102.5 -29.5t-69 -83t-24.5 -123.5q0 -72 24 -126.5t68.5 -84.5t102.5 -30q66 0 112.5 29.5
t70.5 86.5q11 0 19 -9.5z" />
    <glyph glyph-name="egrave" unicode="&#xe8;" horiz-adv-x="560" 
d="M518 268h-412q3 -107 52 -168.5t132 -61.5q56 0 94.5 21t67.5 68q11 17 24 17q11 0 33 -14q-25 -67 -82 -103.5t-137 -36.5q-73 0 -127 35t-83.5 99.5t-29.5 151.5q0 134 64.5 209t179.5 75q107 0 166.5 -67t59.5 -186q0 -21 -2 -39zM464 314q0 97 -44 147.5t-129 50.5
q-80 0 -128.5 -52t-55.5 -146h357zM181 783h64l102 -151h-56z" />
    <glyph glyph-name="eacute" unicode="&#xe9;" horiz-adv-x="560" 
d="M518 268h-412q3 -107 52 -168.5t132 -61.5q56 0 94.5 21t67.5 68q11 17 24 17q11 0 33 -14q-25 -67 -82 -103.5t-137 -36.5q-73 0 -127 35t-83.5 99.5t-29.5 151.5q0 134 64.5 209t179.5 75q107 0 166.5 -67t59.5 -186q0 -21 -2 -39zM464 314q0 97 -44 147.5t-129 50.5
q-80 0 -128.5 -52t-55.5 -146h357zM343 783h65l-117 -151h-55z" />
    <glyph glyph-name="ecircumflex" unicode="&#xea;" horiz-adv-x="560" 
d="M518 268h-412q3 -107 52 -168.5t132 -61.5q56 0 94.5 21t67.5 68q11 17 24 17q11 0 33 -14q-25 -67 -82 -103.5t-137 -36.5q-73 0 -127 35t-83.5 99.5t-29.5 151.5q0 134 64.5 209t179.5 75q107 0 166.5 -67t59.5 -186q0 -21 -2 -39zM464 314q0 97 -44 147.5t-129 50.5
q-80 0 -128.5 -52t-55.5 -146h357zM260 765h53l116 -133h-54l-88 93l-90 -93h-54z" />
    <glyph glyph-name="edieresis" unicode="&#xeb;" horiz-adv-x="560" 
d="M518 268h-412q3 -107 52 -168.5t132 -61.5q56 0 94.5 21t67.5 68q11 17 24 17q11 0 33 -14q-25 -67 -82 -103.5t-137 -36.5q-73 0 -127 35t-83.5 99.5t-29.5 151.5q0 134 64.5 209t179.5 75q107 0 166.5 -67t59.5 -186q0 -21 -2 -39zM464 314q0 97 -44 147.5t-129 50.5
q-80 0 -128.5 -52t-55.5 -146h357zM162 663q-10 10 -10 28v8q0 18 10 27.5t28 9.5h7q37 0 37 -37v-8q0 -18 -9.5 -28t-27.5 -10h-7q-18 0 -28 10zM350 663q-10 10 -10 28v8q0 18 10 27.5t28 9.5h7q37 0 37 -37v-8q0 -18 -9.5 -28t-27.5 -10h-7q-18 0 -28 10z" />
    <glyph glyph-name="igrave" unicode="&#xec;" horiz-adv-x="289" 
d="M117 550h55v-550h-55v550zM40 783h64l102 -151h-56z" />
    <glyph glyph-name="iacute" unicode="&#xed;" horiz-adv-x="289" 
d="M117 550h55v-550h-55v550zM202 783h65l-117 -151h-55z" />
    <glyph glyph-name="icircumflex" unicode="&#xee;" horiz-adv-x="289" 
d="M117 550h55v-550h-55v550zM119 765h53l116 -133h-54l-88 93l-90 -93h-54z" />
    <glyph glyph-name="idieresis" unicode="&#xef;" horiz-adv-x="289" 
d="M117 550h55v-550h-55v550zM21 663q-10 10 -10 28v8q0 18 10 27.5t28 9.5h7q37 0 37 -37v-8q0 -18 -9.5 -28t-27.5 -10h-7q-18 0 -28 10zM209 663q-10 10 -10 28v8q0 18 10 27.5t28 9.5h7q37 0 37 -37v-8q0 -18 -9.5 -28t-27.5 -10h-7q-18 0 -28 10z" />
    <glyph glyph-name="eth" unicode="&#xf0;" horiz-adv-x="547" 
d="M467 503q40 -102 40 -228q0 -124 -55 -205.5t-178 -81.5q-124 0 -179 81.5t-55 205.5q0 74 22.5 138t75 105.5t136.5 41.5q71 0 121 -34q-37 71 -103 134l-99 -60l-29 41l89 54q-40 34 -86 60l36 39q56 -34 98 -69l115 70l28 -42l-104 -63q87 -85 127 -187zM452 275
q0 109 -43 174t-135 65q-93 0 -136 -65t-43 -174q0 -241 179 -241q178 0 178 241z" />
    <glyph glyph-name="ntilde" unicode="&#xf1;" horiz-adv-x="610" 
d="M523 45.5q3 -21.5 12 -38.5q-8 -5 -18.5 -8.5t-20.5 -3.5q-17 0 -24 24t-7 83v271q0 74 -29.5 108.5t-93.5 34.5q-49 0 -100 -24t-97 -68v-424h-55v388q0 76 -2.5 108.5t-9.5 42.5q23 15 41 15q14 0 20 -15t6 -48v-11q95 80 204 80q86 0 128.5 -46.5t42.5 -141.5v-254
q0 -51 3 -72.5zM164 643.5q-8 5.5 -8 18.5q0 35 25 55.5t62 20.5q22 0 38.5 -8t35.5 -22q19 -12 30.5 -18t25.5 -6q22 0 33.5 14t14.5 43q17 0 26 -8t9 -22q0 -29 -22 -50t-58 -21q-24 0 -40.5 7.5t-39.5 22.5q-17 12 -29.5 18t-27.5 6q-23 0 -35.5 -13t-16.5 -43
q-15 0 -23 5.5z" />
    <glyph glyph-name="ograve" unicode="&#xf2;" horiz-adv-x="548" 
d="M99 62q-59 72 -59 214q0 284 234 284t234 -284q0 -142 -59 -214t-175 -72t-175 72zM408.5 95.5q43.5 58.5 43.5 180.5t-43.5 180t-134.5 58t-134.5 -58t-43.5 -180t43.5 -180.5t134.5 -58.5t134.5 58.5zM169 783h64l102 -151h-56z" />
    <glyph glyph-name="oacute" unicode="&#xf3;" horiz-adv-x="548" 
d="M99 62q-59 72 -59 214q0 284 234 284t234 -284q0 -142 -59 -214t-175 -72t-175 72zM408.5 95.5q43.5 58.5 43.5 180.5t-43.5 180t-134.5 58t-134.5 -58t-43.5 -180t43.5 -180.5t134.5 -58.5t134.5 58.5zM331 783h65l-117 -151h-55z" />
    <glyph glyph-name="ocircumflex" unicode="&#xf4;" horiz-adv-x="548" 
d="M99 62q-59 72 -59 214q0 284 234 284t234 -284q0 -142 -59 -214t-175 -72t-175 72zM408.5 95.5q43.5 58.5 43.5 180.5t-43.5 180t-134.5 58t-134.5 -58t-43.5 -180t43.5 -180.5t134.5 -58.5t134.5 58.5zM248 765h53l116 -133h-54l-88 93l-90 -93h-54z" />
    <glyph glyph-name="otilde" unicode="&#xf5;" horiz-adv-x="548" 
d="M99 62q-59 72 -59 214q0 284 234 284t234 -284q0 -142 -59 -214t-175 -72t-175 72zM408.5 95.5q43.5 58.5 43.5 180.5t-43.5 180t-134.5 58t-134.5 -58t-43.5 -180t43.5 -180.5t134.5 -58.5t134.5 58.5zM133 643.5q-8 5.5 -8 18.5q0 35 25 55.5t62 20.5q22 0 38.5 -8
t35.5 -22q19 -12 30.5 -18t25.5 -6q22 0 33.5 14t14.5 43q17 0 26 -8t9 -22q0 -29 -22 -50t-58 -21q-24 0 -40.5 7.5t-39.5 22.5q-17 12 -29.5 18t-27.5 6q-23 0 -35.5 -13t-16.5 -43q-15 0 -23 5.5z" />
    <glyph glyph-name="odieresis" unicode="&#xf6;" horiz-adv-x="548" 
d="M99 62q-59 72 -59 214q0 284 234 284t234 -284q0 -142 -59 -214t-175 -72t-175 72zM408.5 95.5q43.5 58.5 43.5 180.5t-43.5 180t-134.5 58t-134.5 -58t-43.5 -180t43.5 -180.5t134.5 -58.5t134.5 58.5zM150 663q-10 10 -10 28v8q0 18 10 27.5t28 9.5h7q37 0 37 -37v-8
q0 -18 -9.5 -28t-27.5 -10h-7q-18 0 -28 10zM338 663q-10 10 -10 28v8q0 18 10 27.5t28 9.5h7q37 0 37 -37v-8q0 -18 -9.5 -28t-27.5 -10h-7q-18 0 -28 10z" />
    <glyph glyph-name="divide" unicode="&#xf7;" horiz-adv-x="600" 
d="M257 489.5q-14 13.5 -14 32.5q0 18 14 32t32 14q19 0 33.5 -14t14.5 -32q0 -19 -14 -32.5t-34 -13.5q-18 0 -32 13.5zM70 346h460v-44h-460v44zM257 99q-14 14 -14 31q0 19 14 33.5t32 14.5q20 0 34 -14t14 -34q0 -17 -14.5 -31t-33.5 -14q-18 0 -32 14z" />
    <glyph glyph-name="oslash" unicode="&#xf8;" horiz-adv-x="548" 
d="M456 481q52 -71 52 -205q0 -142 -59 -214t-175 -72q-95 0 -152 48l-28 -38h-54l53 70q-53 71 -53 206q0 284 234 284q94 0 152 -47l28 37h54zM127 115l268 357q-43 42 -121 42q-91 0 -134.5 -58t-43.5 -180q0 -103 31 -161zM422 435l-268 -356q44 -42 120 -42
q91 0 134.5 58.5t43.5 180.5q0 102 -30 159z" />
    <glyph glyph-name="ugrave" unicode="&#xf9;" horiz-adv-x="609" 
d="M532 7q-16 -12 -35 -12q-18 0 -25.5 19.5t-9.5 67.5q-30 -42 -83 -67t-112 -25q-88 0 -132.5 48t-44.5 142v370h55v-368q0 -72 33.5 -109.5t97.5 -37.5q54 0 103.5 29.5t82.5 80.5v405h55v-437q0 -58 15 -106zM200 783h64l102 -151h-56z" />
    <glyph glyph-name="uacute" unicode="&#xfa;" horiz-adv-x="609" 
d="M532 7q-16 -12 -35 -12q-18 0 -25.5 19.5t-9.5 67.5q-30 -42 -83 -67t-112 -25q-88 0 -132.5 48t-44.5 142v370h55v-368q0 -72 33.5 -109.5t97.5 -37.5q54 0 103.5 29.5t82.5 80.5v405h55v-437q0 -58 15 -106zM362 783h65l-117 -151h-55z" />
    <glyph glyph-name="ucircumflex" unicode="&#xfb;" horiz-adv-x="609" 
d="M532 7q-16 -12 -35 -12q-18 0 -25.5 19.5t-9.5 67.5q-30 -42 -83 -67t-112 -25q-88 0 -132.5 48t-44.5 142v370h55v-368q0 -72 33.5 -109.5t97.5 -37.5q54 0 103.5 29.5t82.5 80.5v405h55v-437q0 -58 15 -106zM279 765h53l116 -133h-54l-88 93l-90 -93h-54z" />
    <glyph glyph-name="udieresis" unicode="&#xfc;" horiz-adv-x="609" 
d="M532 7q-16 -12 -35 -12q-18 0 -25.5 19.5t-9.5 67.5q-30 -42 -83 -67t-112 -25q-88 0 -132.5 48t-44.5 142v370h55v-368q0 -72 33.5 -109.5t97.5 -37.5q54 0 103.5 29.5t82.5 80.5v405h55v-437q0 -58 15 -106zM181 663q-10 10 -10 28v8q0 18 10 27.5t28 9.5h7
q37 0 37 -37v-8q0 -18 -9.5 -28t-27.5 -10h-7q-18 0 -28 10zM369 663q-10 10 -10 28v8q0 18 10 27.5t28 9.5h7q37 0 37 -37v-8q0 -18 -9.5 -28t-27.5 -10h-7q-18 0 -28 10z" />
    <glyph glyph-name="yacute" unicode="&#xfd;" horiz-adv-x="485" 
d="M474 550l-218 -592q-29 -79 -71 -115t-105 -36q-36 0 -57.5 10t-21.5 27t16 26q10 -7 29 -11.5t40 -4.5q43 0 76 38t58 117l-206 541h58l176 -460l168 460h58zM300 783h65l-117 -151h-55z" />
    <glyph glyph-name="thorn" unicode="&#xfe;" horiz-adv-x="609" 
d="M494 492.5q64 -67.5 64 -212.5q0 -92 -31.5 -157.5t-88 -100t-130.5 -34.5q-90 0 -162 36v-244h-54v1011h54v-301q34 34 80 52t95 18q109 0 173 -67.5zM448 97.5q54 63.5 54 182.5t-48 176.5t-133 57.5q-52 0 -97 -23t-78 -60v-357q34 -19 76 -29.5t86 -10.5
q86 0 140 63.5z" />
    <glyph glyph-name="ydieresis" unicode="&#xff;" horiz-adv-x="485" 
d="M474 550l-218 -592q-29 -79 -71 -115t-105 -36q-36 0 -57.5 10t-21.5 27t16 26q10 -7 29 -11.5t40 -4.5q43 0 76 38t58 117l-206 541h58l176 -460l168 460h58zM119 663q-10 10 -10 28v8q0 18 10 27.5t28 9.5h7q37 0 37 -37v-8q0 -18 -9.5 -28t-27.5 -10h-7q-18 0 -28 10z
M307 663q-10 10 -10 28v8q0 18 10 27.5t28 9.5h7q37 0 37 -37v-8q0 -18 -9.5 -28t-27.5 -10h-7q-18 0 -28 10z" />
    <glyph glyph-name="Amacron" unicode="&#x100;" horiz-adv-x="620" 
d="M497 203h-373q-30 -102 -50 -203h-59q45 207 109.5 375t158.5 325h55q94 -156 158 -324t109 -376h-59q-22 112 -49 203zM482 253q-69 217 -172 387q-101 -166 -171 -387h343zM147 813h326v-49h-326v49z" />
    <glyph glyph-name="amacron" unicode="&#x101;" horiz-adv-x="558" 
d="M483.5 60.5q7.5 -25.5 26.5 -43.5q-5 -9 -16 -15.5t-21 -6.5q-21 0 -34.5 26.5t-16.5 70.5q-34 -47 -90 -74.5t-119 -27.5q-72 0 -117.5 40.5t-45.5 104.5q0 93 94 145.5t277 60.5v32q0 141 -143 141q-50 0 -92.5 -19t-83.5 -61q-5 -5 -14 -5t-19 7t-18 20q43 50 103 77
t127 27q92 0 143.5 -49.5t51.5 -137.5v-241q0 -46 7.5 -71.5zM329 68.5q53 32.5 92 91.5v135q-159 -7 -237 -46t-78 -113q0 -47 30 -73.5t82 -26.5q58 0 111 32.5zM114 703h326v-49h-326v49z" />
    <glyph glyph-name="Abreve" unicode="&#x102;" horiz-adv-x="620" 
d="M497 203h-373q-30 -102 -50 -203h-59q45 207 109.5 375t158.5 325h55q94 -156 158 -324t109 -376h-59q-22 112 -49 203zM482 253q-69 217 -172 387q-101 -166 -171 -387h343zM226.5 756.5q-34.5 15.5 -51 40t-16.5 50.5q0 15 10.5 23.5t28.5 8.5q5 -46 33 -72t79 -26
t79 28t34 75q18 0 28.5 -9t10.5 -27q0 -44 -41 -75.5t-111 -31.5q-49 0 -83.5 15.5z" />
    <glyph glyph-name="abreve" unicode="&#x103;" horiz-adv-x="558" 
d="M483.5 60.5q7.5 -25.5 26.5 -43.5q-5 -9 -16 -15.5t-21 -6.5q-21 0 -34.5 26.5t-16.5 70.5q-34 -47 -90 -74.5t-119 -27.5q-72 0 -117.5 40.5t-45.5 104.5q0 93 94 145.5t277 60.5v32q0 141 -143 141q-50 0 -92.5 -19t-83.5 -61q-5 -5 -14 -5t-19 7t-18 20q43 50 103 77
t127 27q92 0 143.5 -49.5t51.5 -137.5v-241q0 -46 7.5 -71.5zM329 68.5q53 32.5 92 91.5v135q-159 -7 -237 -46t-78 -113q0 -47 30 -73.5t82 -26.5q58 0 111 32.5zM193.5 646.5q-34.5 15.5 -51 40t-16.5 50.5q0 15 10.5 23.5t28.5 8.5q5 -46 33 -72t79 -26t79 28t34 75
q18 0 28.5 -9t10.5 -27q0 -44 -41 -75.5t-111 -31.5q-49 0 -83.5 15.5z" />
    <glyph glyph-name="Aogonek" unicode="&#x104;" horiz-adv-x="620" 
d="M497 203h-373q-30 -102 -50 -203h-59q45 207 109.5 375t158.5 325h55q94 -156 158 -324t109 -376h-59q-22 112 -49 203zM482 253q-69 217 -172 387q-101 -166 -171 -387h343zM503.5 -185.5q-27.5 24.5 -27.5 63.5q0 42 23 71t65 51h41q-78 -49 -78 -117q0 -26 15.5 -40
t42.5 -14q33 0 53 11q6 -9 6 -19q0 -13 -18 -22t-51 -9q-44 0 -71.5 24.5z" />
    <glyph glyph-name="aogonek" unicode="&#x105;" horiz-adv-x="558" 
d="M541 -169q0 -13 -18 -22t-51 -9q-44 0 -71.5 24.5t-27.5 63.5q0 40 20 67.5t58 48.5q-24 23 -29 88q-34 -47 -90 -74.5t-119 -27.5q-72 0 -117.5 40.5t-45.5 104.5q0 93 94 145.5t277 60.5v32q0 141 -143 141q-50 0 -92.5 -19t-83.5 -61q-5 -5 -14 -5t-19 7t-18 20
q43 50 103 77t127 27q92 0 143.5 -49.5t51.5 -137.5v-241q0 -46 7.5 -71.5t26.5 -43.5q-4 -6 -11.5 -12t-15.5 -8q-59 -46 -59 -104q0 -26 15.5 -40t42.5 -14q33 0 53 11q6 -9 6 -19zM329 68.5q53 32.5 92 91.5v135q-159 -7 -237 -46t-78 -113q0 -47 30 -73.5t82 -26.5
q58 0 111 32.5z" />
    <glyph glyph-name="Cacute" unicode="&#x106;" horiz-adv-x="596" 
d="M130.5 84q-78.5 94 -78.5 266q0 173 78 266.5t222 93.5q58 0 108 -19.5t86 -57.5q-4 -14 -13 -22.5t-20 -8.5q-14 0 -24 9q-32 25 -65 36t-74 11q-115 0 -177 -80t-62 -228q0 -146 62.5 -226.5t176.5 -80.5q54 0 93 14.5t71 46.5q12 -1 19 -8t7 -18q0 -22 -27 -42.5
t-70.5 -33t-90.5 -12.5q-143 0 -221.5 94zM409 893h65l-117 -151h-55z" />
    <glyph glyph-name="cacute" unicode="&#x107;" horiz-adv-x="549" 
d="M157.5 25q-56.5 35 -87 100t-30.5 153q0 85 31 149t88 98.5t133 34.5q91 0 149.5 -47t66.5 -126q-8 -4 -19 -7t-19 -3q-9 0 -13.5 5.5t-8.5 22.5q-12 51 -53.5 80t-102.5 29q-58 0 -102.5 -29.5t-69 -83t-24.5 -123.5q0 -72 24 -126.5t68.5 -84.5t102.5 -30
q66 0 112.5 29.5t70.5 86.5q11 0 19 -9.5t8 -22.5q0 -33 -29.5 -63.5t-78.5 -49t-102 -18.5q-77 0 -133.5 35zM344 783h65l-117 -151h-55z" />
    <glyph glyph-name="Ccircumflex" unicode="&#x108;" horiz-adv-x="596" 
d="M130.5 84q-78.5 94 -78.5 266q0 173 78 266.5t222 93.5q58 0 108 -19.5t86 -57.5q-4 -14 -13 -22.5t-20 -8.5q-14 0 -24 9q-32 25 -65 36t-74 11q-115 0 -177 -80t-62 -228q0 -146 62.5 -226.5t176.5 -80.5q54 0 93 14.5t71 46.5q12 -1 19 -8t7 -18q0 -22 -27 -42.5
t-70.5 -33t-90.5 -12.5q-143 0 -221.5 94zM326 875h53l116 -133h-54l-88 93l-90 -93h-54z" />
    <glyph glyph-name="ccircumflex" unicode="&#x109;" horiz-adv-x="549" 
d="M157.5 25q-56.5 35 -87 100t-30.5 153q0 85 31 149t88 98.5t133 34.5q91 0 149.5 -47t66.5 -126q-8 -4 -19 -7t-19 -3q-9 0 -13.5 5.5t-8.5 22.5q-12 51 -53.5 80t-102.5 29q-58 0 -102.5 -29.5t-69 -83t-24.5 -123.5q0 -72 24 -126.5t68.5 -84.5t102.5 -30
q66 0 112.5 29.5t70.5 86.5q11 0 19 -9.5t8 -22.5q0 -33 -29.5 -63.5t-78.5 -49t-102 -18.5q-77 0 -133.5 35zM261 765h53l116 -133h-54l-88 93l-90 -93h-54z" />
    <glyph glyph-name="Cdotaccent" unicode="&#x10a;" horiz-adv-x="596" 
d="M130.5 84q-78.5 94 -78.5 266q0 173 78 266.5t222 93.5q58 0 108 -19.5t86 -57.5q-4 -14 -13 -22.5t-20 -8.5q-14 0 -24 9q-32 25 -65 36t-74 11q-115 0 -177 -80t-62 -228q0 -146 62.5 -226.5t176.5 -80.5q54 0 93 14.5t71 46.5q12 -1 19 -8t7 -18q0 -22 -27 -42.5
t-70.5 -33t-90.5 -12.5q-143 0 -221.5 94zM321 779q-10 10 -10 28v8q0 18 10 27.5t28 9.5h7q37 0 37 -37v-8q0 -18 -9.5 -28t-27.5 -10h-7q-18 0 -28 10z" />
    <glyph glyph-name="cdotaccent" unicode="&#x10b;" horiz-adv-x="549" 
d="M157.5 25q-56.5 35 -87 100t-30.5 153q0 85 31 149t88 98.5t133 34.5q91 0 149.5 -47t66.5 -126q-8 -4 -19 -7t-19 -3q-9 0 -13.5 5.5t-8.5 22.5q-12 51 -53.5 80t-102.5 29q-58 0 -102.5 -29.5t-69 -83t-24.5 -123.5q0 -72 24 -126.5t68.5 -84.5t102.5 -30
q66 0 112.5 29.5t70.5 86.5q11 0 19 -9.5t8 -22.5q0 -33 -29.5 -63.5t-78.5 -49t-102 -18.5q-77 0 -133.5 35zM256 669q-10 10 -10 28v8q0 18 10 27.5t28 9.5h7q37 0 37 -37v-8q0 -18 -9.5 -28t-27.5 -10h-7q-18 0 -28 10z" />
    <glyph glyph-name="Ccaron" unicode="&#x10c;" horiz-adv-x="596" 
d="M130.5 84q-78.5 94 -78.5 266q0 173 78 266.5t222 93.5q58 0 108 -19.5t86 -57.5q-4 -14 -13 -22.5t-20 -8.5q-14 0 -24 9q-32 25 -65 36t-74 11q-115 0 -177 -80t-62 -228q0 -146 62.5 -226.5t176.5 -80.5q54 0 93 14.5t71 46.5q12 -1 19 -8t7 -18q0 -22 -27 -42.5
t-70.5 -33t-90.5 -12.5q-143 0 -221.5 94zM211 886h50l92 -94l91 94h49l-114 -132h-53z" />
    <glyph glyph-name="ccaron" unicode="&#x10d;" horiz-adv-x="549" 
d="M157.5 25q-56.5 35 -87 100t-30.5 153q0 85 31 149t88 98.5t133 34.5q91 0 149.5 -47t66.5 -126q-8 -4 -19 -7t-19 -3q-9 0 -13.5 5.5t-8.5 22.5q-12 51 -53.5 80t-102.5 29q-58 0 -102.5 -29.5t-69 -83t-24.5 -123.5q0 -72 24 -126.5t68.5 -84.5t102.5 -30
q66 0 112.5 29.5t70.5 86.5q11 0 19 -9.5t8 -22.5q0 -33 -29.5 -63.5t-78.5 -49t-102 -18.5q-77 0 -133.5 35zM146 776h50l92 -94l91 94h49l-114 -132h-53z" />
    <glyph glyph-name="Dcaron" unicode="&#x10e;" horiz-adv-x="672" 
d="M531.5 609.5q83.5 -90.5 83.5 -259.5q0 -108 -38.5 -187t-111 -121t-172.5 -42h-207v700h207q155 0 238.5 -90.5zM488 128q68 78 68 221q0 149 -66.5 225t-196.5 76h-150v-600h150q127 0 195 78zM195 886h50l92 -94l91 94h49l-114 -132h-53z" />
    <glyph glyph-name="dcaron" unicode="&#x10f;" horiz-adv-x="686" 
d="M521 8q-19 -12 -35 -12q-27 0 -33 68q-62 -74 -175 -74q-109 0 -171 75.5t-62 207.5q0 135 65.5 211t181.5 76q42 0 86 -14t74 -37v282h55v-663q0 -80 14 -120zM452 121v333q-32 29 -74 45t-86 16q-90 0 -140.5 -64t-50.5 -178q0 -112 48 -174t134 -62q105 0 169 84z
M571.5 493.5q-6.5 4.5 -9.5 10.5q58 46 58 108q0 44 -32 65q0 14 9.5 23.5t25.5 9.5q23 0 37.5 -18t14.5 -49q0 -32 -12.5 -63.5t-34.5 -58.5q-24 -32 -43 -32q-7 0 -13.5 4.5z" />
    <glyph glyph-name="Dcroat" unicode="&#x110;" horiz-adv-x="672" 
d="M531.5 609.5q83.5 -90.5 83.5 -259.5q0 -108 -38.5 -187t-111 -121t-172.5 -42h-207v333h-85v46h85v321h207q155 0 238.5 -90.5zM488 128q68 78 68 221q0 149 -66.5 225t-196.5 76h-150v-271h203v-46h-203v-283h150q127 0 195 78z" />
    <glyph glyph-name="dcroat" unicode="&#x111;" horiz-adv-x="602" 
d="M507 660v-532q0 -80 14 -120q-19 -12 -35 -12q-27 0 -33 68q-62 -74 -175 -74q-109 0 -171 75.5t-62 207.5q0 135 65.5 211t181.5 76q42 0 86 -14t74 -37v151h-161v40h161v91h55v-91h95v-40h-95zM452 121v333q-32 29 -74 45t-86 16q-90 0 -140.5 -64t-50.5 -178
q0 -112 48 -174t134 -62q105 0 169 84z" />
    <glyph glyph-name="Emacron" unicode="&#x112;" horiz-adv-x="560" 
d="M505 50q0 -29 -8 -39.5t-32 -10.5h-379v700h418v-50h-361v-262h313v-50h-313v-288h362zM125 813h326v-49h-326v49z" />
    <glyph glyph-name="emacron" unicode="&#x113;" horiz-adv-x="560" 
d="M518 268h-412q3 -107 52 -168.5t132 -61.5q56 0 94.5 21t67.5 68q11 17 24 17q11 0 33 -14q-25 -67 -82 -103.5t-137 -36.5q-73 0 -127 35t-83.5 99.5t-29.5 151.5q0 134 64.5 209t179.5 75q107 0 166.5 -67t59.5 -186q0 -21 -2 -39zM464 314q0 97 -44 147.5t-129 50.5
q-80 0 -128.5 -52t-55.5 -146h357zM123 703h326v-49h-326v49z" />
    <glyph glyph-name="Ebreve" unicode="&#x114;" horiz-adv-x="560" 
d="M505 50q0 -29 -8 -39.5t-32 -10.5h-379v700h418v-50h-361v-262h313v-50h-313v-288h362zM204.5 756.5q-34.5 15.5 -51 40t-16.5 50.5q0 15 10.5 23.5t28.5 8.5q5 -46 33 -72t79 -26t79 28t34 75q18 0 28.5 -9t10.5 -27q0 -44 -41 -75.5t-111 -31.5q-49 0 -83.5 15.5z" />
    <glyph glyph-name="ebreve" unicode="&#x115;" horiz-adv-x="560" 
d="M518 268h-412q3 -107 52 -168.5t132 -61.5q56 0 94.5 21t67.5 68q11 17 24 17q11 0 33 -14q-25 -67 -82 -103.5t-137 -36.5q-73 0 -127 35t-83.5 99.5t-29.5 151.5q0 134 64.5 209t179.5 75q107 0 166.5 -67t59.5 -186q0 -21 -2 -39zM464 314q0 97 -44 147.5t-129 50.5
q-80 0 -128.5 -52t-55.5 -146h357zM202.5 646.5q-34.5 15.5 -51 40t-16.5 50.5q0 15 10.5 23.5t28.5 8.5q5 -46 33 -72t79 -26t79 28t34 75q18 0 28.5 -9t10.5 -27q0 -44 -41 -75.5t-111 -31.5q-49 0 -83.5 15.5z" />
    <glyph glyph-name="Edotaccent" unicode="&#x116;" horiz-adv-x="560" 
d="M505 50q0 -29 -8 -39.5t-32 -10.5h-379v700h418v-50h-361v-262h313v-50h-313v-288h362zM257 779q-10 10 -10 28v8q0 18 10 27.5t28 9.5h7q37 0 37 -37v-8q0 -18 -9.5 -28t-27.5 -10h-7q-18 0 -28 10z" />
    <glyph glyph-name="edotaccent" unicode="&#x117;" horiz-adv-x="560" 
d="M518 268h-412q3 -107 52 -168.5t132 -61.5q56 0 94.5 21t67.5 68q11 17 24 17q11 0 33 -14q-25 -67 -82 -103.5t-137 -36.5q-73 0 -127 35t-83.5 99.5t-29.5 151.5q0 134 64.5 209t179.5 75q107 0 166.5 -67t59.5 -186q0 -21 -2 -39zM464 314q0 97 -44 147.5t-129 50.5
q-80 0 -128.5 -52t-55.5 -146h357zM255 669q-10 10 -10 28v8q0 18 10 27.5t28 9.5h7q37 0 37 -37v-8q0 -18 -9.5 -28t-27.5 -10h-7q-18 0 -28 10z" />
    <glyph glyph-name="Eogonek" unicode="&#x118;" horiz-adv-x="560" 
d="M535 -169q0 -13 -18 -22t-51 -9q-44 0 -71.5 24.5t-27.5 63.5q0 38 18 64.5t52 47.5h-351v700h418v-50h-361v-262h313v-50h-313v-288h362q0 -22 -4.5 -33t-16.5 -15q-67 -45 -67 -109q0 -26 16 -40t43 -14q31 0 53 11q6 -9 6 -19z" />
    <glyph glyph-name="eogonek" unicode="&#x119;" horiz-adv-x="560" 
d="M518 268h-412q3 -107 52 -168.5t132 -61.5q56 0 94.5 21t67.5 68q11 17 24 17q11 0 33 -14q-16 -45 -48 -76.5t-77 -48.5q-71 -47 -71 -112q0 -26 15.5 -40t42.5 -14q33 0 53 11q6 -9 6 -19q0 -13 -18 -22t-51 -9q-44 0 -71.5 24.5t-27.5 63.5q0 63 57 103q-9 -1 -29 -1
q-73 0 -127 35t-83.5 99.5t-29.5 151.5q0 134 64.5 209t179.5 75q107 0 166.5 -67t59.5 -186q0 -21 -2 -39zM464 314q0 97 -44 147.5t-129 50.5q-80 0 -128.5 -52t-55.5 -146h357z" />
    <glyph glyph-name="Ecaron" unicode="&#x11a;" horiz-adv-x="560" 
d="M505 50q0 -29 -8 -39.5t-32 -10.5h-379v700h418v-50h-361v-262h313v-50h-313v-288h362zM147 886h50l92 -94l91 94h49l-114 -132h-53z" />
    <glyph glyph-name="ecaron" unicode="&#x11b;" horiz-adv-x="560" 
d="M518 268h-412q3 -107 52 -168.5t132 -61.5q56 0 94.5 21t67.5 68q11 17 24 17q11 0 33 -14q-25 -67 -82 -103.5t-137 -36.5q-73 0 -127 35t-83.5 99.5t-29.5 151.5q0 134 64.5 209t179.5 75q107 0 166.5 -67t59.5 -186q0 -21 -2 -39zM464 314q0 97 -44 147.5t-129 50.5
q-80 0 -128.5 -52t-55.5 -146h357zM145 776h50l92 -94l91 94h49l-114 -132h-53z" />
    <glyph glyph-name="Gcircumflex" unicode="&#x11c;" horiz-adv-x="666" 
d="M604 368v-295q-37 -38 -98.5 -60.5t-128.5 -22.5q-151 0 -233 93.5t-82 266.5q0 171 83 265.5t232 94.5q72 0 131.5 -23t92.5 -64q-6 -13 -15 -21t-19 -8q-14 0 -28 11q-35 28 -74.5 41t-88.5 13q-124 0 -189.5 -79.5t-65.5 -229.5q0 -151 65 -229.5t190 -78.5
q55 0 100.5 15t70.5 42v218h-159q-19 0 -26.5 11.5t-7.5 39.5h250zM351 875h53l116 -133h-54l-88 93l-90 -93h-54z" />
    <glyph glyph-name="gcircumflex" unicode="&#x11d;" horiz-adv-x="585" 
d="M556 571.5q8 -7.5 8 -26.5q0 -10 -1 -15q-78 0 -111 -27q48 -48 48 -127q0 -192 -221 -192q-75 0 -107.5 -10t-32.5 -34q0 -28 36 -38.5t129 -10.5q118 0 180 -35t62 -102q0 -79 -63.5 -117.5t-193.5 -38.5q-115 0 -177 36.5t-62 105.5q0 44 27 74.5t78 44.5v3
q-30 7 -47.5 27t-17.5 48t20.5 47t57.5 25q-45 24 -70.5 64t-25.5 91q0 196 226 196q71 0 121 -31q26 23 55.5 36.5t55.5 13.5q18 0 26 -7.5zM405 264.5q38 33.5 38 107.5q0 73 -38.5 108t-119.5 35q-157 0 -157 -143q0 -68 40.5 -104.5t116.5 -36.5q82 0 120 33.5z
M443.5 20q-45.5 22 -150.5 22q-96 0 -141 -22.5t-45 -71.5q0 -53 44.5 -78t137.5 -25q104 0 152 24.5t48 78.5q0 50 -45.5 72zM267 765h53l116 -133h-54l-88 93l-90 -93h-54z" />
    <glyph glyph-name="Gbreve" unicode="&#x11e;" horiz-adv-x="666" 
d="M604 368v-295q-37 -38 -98.5 -60.5t-128.5 -22.5q-151 0 -233 93.5t-82 266.5q0 171 83 265.5t232 94.5q72 0 131.5 -23t92.5 -64q-6 -13 -15 -21t-19 -8q-14 0 -28 11q-35 28 -74.5 41t-88.5 13q-124 0 -189.5 -79.5t-65.5 -229.5q0 -151 65 -229.5t190 -78.5
q55 0 100.5 15t70.5 42v218h-159q-19 0 -26.5 11.5t-7.5 39.5h250zM293.5 756.5q-34.5 15.5 -51 40t-16.5 50.5q0 15 10.5 23.5t28.5 8.5q5 -46 33 -72t79 -26t79 28t34 75q18 0 28.5 -9t10.5 -27q0 -44 -41 -75.5t-111 -31.5q-49 0 -83.5 15.5z" />
    <glyph glyph-name="gbreve" unicode="&#x11f;" horiz-adv-x="585" 
d="M556 571.5q8 -7.5 8 -26.5q0 -10 -1 -15q-78 0 -111 -27q48 -48 48 -127q0 -192 -221 -192q-75 0 -107.5 -10t-32.5 -34q0 -28 36 -38.5t129 -10.5q118 0 180 -35t62 -102q0 -79 -63.5 -117.5t-193.5 -38.5q-115 0 -177 36.5t-62 105.5q0 44 27 74.5t78 44.5v3
q-30 7 -47.5 27t-17.5 48t20.5 47t57.5 25q-45 24 -70.5 64t-25.5 91q0 196 226 196q71 0 121 -31q26 23 55.5 36.5t55.5 13.5q18 0 26 -7.5zM405 264.5q38 33.5 38 107.5q0 73 -38.5 108t-119.5 35q-157 0 -157 -143q0 -68 40.5 -104.5t116.5 -36.5q82 0 120 33.5z
M443.5 20q-45.5 22 -150.5 22q-96 0 -141 -22.5t-45 -71.5q0 -53 44.5 -78t137.5 -25q104 0 152 24.5t48 78.5q0 50 -45.5 72zM209.5 646.5q-34.5 15.5 -51 40t-16.5 50.5q0 15 10.5 23.5t28.5 8.5q5 -46 33 -72t79 -26t79 28t34 75q18 0 28.5 -9t10.5 -27q0 -44 -41 -75.5
t-111 -31.5q-49 0 -83.5 15.5z" />
    <glyph glyph-name="Gdotaccent" unicode="&#x120;" horiz-adv-x="666" 
d="M604 368v-295q-37 -38 -98.5 -60.5t-128.5 -22.5q-151 0 -233 93.5t-82 266.5q0 171 83 265.5t232 94.5q72 0 131.5 -23t92.5 -64q-6 -13 -15 -21t-19 -8q-14 0 -28 11q-35 28 -74.5 41t-88.5 13q-124 0 -189.5 -79.5t-65.5 -229.5q0 -151 65 -229.5t190 -78.5
q55 0 100.5 15t70.5 42v218h-159q-19 0 -26.5 11.5t-7.5 39.5h250zM346 779q-10 10 -10 28v8q0 18 10 27.5t28 9.5h7q37 0 37 -37v-8q0 -18 -9.5 -28t-27.5 -10h-7q-18 0 -28 10z" />
    <glyph glyph-name="gdotaccent" unicode="&#x121;" horiz-adv-x="585" 
d="M556 571.5q8 -7.5 8 -26.5q0 -10 -1 -15q-78 0 -111 -27q48 -48 48 -127q0 -192 -221 -192q-75 0 -107.5 -10t-32.5 -34q0 -28 36 -38.5t129 -10.5q118 0 180 -35t62 -102q0 -79 -63.5 -117.5t-193.5 -38.5q-115 0 -177 36.5t-62 105.5q0 44 27 74.5t78 44.5v3
q-30 7 -47.5 27t-17.5 48t20.5 47t57.5 25q-45 24 -70.5 64t-25.5 91q0 196 226 196q71 0 121 -31q26 23 55.5 36.5t55.5 13.5q18 0 26 -7.5zM405 264.5q38 33.5 38 107.5q0 73 -38.5 108t-119.5 35q-157 0 -157 -143q0 -68 40.5 -104.5t116.5 -36.5q82 0 120 33.5z
M443.5 20q-45.5 22 -150.5 22q-96 0 -141 -22.5t-45 -71.5q0 -53 44.5 -78t137.5 -25q104 0 152 24.5t48 78.5q0 50 -45.5 72zM262 669q-10 10 -10 28v8q0 18 10 27.5t28 9.5h7q37 0 37 -37v-8q0 -18 -9.5 -28t-27.5 -10h-7q-18 0 -28 10z" />
    <glyph glyph-name="uni0122" unicode="&#x122;" horiz-adv-x="666" 
d="M604 368v-295q-37 -38 -98.5 -60.5t-128.5 -22.5q-151 0 -233 93.5t-82 266.5q0 171 83 265.5t232 94.5q72 0 131.5 -23t92.5 -64q-6 -13 -15 -21t-19 -8q-14 0 -28 11q-35 28 -74.5 41t-88.5 13q-124 0 -189.5 -79.5t-65.5 -229.5q0 -151 65 -229.5t190 -78.5
q55 0 100.5 15t70.5 42v218h-159q-19 0 -26.5 11.5t-7.5 39.5h250zM416 -92.5q10 -10.5 10 -29.5v-9q0 -31 -10 -64t-27 -59q-14 -22 -23 -30t-19 -8q-13 0 -23 10q26 30 40.5 57t18.5 59h-4q-16 0 -25.5 10t-9.5 27v10q0 16 9.5 26.5t25.5 10.5h10q17 0 27 -10.5z" />
    <glyph glyph-name="uni0123" unicode="&#x123;" horiz-adv-x="585" 
d="M556 571.5q8 -7.5 8 -26.5q0 -10 -1 -15q-78 0 -111 -27q48 -48 48 -127q0 -192 -221 -192q-75 0 -107.5 -10t-32.5 -34q0 -28 36 -38.5t129 -10.5q118 0 180 -35t62 -102q0 -79 -63.5 -117.5t-193.5 -38.5q-115 0 -177 36.5t-62 105.5q0 44 27 74.5t78 44.5v3
q-30 7 -47.5 27t-17.5 48t20.5 47t57.5 25q-45 24 -70.5 64t-25.5 91q0 196 226 196q71 0 121 -31q26 23 55.5 36.5t55.5 13.5q18 0 26 -7.5zM405 264.5q38 33.5 38 107.5q0 73 -38.5 108t-119.5 35q-157 0 -157 -143q0 -68 40.5 -104.5t116.5 -36.5q82 0 120 33.5z
M443.5 20q-45.5 22 -150.5 22q-96 0 -141 -22.5t-45 -71.5q0 -53 44.5 -78t137.5 -25q104 0 152 24.5t48 78.5q0 50 -45.5 72zM262.5 654q-14.5 18 -14.5 49q0 63 47 123q26 31 44 31q7 0 13.5 -4.5t8.5 -10.5q-25 -19 -41.5 -46.5t-16.5 -60.5q0 -24 8 -39.5t25 -25.5
q-1 -14 -10.5 -24t-25.5 -10q-23 0 -37.5 18z" />
    <glyph glyph-name="Hcircumflex" unicode="&#x124;" horiz-adv-x="680" 
d="M594 700v-700h-58v340h-392v-340h-58v700h58v-311h392v311h58zM314 875h53l116 -133h-54l-88 93l-90 -93h-54z" />
    <glyph glyph-name="hcircumflex" unicode="&#x125;" horiz-adv-x="630" 
d="M487.5 510q51.5 -50 51.5 -134v-376h-55v369q0 70 -36 107t-104 37q-47 0 -100.5 -20.5t-97.5 -54.5v-438h-55v791h55v-299q98 68 204 68q86 0 137.5 -50zM99 925h53l116 -133h-54l-88 93l-90 -93h-54z" />
    <glyph glyph-name="Hbar" unicode="&#x126;" horiz-adv-x="680" 
d="M670 534h-76v-534h-58v340h-392v-340h-58v534h-76v50h76v116h58v-116h392v116h58v-116h76v-50zM536 534h-392v-145h392v145z" />
    <glyph glyph-name="hbar" unicode="&#x127;" horiz-adv-x="635" 
d="M492.5 510q51.5 -50 51.5 -134v-376h-55v369q0 70 -36 107t-104 37q-47 0 -100.5 -20.5t-97.5 -54.5v-438h-55v654h-91v45h91v92h55v-92h153v-45h-153v-162q98 68 204 68q86 0 137.5 -50z" />
    <glyph glyph-name="Itilde" unicode="&#x128;" horiz-adv-x="350" 
d="M147 700h57v-700h-57v700zM34 753.5q-8 5.5 -8 18.5q0 35 25 55.5t62 20.5q22 0 38.5 -8t35.5 -22q19 -12 30.5 -18t25.5 -6q22 0 33.5 14t14.5 43q17 0 26 -8t9 -22q0 -29 -22 -50t-58 -21q-24 0 -40.5 7.5t-39.5 22.5q-17 12 -29.5 18t-27.5 6q-23 0 -35.5 -13
t-16.5 -43q-15 0 -23 5.5z" />
    <glyph glyph-name="itilde" unicode="&#x129;" horiz-adv-x="289" 
d="M117 550h55v-550h-55v550zM4 643.5q-8 5.5 -8 18.5q0 35 25 55.5t62 20.5q22 0 38.5 -8t35.5 -22q19 -12 30.5 -18t25.5 -6q22 0 33.5 14t14.5 43q17 0 26 -8t9 -22q0 -29 -22 -50t-58 -21q-24 0 -40.5 7.5t-39.5 22.5q-17 12 -29.5 18t-27.5 6q-23 0 -35.5 -13
t-16.5 -43q-15 0 -23 5.5z" />
    <glyph glyph-name="Imacron" unicode="&#x12a;" horiz-adv-x="350" 
d="M147 700h57v-700h-57v700zM12 813h326v-49h-326v49z" />
    <glyph glyph-name="imacron" unicode="&#x12b;" horiz-adv-x="289" 
d="M117 550h55v-550h-55v550zM-18 703h326v-49h-326v49z" />
    <glyph glyph-name="Ibreve" unicode="&#x12c;" horiz-adv-x="350" 
d="M147 700h57v-700h-57v700zM91.5 756.5q-34.5 15.5 -51 40t-16.5 50.5q0 15 10.5 23.5t28.5 8.5q5 -46 33 -72t79 -26t79 28t34 75q18 0 28.5 -9t10.5 -27q0 -44 -41 -75.5t-111 -31.5q-49 0 -83.5 15.5z" />
    <glyph glyph-name="ibreve" unicode="&#x12d;" horiz-adv-x="289" 
d="M117 550h55v-550h-55v550zM61.5 646.5q-34.5 15.5 -51 40t-16.5 50.5q0 15 10.5 23.5t28.5 8.5q5 -46 33 -72t79 -26t79 28t34 75q18 0 28.5 -9t10.5 -27q0 -44 -41 -75.5t-111 -31.5q-49 0 -83.5 15.5z" />
    <glyph glyph-name="Iogonek" unicode="&#x12e;" horiz-adv-x="350" 
d="M147 700h57v-700h-57v700zM102.5 -185.5q-27.5 24.5 -27.5 63.5q0 42 23 71t65 51h41q-78 -49 -78 -117q0 -26 15.5 -40t42.5 -14q33 0 53 11q6 -9 6 -19q0 -13 -18 -22t-51 -9q-44 0 -71.5 24.5z" />
    <glyph glyph-name="iogonek" unicode="&#x12f;" horiz-adv-x="289" 
d="M117 550h55v-550h-55v550zM114 669q-10 10 -10 28v8q0 18 10 27.5t28 9.5h7q37 0 37 -37v-8q0 -18 -9.5 -28t-27.5 -10h-7q-18 0 -28 10zM70.5 -185.5q-27.5 24.5 -27.5 63.5q0 42 23 71t65 51h41q-78 -49 -78 -117q0 -26 15.5 -40t42.5 -14q33 0 53 11q6 -9 6 -19
q0 -13 -18 -22t-51 -9q-44 0 -71.5 24.5z" />
    <glyph glyph-name="Idotaccent" unicode="&#x130;" horiz-adv-x="350" 
d="M147 700h57v-700h-57v700zM144 779q-10 10 -10 28v8q0 18 10 27.5t28 9.5h7q37 0 37 -37v-8q0 -18 -9.5 -28t-27.5 -10h-7q-18 0 -28 10z" />
    <glyph glyph-name="dotlessi" unicode="&#x131;" horiz-adv-x="289" 
d="M117 550h55v-550h-55v550z" />
    <glyph glyph-name="IJ" unicode="&#x132;" horiz-adv-x="697" 
d="M147 700h57v-700h-57v700zM347 -1.5q-34 8.5 -53 18.5q0 20 6 31.5t16 11.5q8 0 23 -6q4 -1 27.5 -7.5t52.5 -6.5q133 0 133 143v517h57v-517q0 -92 -50.5 -142.5t-141.5 -50.5q-36 0 -70 8.5z" />
    <glyph glyph-name="ij" unicode="&#x133;" horiz-adv-x="559" 
d="M117 550h55v-550h-55v550zM114 669q-10 10 -10 28v8q0 18 10 27.5t28 9.5h7q37 0 37 -37v-8q0 -18 -9.5 -28t-27.5 -10h-7q-18 0 -28 10zM276 -186q-23 6 -34 15q-7 7 -7 18q0 9 3.5 16t8.5 8q28 -15 77 -15q34 0 53 20.5t19 60.5v613h55v-608q0 -65 -35 -99.5t-94 -34.5
q-23 0 -46 6zM392 669q-10 10 -10 28v8q0 18 10 27.5t28 9.5h7q37 0 37 -37v-8q0 -18 -9.5 -28t-27.5 -10h-7q-18 0 -28 10z" />
    <glyph glyph-name="Jcircumflex" unicode="&#x134;" horiz-adv-x="427" 
d="M77 -1.5q-34 8.5 -53 18.5q0 20 6 31.5t16 11.5q8 0 23 -6q4 -1 27.5 -7.5t52.5 -6.5q133 0 133 143v517h57v-517q0 -92 -50.5 -142.5t-141.5 -50.5q-36 0 -70 8.5zM285 875h53l116 -133h-54l-88 93l-90 -93h-54z" />
    <glyph glyph-name="jcircumflex" unicode="&#x135;" horiz-adv-x="270" 
d="M-13 -186q-23 6 -34 15q-7 7 -7 18q0 9 3.5 16t8.5 8q28 -15 77 -15q34 0 53 20.5t19 60.5v613h55v-608q0 -65 -35 -99.5t-94 -34.5q-23 0 -46 6zM108 765h53l116 -133h-54l-88 93l-90 -93h-54z" />
    <glyph glyph-name="uni0136" unicode="&#x136;" horiz-adv-x="610" 
d="M585 3q-14 -11 -35 -11q-14 0 -22.5 6t-20.5 24l-156 247q-18 28 -34 41.5t-38 19t-60 5.5h-62v-335h-57v700h57v-315h80q12 0 30 -2l242 317h68l-258 -332q42 -21 81 -80zM359 -92.5q10 -10.5 10 -29.5v-9q0 -31 -10 -64t-27 -59q-14 -22 -23 -30t-19 -8q-13 0 -23 10
q26 30 40.5 57t18.5 59h-4q-16 0 -25.5 10t-9.5 27v10q0 16 9.5 26.5t25.5 10.5h10q17 0 27 -10.5z" />
    <glyph glyph-name="uni0137" unicode="&#x137;" horiz-adv-x="591" 
d="M527 0q-10 0 -24.5 -1.5t-22.5 -1.5q-16 0 -25 14l-127 204q-19 31 -47 42.5t-76 10.5l-59 -3v-265h-55v791h55v-477l52 1q29 1 45 8.5t33 30.5l153 196h66l-174 -217q-7 -8 -15 -17t-17 -14q56 -12 84 -58zM335 -92.5q10 -10.5 10 -29.5v-9q0 -31 -10 -64t-27 -59
q-14 -22 -23 -30t-19 -8q-13 0 -23 10q26 30 40.5 57t18.5 59h-4q-16 0 -25.5 10t-9.5 27v10q0 16 9.5 26.5t25.5 10.5h10q17 0 27 -10.5z" />
    <glyph glyph-name="kgreenlandic" unicode="&#x138;" horiz-adv-x="591" 
d="M521 12q-25 -13 -41 -13q-14 0 -24 13l-127 193q-20 31 -47.5 42t-76.5 11l-61 -2v-256h-53v550h53v-247l54 2q29 1 45 8.5t33 30.5l155 206h64l-179 -231q-12 -15 -24 -27q52 -15 80 -58z" />
    <glyph glyph-name="Lacute" unicode="&#x139;" horiz-adv-x="513" 
d="M498 49v-49h-412v700h57v-651h355zM172 893h65l-117 -151h-55z" />
    <glyph glyph-name="lacute" unicode="&#x13a;" horiz-adv-x="269" 
d="M107 791h55v-791h-55v791zM191 983h65l-117 -151h-55z" />
    <glyph glyph-name="uni013B" unicode="&#x13b;" horiz-adv-x="513" 
d="M498 49v-49h-412v700h57v-651h355zM331 -92.5q10 -10.5 10 -29.5v-9q0 -31 -10 -64t-27 -59q-14 -22 -23 -30t-19 -8q-13 0 -23 10q26 30 40.5 57t18.5 59h-4q-16 0 -25.5 10t-9.5 27v10q0 16 9.5 26.5t25.5 10.5h10q17 0 27 -10.5z" />
    <glyph glyph-name="uni013C" unicode="&#x13c;" horiz-adv-x="269" 
d="M107 791h55v-791h-55v791zM173 -92.5q10 -10.5 10 -29.5v-9q0 -31 -10 -64t-27 -59q-14 -22 -23 -30t-19 -8q-13 0 -23 10q26 30 40.5 57t18.5 59h-4q-16 0 -25.5 10t-9.5 27v10q0 16 9.5 26.5t25.5 10.5h10q17 0 27 -10.5z" />
    <glyph glyph-name="Lcaron" unicode="&#x13d;" horiz-adv-x="597" 
d="M498 49v-49h-412v700h57v-651h355zM402.5 493.5q-6.5 4.5 -9.5 10.5q58 46 58 108q0 44 -32 65q0 14 9.5 23.5t25.5 9.5q23 0 37.5 -18t14.5 -49q0 -32 -12.5 -63.5t-34.5 -58.5q-24 -32 -43 -32q-7 0 -13.5 4.5z" />
    <glyph glyph-name="lcaron" unicode="&#x13e;" horiz-adv-x="427" 
d="M107 791h55v-791h-55v791zM290.5 493.5q-6.5 4.5 -9.5 10.5q58 46 58 108q0 44 -32 65q0 14 9.5 23.5t25.5 9.5q23 0 37.5 -18t14.5 -49q0 -32 -12.5 -63.5t-34.5 -58.5q-24 -32 -43 -32q-7 0 -13.5 4.5z" />
    <glyph glyph-name="Ldot" unicode="&#x13f;" horiz-adv-x="513" 
d="M498 49v-49h-412v700h57v-651h355zM314 347v8q0 38 38 38h7q37 0 37 -38v-8q0 -38 -37 -38h-7q-38 0 -38 38z" />
    <glyph glyph-name="ldot" unicode="&#x140;" horiz-adv-x="416" 
d="M107 791h55v-791h-55v791zM258 326v8q0 38 38 38h7q37 0 37 -38v-8q0 -38 -37 -38h-7q-38 0 -38 38z" />
    <glyph glyph-name="Lslash" unicode="&#x141;" horiz-adv-x="547" 
d="M518 49v-49h-412v353l-89 -36v54l89 36v293h57v-271l206 83v-54l-206 -83v-326h355z" />
    <glyph glyph-name="lslash" unicode="&#x142;" horiz-adv-x="268" 
d="M268 445l-106 -49v-396h-55v370l-107 -50v55l107 50v366h55v-341l106 49v-54z" />
    <glyph glyph-name="Nacute" unicode="&#x143;" horiz-adv-x="690" 
d="M602 64q2 -28 2 -37q0 -27 -26 -27h-35v64q0 28 -7.5 49.5t-26.5 45.5l-366 463v-622h-57v700h47q10 0 16 -3t14 -13l380 -481v497h57v-563q0 -31 2 -73zM401 893h65l-117 -151h-55z" />
    <glyph glyph-name="nacute" unicode="&#x144;" horiz-adv-x="610" 
d="M523 45.5q3 -21.5 12 -38.5q-8 -5 -18.5 -8.5t-20.5 -3.5q-17 0 -24 24t-7 83v271q0 74 -29.5 108.5t-93.5 34.5q-49 0 -100 -24t-97 -68v-424h-55v388q0 76 -2.5 108.5t-9.5 42.5q23 15 41 15q14 0 20 -15t6 -48v-11q95 80 204 80q86 0 128.5 -46.5t42.5 -141.5v-254
q0 -51 3 -72.5zM362 783h65l-117 -151h-55z" />
    <glyph glyph-name="uni0145" unicode="&#x145;" horiz-adv-x="690" 
d="M602 64q2 -28 2 -37q0 -27 -26 -27h-35v64q0 28 -7.5 49.5t-26.5 45.5l-366 463v-622h-57v700h47q10 0 16 -3t14 -13l380 -481v497h57v-563q0 -31 2 -73zM383 -92.5q10 -10.5 10 -29.5v-9q0 -31 -10 -64t-27 -59q-14 -22 -23 -30t-19 -8q-13 0 -23 10q26 30 40.5 57
t18.5 59h-4q-16 0 -25.5 10t-9.5 27v10q0 16 9.5 26.5t25.5 10.5h10q17 0 27 -10.5z" />
    <glyph glyph-name="uni0146" unicode="&#x146;" horiz-adv-x="610" 
d="M523 45.5q3 -21.5 12 -38.5q-8 -5 -18.5 -8.5t-20.5 -3.5q-17 0 -24 24t-7 83v271q0 74 -29.5 108.5t-93.5 34.5q-49 0 -100 -24t-97 -68v-424h-55v388q0 76 -2.5 108.5t-9.5 42.5q23 15 41 15q14 0 20 -15t6 -48v-11q95 80 204 80q86 0 128.5 -46.5t42.5 -141.5v-254
q0 -51 3 -72.5zM344 -92.5q10 -10.5 10 -29.5v-9q0 -31 -10 -64t-27 -59q-14 -22 -23 -30t-19 -8q-13 0 -23 10q26 30 40.5 57t18.5 59h-4q-16 0 -25.5 10t-9.5 27v10q0 16 9.5 26.5t25.5 10.5h10q17 0 27 -10.5z" />
    <glyph glyph-name="Ncaron" unicode="&#x147;" horiz-adv-x="690" 
d="M602 64q2 -28 2 -37q0 -27 -26 -27h-35v64q0 28 -7.5 49.5t-26.5 45.5l-366 463v-622h-57v700h47q10 0 16 -3t14 -13l380 -481v497h57v-563q0 -31 2 -73zM203 886h50l92 -94l91 94h49l-114 -132h-53z" />
    <glyph glyph-name="ncaron" unicode="&#x148;" horiz-adv-x="610" 
d="M523 45.5q3 -21.5 12 -38.5q-8 -5 -18.5 -8.5t-20.5 -3.5q-17 0 -24 24t-7 83v271q0 74 -29.5 108.5t-93.5 34.5q-49 0 -100 -24t-97 -68v-424h-55v388q0 76 -2.5 108.5t-9.5 42.5q23 15 41 15q14 0 20 -15t6 -48v-11q95 80 204 80q86 0 128.5 -46.5t42.5 -141.5v-254
q0 -51 3 -72.5zM164 776h50l92 -94l91 94h49l-114 -132h-53z" />
    <glyph glyph-name="napostrophe" unicode="&#x149;" horiz-adv-x="610" 
d="M-57.5 586.5q-6.5 4.5 -9.5 10.5q58 46 58 108q0 44 -32 65q0 14 9.5 23.5t25.5 9.5q23 0 37.5 -18t14.5 -49q0 -32 -12.5 -63.5t-34.5 -58.5q-24 -32 -43 -32q-7 0 -13.5 4.5zM523 45.5q3 -21.5 12 -38.5q-8 -5 -18.5 -8.5t-20.5 -3.5q-17 0 -24 24t-7 83v271
q0 74 -29.5 108.5t-93.5 34.5q-49 0 -100 -24t-97 -68v-424h-55v388q0 76 -2.5 108.5t-9.5 42.5q23 15 41 15q14 0 20 -15t6 -48v-11q95 80 204 80q86 0 128.5 -46.5t42.5 -141.5v-254q0 -51 3 -72.5z" />
    <glyph glyph-name="Eng" unicode="&#x14a;" horiz-adv-x="685" 
d="M599 700v-751q0 -67 -38 -104t-101 -37q-31 0 -59 9.5t-28 29.5q0 8 3.5 15t8.5 8q34 -16 79 -16q37 0 57.5 22.5t20.5 68.5v119q0 28 -7 48.5t-27 46.5l-365 464v-623h-57v700h47q10 0 16 -3t14 -13l379 -480v496h57z" />
    <glyph glyph-name="eng" unicode="&#x14b;" horiz-adv-x="609" 
d="M477.5 513.5q42.5 -46.5 42.5 -141.5v-423q0 -68 -36.5 -104.5t-101.5 -36.5q-26 0 -52 8.5t-31 24.5q-2 3 -2 9q0 8 4 14t10 6q34 -16 76 -16q38 0 58.5 22.5t20.5 68.5v428q0 76 -30.5 109.5t-93.5 33.5q-50 0 -101 -24t-96 -68v-424h-55v388q0 68 -2 101.5t-10 47.5
q25 15 41 15q26 0 26 -63v-9q95 80 204 80q86 0 128.5 -46.5z" />
    <glyph glyph-name="Omacron" unicode="&#x14c;" horiz-adv-x="680" 
d="M123 84q-75 94 -75 270q0 173 75 264.5t217 91.5t217 -91.5t75 -264.5q0 -176 -75 -270t-217 -94t-217 94zM514.5 120.5q58.5 78.5 58.5 233.5q0 304 -233 304t-233 -304q0 -155 59 -233.5t174 -78.5q116 0 174.5 78.5zM177 813h326v-49h-326v49z" />
    <glyph glyph-name="omacron" unicode="&#x14d;" horiz-adv-x="548" 
d="M99 62q-59 72 -59 214q0 284 234 284t234 -284q0 -142 -59 -214t-175 -72t-175 72zM408.5 95.5q43.5 58.5 43.5 180.5t-43.5 180t-134.5 58t-134.5 -58t-43.5 -180t43.5 -180.5t134.5 -58.5t134.5 58.5zM111 703h326v-49h-326v49z" />
    <glyph glyph-name="Obreve" unicode="&#x14e;" horiz-adv-x="680" 
d="M123 84q-75 94 -75 270q0 173 75 264.5t217 91.5t217 -91.5t75 -264.5q0 -176 -75 -270t-217 -94t-217 94zM514.5 120.5q58.5 78.5 58.5 233.5q0 304 -233 304t-233 -304q0 -155 59 -233.5t174 -78.5q116 0 174.5 78.5zM256.5 756.5q-34.5 15.5 -51 40t-16.5 50.5
q0 15 10.5 23.5t28.5 8.5q5 -46 33 -72t79 -26t79 28t34 75q18 0 28.5 -9t10.5 -27q0 -44 -41 -75.5t-111 -31.5q-49 0 -83.5 15.5z" />
    <glyph glyph-name="obreve" unicode="&#x14f;" horiz-adv-x="548" 
d="M99 62q-59 72 -59 214q0 284 234 284t234 -284q0 -142 -59 -214t-175 -72t-175 72zM408.5 95.5q43.5 58.5 43.5 180.5t-43.5 180t-134.5 58t-134.5 -58t-43.5 -180t43.5 -180.5t134.5 -58.5t134.5 58.5zM190.5 646.5q-34.5 15.5 -51 40t-16.5 50.5q0 15 10.5 23.5
t28.5 8.5q5 -46 33 -72t79 -26t79 28t34 75q18 0 28.5 -9t10.5 -27q0 -44 -41 -75.5t-111 -31.5q-49 0 -83.5 15.5z" />
    <glyph glyph-name="Ohungarumlaut" unicode="&#x150;" horiz-adv-x="680" 
d="M123 84q-75 94 -75 270q0 173 75 264.5t217 91.5t217 -91.5t75 -264.5q0 -176 -75 -270t-217 -94t-217 94zM514.5 120.5q58.5 78.5 58.5 233.5q0 304 -233 304t-233 -304q0 -155 59 -233.5t174 -78.5q116 0 174.5 78.5zM322 873h65l-104 -151h-49zM473 873h65l-121 -151
h-50z" />
    <glyph glyph-name="ohungarumlaut" unicode="&#x151;" horiz-adv-x="548" 
d="M99 62q-59 72 -59 214q0 284 234 284t234 -284q0 -142 -59 -214t-175 -72t-175 72zM408.5 95.5q43.5 58.5 43.5 180.5t-43.5 180t-134.5 58t-134.5 -58t-43.5 -180t43.5 -180.5t134.5 -58.5t134.5 58.5zM256 763h65l-104 -151h-49zM407 763h65l-121 -151h-50z" />
    <glyph glyph-name="OE" unicode="&#x152;" horiz-adv-x="1050" 
d="M995 50q0 -29 -8 -39.5t-32 -10.5h-379v111q-75 -121 -236 -121q-142 0 -217 94t-75 270q0 173 75 264.5t217 91.5q162 0 236 -118v108h418v-50h-361v-262h313v-50h-313v-288h362zM514.5 120.5q58.5 78.5 58.5 233.5q0 304 -233 304t-233 -304q0 -155 59 -233.5
t174 -78.5q116 0 174.5 78.5z" />
    <glyph glyph-name="oe" unicode="&#x153;" horiz-adv-x="965" 
d="M923 268h-412q3 -107 52 -168.5t132 -61.5q56 0 94.5 21t67.5 68q11 17 24 17q11 0 33 -14q-25 -67 -82 -103.5t-137 -36.5q-73 0 -127.5 35t-83.5 99q-51 -134 -210 -134q-116 0 -175 72t-59 214q0 284 234 284q159 0 210 -132q29 64 84 98t131 34q107 0 166.5 -67
t59.5 -186q0 -21 -2 -39zM408.5 95.5q43.5 58.5 43.5 180.5t-43.5 180t-134.5 58t-134.5 -58t-43.5 -180t43.5 -180.5t134.5 -58.5t134.5 58.5zM869 314q0 97 -44 147.5t-129 50.5q-80 0 -128.5 -52t-55.5 -146h357z" />
    <glyph glyph-name="Racute" unicode="&#x154;" horiz-adv-x="629" 
d="M585 3q-14 -11 -35 -11q-14 0 -23 6t-20 24l-119 195q-28 46 -61.5 63t-94.5 17h-89v-297h-57v700h227q124 0 191.5 -52.5t67.5 -149.5q0 -79 -51 -133.5t-135 -65.5q32 -25 55 -61zM308 347q99 0 151.5 39t52.5 112q0 151 -199 151h-170v-302h165zM370 893h65l-117 -151
h-55z" />
    <glyph glyph-name="racute" unicode="&#x155;" horiz-adv-x="400" 
d="M358.5 546.5q19.5 -10.5 19.5 -29.5q0 -17 -11 -25q-23 14 -67 14q-46 0 -82.5 -26t-57 -71.5t-20.5 -103.5v-305h-55v550h55v-103q25 48 70 79t95 31q34 0 53.5 -10.5zM257 783h65l-117 -151h-55z" />
    <glyph glyph-name="uni0156" unicode="&#x156;" horiz-adv-x="629" 
d="M585 3q-14 -11 -35 -11q-14 0 -23 6t-20 24l-119 195q-28 46 -61.5 63t-94.5 17h-89v-297h-57v700h227q124 0 191.5 -52.5t67.5 -149.5q0 -79 -51 -133.5t-135 -65.5q32 -25 55 -61zM308 347q99 0 151.5 39t52.5 112q0 151 -199 151h-170v-302h165zM354 -92.5
q10 -10.5 10 -29.5v-9q0 -31 -10 -64t-27 -59q-14 -22 -23 -30t-19 -8q-13 0 -23 10q26 30 40.5 57t18.5 59h-4q-16 0 -25.5 10t-9.5 27v10q0 16 9.5 26.5t25.5 10.5h10q17 0 27 -10.5z" />
    <glyph glyph-name="uni0157" unicode="&#x157;" horiz-adv-x="400" 
d="M358.5 546.5q19.5 -10.5 19.5 -29.5q0 -17 -11 -25q-23 14 -67 14q-46 0 -82.5 -26t-57 -71.5t-20.5 -103.5v-305h-55v550h55v-103q25 48 70 79t95 31q34 0 53.5 -10.5zM158 -92.5q10 -10.5 10 -29.5v-9q0 -31 -10 -64t-27 -59q-14 -22 -23 -30t-19 -8q-13 0 -23 10
q26 30 40.5 57t18.5 59h-4q-16 0 -25.5 10t-9.5 27v10q0 16 9.5 26.5t25.5 10.5h10q17 0 27 -10.5z" />
    <glyph glyph-name="Rcaron" unicode="&#x158;" horiz-adv-x="629" 
d="M585 3q-14 -11 -35 -11q-14 0 -23 6t-20 24l-119 195q-28 46 -61.5 63t-94.5 17h-89v-297h-57v700h227q124 0 191.5 -52.5t67.5 -149.5q0 -79 -51 -133.5t-135 -65.5q32 -25 55 -61zM308 347q99 0 151.5 39t52.5 112q0 151 -199 151h-170v-302h165zM172 886h50l92 -94
l91 94h49l-114 -132h-53z" />
    <glyph glyph-name="rcaron" unicode="&#x159;" horiz-adv-x="400" 
d="M358.5 546.5q19.5 -10.5 19.5 -29.5q0 -17 -11 -25q-23 14 -67 14q-46 0 -82.5 -26t-57 -71.5t-20.5 -103.5v-305h-55v550h55v-103q25 48 70 79t95 31q34 0 53.5 -10.5zM59 776h50l92 -94l91 94h49l-114 -132h-53z" />
    <glyph glyph-name="Sacute" unicode="&#x15a;" horiz-adv-x="642" 
d="M197 11.5q-59 21.5 -93.5 58.5t-34.5 80q0 16 10.5 25.5t29.5 10.5q14 -68 71.5 -107t146.5 -39q90 0 144.5 40t54.5 105q0 41 -19.5 69t-64 48.5t-122.5 37.5q-124 29 -177.5 73t-53.5 116q0 84 62 132.5t170 48.5q94 0 159 -43.5t87 -121.5q-9 -11 -30 -11
q-12 0 -20.5 6t-15.5 21q-24 49 -70 75t-110 26q-86 0 -130 -33.5t-44 -99.5q0 -34 17 -58t56.5 -42.5t108.5 -36.5q101 -26 155.5 -52t77.5 -60.5t23 -88.5q0 -93 -69.5 -147t-190.5 -54q-69 0 -128 21.5zM378 893h65l-117 -151h-55z" />
    <glyph glyph-name="sacute" unicode="&#x15b;" horiz-adv-x="485" 
d="M145 5.5q-47 15.5 -76 40.5t-29 52q0 12 7.5 21t18.5 11q30 -47 71.5 -70.5t109.5 -23.5q67 0 105 30t38 83q0 34 -20.5 55t-51 32.5t-82.5 24.5q-59 15 -95.5 29t-62 43.5t-25.5 77.5q0 50 27 83.5t69 49.5t89 16q64 0 112.5 -26.5t79.5 -76.5q-11 -11 -18.5 -15.5
t-15.5 -4.5q-12 0 -23 14q-26 32 -57.5 48t-78.5 16q-57 0 -93 -25t-36 -76q0 -32 20 -52.5t49.5 -31.5t79.5 -23q61 -16 98.5 -31t63.5 -45.5t26 -81.5q0 -73 -54.5 -116t-147.5 -43q-51 0 -98 15.5zM300 783h65l-117 -151h-55z" />
    <glyph glyph-name="Scircumflex" unicode="&#x15c;" horiz-adv-x="642" 
d="M197 11.5q-59 21.5 -93.5 58.5t-34.5 80q0 16 10.5 25.5t29.5 10.5q14 -68 71.5 -107t146.5 -39q90 0 144.5 40t54.5 105q0 41 -19.5 69t-64 48.5t-122.5 37.5q-124 29 -177.5 73t-53.5 116q0 84 62 132.5t170 48.5q94 0 159 -43.5t87 -121.5q-9 -11 -30 -11
q-12 0 -20.5 6t-15.5 21q-24 49 -70 75t-110 26q-86 0 -130 -33.5t-44 -99.5q0 -34 17 -58t56.5 -42.5t108.5 -36.5q101 -26 155.5 -52t77.5 -60.5t23 -88.5q0 -93 -69.5 -147t-190.5 -54q-69 0 -128 21.5zM295 875h53l116 -133h-54l-88 93l-90 -93h-54z" />
    <glyph glyph-name="scircumflex" unicode="&#x15d;" horiz-adv-x="485" 
d="M145 5.5q-47 15.5 -76 40.5t-29 52q0 12 7.5 21t18.5 11q30 -47 71.5 -70.5t109.5 -23.5q67 0 105 30t38 83q0 34 -20.5 55t-51 32.5t-82.5 24.5q-59 15 -95.5 29t-62 43.5t-25.5 77.5q0 50 27 83.5t69 49.5t89 16q64 0 112.5 -26.5t79.5 -76.5q-11 -11 -18.5 -15.5
t-15.5 -4.5q-12 0 -23 14q-26 32 -57.5 48t-78.5 16q-57 0 -93 -25t-36 -76q0 -32 20 -52.5t49.5 -31.5t79.5 -23q61 -16 98.5 -31t63.5 -45.5t26 -81.5q0 -73 -54.5 -116t-147.5 -43q-51 0 -98 15.5zM217 765h53l116 -133h-54l-88 93l-90 -93h-54z" />
    <glyph glyph-name="Scedilla" unicode="&#x15e;" horiz-adv-x="642" 
d="M520.5 48q-64.5 -53 -178.5 -58l-39 -48q5 1 14 1q40 0 66 -20.5t26 -58.5q0 -44 -35 -68.5t-86 -24.5q-45 0 -70.5 10t-25.5 30q0 5 3 13q44 -13 88 -13q74 0 74 52q0 19 -14.5 30.5t-40.5 11.5q-17 0 -40 -6l-18 26l49 66q-62 5 -113 27.5t-81 57t-30 74.5
q0 16 10.5 25.5t29.5 10.5q14 -68 71.5 -107t146.5 -39q90 0 144.5 40t54.5 105q0 41 -19.5 69t-64 48.5t-122.5 37.5q-124 29 -177.5 73t-53.5 116q0 84 62 132.5t170 48.5q94 0 159 -43.5t87 -121.5q-9 -11 -30 -11q-12 0 -20.5 6t-15.5 21q-24 49 -70 75t-110 26
q-86 0 -130 -33.5t-44 -99.5q0 -34 17 -58t56.5 -42.5t108.5 -36.5q101 -26 155.5 -52t77.5 -60.5t23 -88.5q0 -90 -64.5 -143z" />
    <glyph glyph-name="scedilla" unicode="&#x15f;" horiz-adv-x="485" 
d="M396.5 38q-48.5 -43 -132.5 -47l-39 -49q5 1 14 1q40 0 66 -20.5t26 -58.5q0 -44 -35 -68.5t-86 -24.5q-45 0 -70.5 10t-25.5 30q0 5 3 13q44 -13 88 -13q74 0 74 52q0 19 -14.5 30.5t-40.5 11.5q-17 0 -40 -6l-18 26l49 66q-46 4 -86.5 20t-64.5 39t-24 48q0 12 7.5 21
t18.5 11q30 -47 71.5 -70.5t109.5 -23.5q67 0 105 30t38 83q0 34 -20.5 55t-51 32.5t-82.5 24.5q-59 15 -95.5 29t-62 43.5t-25.5 77.5q0 50 27 83.5t69 49.5t89 16q64 0 112.5 -26.5t79.5 -76.5q-11 -11 -18.5 -15.5t-15.5 -4.5q-12 0 -23 14q-26 32 -57.5 48t-78.5 16
q-57 0 -93 -25t-36 -76q0 -32 20 -52.5t49.5 -31.5t79.5 -23q61 -16 98.5 -31t63.5 -45.5t26 -81.5q0 -68 -48.5 -111z" />
    <glyph glyph-name="Scaron" unicode="&#x160;" horiz-adv-x="642" 
d="M197 11.5q-59 21.5 -93.5 58.5t-34.5 80q0 16 10.5 25.5t29.5 10.5q14 -68 71.5 -107t146.5 -39q90 0 144.5 40t54.5 105q0 41 -19.5 69t-64 48.5t-122.5 37.5q-124 29 -177.5 73t-53.5 116q0 84 62 132.5t170 48.5q94 0 159 -43.5t87 -121.5q-9 -11 -30 -11
q-12 0 -20.5 6t-15.5 21q-24 49 -70 75t-110 26q-86 0 -130 -33.5t-44 -99.5q0 -34 17 -58t56.5 -42.5t108.5 -36.5q101 -26 155.5 -52t77.5 -60.5t23 -88.5q0 -93 -69.5 -147t-190.5 -54q-69 0 -128 21.5zM180 886h50l92 -94l91 94h49l-114 -132h-53z" />
    <glyph glyph-name="scaron" unicode="&#x161;" horiz-adv-x="485" 
d="M145 5.5q-47 15.5 -76 40.5t-29 52q0 12 7.5 21t18.5 11q30 -47 71.5 -70.5t109.5 -23.5q67 0 105 30t38 83q0 34 -20.5 55t-51 32.5t-82.5 24.5q-59 15 -95.5 29t-62 43.5t-25.5 77.5q0 50 27 83.5t69 49.5t89 16q64 0 112.5 -26.5t79.5 -76.5q-11 -11 -18.5 -15.5
t-15.5 -4.5q-12 0 -23 14q-26 32 -57.5 48t-78.5 16q-57 0 -93 -25t-36 -76q0 -32 20 -52.5t49.5 -31.5t79.5 -23q61 -16 98.5 -31t63.5 -45.5t26 -81.5q0 -73 -54.5 -116t-147.5 -43q-51 0 -98 15.5zM102 776h50l92 -94l91 94h49l-114 -132h-53z" />
    <glyph glyph-name="uni0162" unicode="&#x162;" horiz-adv-x="534" 
d="M523 679q0 -29 -31 -29h-194v-650h-57v650h-226v50h504q4 -14 4 -21zM330.5 -77.5q25.5 -20.5 25.5 -58.5q0 -44 -35 -68.5t-86 -24.5q-45 0 -70 10t-25 30q0 8 2 13q44 -13 88 -13q75 0 75 52q0 19 -14.5 30.5t-40.5 11.5q-17 0 -40 -6l-19 26l56 75h50l-46 -58
q4 1 13 1q41 0 66.5 -20.5z" />
    <glyph glyph-name="uni0163" unicode="&#x163;" horiz-adv-x="374" 
d="M356 31q0 -17 -14 -25q-26 -13 -72 -16l-39 -48q5 1 14 1q40 0 66 -20.5t26 -58.5q0 -44 -35 -68.5t-86 -24.5q-45 0 -70.5 10t-25.5 30q0 5 3 13q44 -13 88 -13q74 0 74 52q0 19 -14.5 30.5t-40.5 11.5q-18 0 -40 -6l-18 26l51 68q-50 9 -78.5 44.5t-28.5 88.5v379h-104
v45h104v150h55v-150h157v-45h-157v-368q0 -49 22 -74t63 -25q46 0 86 19q14 -8 14 -26z" />
    <glyph glyph-name="Tcaron" unicode="&#x164;" horiz-adv-x="534" 
d="M523 679q0 -29 -31 -29h-194v-650h-57v650h-226v50h504q4 -14 4 -21zM128 886h50l92 -94l91 94h49l-114 -132h-53z" />
    <glyph glyph-name="tcaron" unicode="&#x165;" horiz-adv-x="374" 
d="M356 31q0 -17 -14 -25q-31 -16 -88 -16q-62 0 -100 37.5t-38 98.5v379h-104v45h104v150h55v-150h157v-45h-157v-368q0 -49 22 -74t63 -25q46 0 86 19q14 -8 14 -26zM9 886h50l92 -94l91 94h49l-114 -132h-53z" />
    <glyph glyph-name="Tbar" unicode="&#x166;" horiz-adv-x="533" 
d="M523 679q0 -29 -31 -29h-194v-287h136v-48h-136v-315h-57v315h-139v48h139v287h-226v50h504q4 -14 4 -21z" />
    <glyph glyph-name="tbar" unicode="&#x167;" horiz-adv-x="397" 
d="M356 31q0 -17 -14 -25q-31 -16 -88 -16q-62 0 -100 37.5t-38 98.5v160h-104v44h104v175h-104v45h104v150h55v-150h157v-45h-157v-175h157v-44h-157v-149q0 -49 22 -74t63 -25q46 0 86 19q14 -8 14 -26z" />
    <glyph glyph-name="Utilde" unicode="&#x168;" horiz-adv-x="708" 
d="M152.5 54.5q-66.5 64.5 -66.5 196.5v449h57v-454q0 -105 52 -155.5t161 -50.5q110 0 161 50t51 156v454h57v-449q0 -134 -65 -197.5t-204 -63.5q-137 0 -203.5 64.5zM213 753.5q-8 5.5 -8 18.5q0 35 25 55.5t62 20.5q22 0 38.5 -8t35.5 -22q19 -12 30.5 -18t25.5 -6
q22 0 33.5 14t14.5 43q17 0 26 -8t9 -22q0 -29 -22 -50t-58 -21q-24 0 -40.5 7.5t-39.5 22.5q-17 12 -29.5 18t-27.5 6q-23 0 -35.5 -13t-16.5 -43q-15 0 -23 5.5z" />
    <glyph glyph-name="utilde" unicode="&#x169;" horiz-adv-x="609" 
d="M532 7q-16 -12 -35 -12q-18 0 -25.5 19.5t-9.5 67.5q-30 -42 -83 -67t-112 -25q-88 0 -132.5 48t-44.5 142v370h55v-368q0 -72 33.5 -109.5t97.5 -37.5q54 0 103.5 29.5t82.5 80.5v405h55v-437q0 -58 15 -106zM164 643.5q-8 5.5 -8 18.5q0 35 25 55.5t62 20.5
q22 0 38.5 -8t35.5 -22q19 -12 30.5 -18t25.5 -6q22 0 33.5 14t14.5 43q17 0 26 -8t9 -22q0 -29 -22 -50t-58 -21q-24 0 -40.5 7.5t-39.5 22.5q-17 12 -29.5 18t-27.5 6q-23 0 -35.5 -13t-16.5 -43q-15 0 -23 5.5z" />
    <glyph glyph-name="Umacron" unicode="&#x16a;" horiz-adv-x="708" 
d="M152.5 54.5q-66.5 64.5 -66.5 196.5v449h57v-454q0 -105 52 -155.5t161 -50.5q110 0 161 50t51 156v454h57v-449q0 -134 -65 -197.5t-204 -63.5q-137 0 -203.5 64.5zM191 813h326v-49h-326v49z" />
    <glyph glyph-name="umacron" unicode="&#x16b;" horiz-adv-x="609" 
d="M532 7q-16 -12 -35 -12q-18 0 -25.5 19.5t-9.5 67.5q-30 -42 -83 -67t-112 -25q-88 0 -132.5 48t-44.5 142v370h55v-368q0 -72 33.5 -109.5t97.5 -37.5q54 0 103.5 29.5t82.5 80.5v405h55v-437q0 -58 15 -106zM142 703h326v-49h-326v49z" />
    <glyph glyph-name="Ubreve" unicode="&#x16c;" horiz-adv-x="708" 
d="M152.5 54.5q-66.5 64.5 -66.5 196.5v449h57v-454q0 -105 52 -155.5t161 -50.5q110 0 161 50t51 156v454h57v-449q0 -134 -65 -197.5t-204 -63.5q-137 0 -203.5 64.5zM270.5 756.5q-34.5 15.5 -51 40t-16.5 50.5q0 15 10.5 23.5t28.5 8.5q5 -46 33 -72t79 -26t79 28t34 75
q18 0 28.5 -9t10.5 -27q0 -44 -41 -75.5t-111 -31.5q-49 0 -83.5 15.5z" />
    <glyph glyph-name="ubreve" unicode="&#x16d;" horiz-adv-x="609" 
d="M532 7q-16 -12 -35 -12q-18 0 -25.5 19.5t-9.5 67.5q-30 -42 -83 -67t-112 -25q-88 0 -132.5 48t-44.5 142v370h55v-368q0 -72 33.5 -109.5t97.5 -37.5q54 0 103.5 29.5t82.5 80.5v405h55v-437q0 -58 15 -106zM221.5 646.5q-34.5 15.5 -51 40t-16.5 50.5q0 15 10.5 23.5
t28.5 8.5q5 -46 33 -72t79 -26t79 28t34 75q18 0 28.5 -9t10.5 -27q0 -44 -41 -75.5t-111 -31.5q-49 0 -83.5 15.5z" />
    <glyph glyph-name="Uring" unicode="&#x16e;" horiz-adv-x="708" 
d="M152.5 54.5q-66.5 64.5 -66.5 196.5v449h57v-454q0 -105 52 -155.5t161 -50.5q110 0 161 50t51 156v454h57v-449q0 -134 -65 -197.5t-204 -63.5q-137 0 -203.5 64.5zM276 769q-32 31 -32 78t32 78.5t78 31.5t78 -31.5t32 -78.5t-32 -78t-78 -31t-78 31zM403 798.5
q20 19.5 20 48.5q0 31 -19.5 50t-49.5 19t-49.5 -19t-19.5 -50q0 -29 20 -48.5t49 -19.5t49 19.5z" />
    <glyph glyph-name="uring" unicode="&#x16f;" horiz-adv-x="609" 
d="M532 7q-16 -12 -35 -12q-18 0 -25.5 19.5t-9.5 67.5q-30 -42 -83 -67t-112 -25q-88 0 -132.5 48t-44.5 142v370h55v-368q0 -72 33.5 -109.5t97.5 -37.5q54 0 103.5 29.5t82.5 80.5v405h55v-437q0 -58 15 -106zM227 659q-32 31 -32 78t32 78.5t78 31.5t78 -31.5t32 -78.5
t-32 -78t-78 -31t-78 31zM354 688.5q20 19.5 20 48.5q0 31 -19.5 50t-49.5 19t-49.5 -19t-19.5 -50q0 -29 20 -48.5t49 -19.5t49 19.5z" />
    <glyph glyph-name="Uhungarumlaut" unicode="&#x170;" horiz-adv-x="708" 
d="M152.5 54.5q-66.5 64.5 -66.5 196.5v449h57v-454q0 -105 52 -155.5t161 -50.5q110 0 161 50t51 156v454h57v-449q0 -134 -65 -197.5t-204 -63.5q-137 0 -203.5 64.5zM336 873h65l-104 -151h-49zM487 873h65l-121 -151h-50z" />
    <glyph glyph-name="uhungarumlaut" unicode="&#x171;" horiz-adv-x="610" 
d="M532 7q-16 -12 -35 -12q-18 0 -25.5 19.5t-9.5 67.5q-30 -42 -83 -67t-112 -25q-88 0 -132.5 48t-44.5 142v370h55v-368q0 -72 33.5 -109.5t97.5 -37.5q54 0 103.5 29.5t82.5 80.5v405h55v-437q0 -58 15 -106zM286 763h65l-104 -151h-49zM437 763h65l-121 -151h-50z" />
    <glyph glyph-name="Uogonek" unicode="&#x172;" horiz-adv-x="708" 
d="M625 700v-449q0 -117 -49.5 -180t-152.5 -77q-56 -44 -56 -101q0 -26 15.5 -40t42.5 -14q33 0 53 11q6 -9 6 -19q0 -13 -18 -22t-51 -9q-44 0 -71.5 24.5t-27.5 63.5q0 62 56 102h-16q-137 0 -203.5 64.5t-66.5 196.5v449h57v-454q0 -105 52 -155.5t161 -50.5
q110 0 161 50t51 156v454h57z" />
    <glyph glyph-name="uogonek" unicode="&#x173;" horiz-adv-x="609" 
d="M571 -172q0 -13 -18 -22t-51 -9q-44 0 -71.5 24.5t-27.5 63.5t20 67t57 49q-9 8 -13 27.5t-5 53.5q-30 -42 -83 -67t-112 -25q-88 0 -132.5 48t-44.5 142v370h55v-368q0 -72 33.5 -109.5t97.5 -37.5q54 0 103.5 29.5t82.5 80.5v405h55v-437q0 -58 15 -106q-3 -3 -7 -4
q-71 -49 -71 -113q0 -26 15.5 -40t42.5 -14q33 0 53 11q6 -9 6 -19z" />
    <glyph glyph-name="Wcircumflex" unicode="&#x174;" horiz-adv-x="856" 
d="M841 700q-22 -149 -63.5 -307t-121.5 -393h-62q-73 244 -106.5 361.5t-54.5 210.5q-24 -104 -59.5 -230.5t-101.5 -341.5h-62q-80 224 -125 385t-70 315h57q41 -253 168 -622q44 131 83.5 271.5t91.5 350.5h32q67 -249 104.5 -379t74.5 -242q123 363 162 621h53zM405 875
h53l116 -133h-54l-88 93l-90 -93h-54z" />
    <glyph glyph-name="wcircumflex" unicode="&#x175;" horiz-adv-x="760" 
d="M724 550q-41 -293 -161 -550h-47q-53 114 -86.5 216t-51.5 207q-18 -106 -50.5 -208t-83.5 -215h-49q-60 125 -99.5 259t-62.5 291h57q16 -131 48 -247t84 -228q94 206 131 475h52q41 -276 136 -477q102 234 124 477h59zM354 765h53l116 -133h-54l-88 93l-90 -93h-54z
" />
    <glyph glyph-name="Ycircumflex" unicode="&#x176;" horiz-adv-x="590" 
d="M570 700l-246 -406v-294h-57v294l-247 406h63l213 -358l212 358h62zM269 875h53l116 -133h-54l-88 93l-90 -93h-54z" />
    <glyph glyph-name="ycircumflex" unicode="&#x177;" horiz-adv-x="485" 
d="M474 550l-218 -592q-29 -79 -71 -115t-105 -36q-36 0 -57.5 10t-21.5 27t16 26q10 -7 29 -11.5t40 -4.5q43 0 76 38t58 117l-206 541h58l176 -460l168 460h58zM217 765h53l116 -133h-54l-88 93l-90 -93h-54z" />
    <glyph glyph-name="Ydieresis" unicode="&#x178;" horiz-adv-x="590" 
d="M570 700l-246 -406v-294h-57v294l-247 406h63l213 -358l212 358h62zM171 773q-10 10 -10 28v8q0 18 10 27.5t28 9.5h7q37 0 37 -37v-8q0 -18 -9.5 -28t-27.5 -10h-7q-18 0 -28 10zM359 773q-10 10 -10 28v8q0 18 10 27.5t28 9.5h7q37 0 37 -37v-8q0 -18 -9.5 -28
t-27.5 -10h-7q-18 0 -28 10z" />
    <glyph glyph-name="Zacute" unicode="&#x179;" horiz-adv-x="580" 
d="M528 50v-50h-474v50l403 600h-405v50h468v-49l-397 -601h405zM347 893h65l-117 -151h-55z" />
    <glyph glyph-name="zacute" unicode="&#x17a;" horiz-adv-x="500" 
d="M470 48v-48h-440v38l359 465h-333v47h406v-36l-357 -466h365zM307 783h65l-117 -151h-55z" />
    <glyph glyph-name="Zdotaccent" unicode="&#x17b;" horiz-adv-x="580" 
d="M528 50v-50h-474v50l403 600h-405v50h468v-49l-397 -601h405zM259 779q-10 10 -10 28v8q0 18 10 27.5t28 9.5h7q37 0 37 -37v-8q0 -18 -9.5 -28t-27.5 -10h-7q-18 0 -28 10z" />
    <glyph glyph-name="zdotaccent" unicode="&#x17c;" horiz-adv-x="500" 
d="M470 48v-48h-440v38l359 465h-333v47h406v-36l-357 -466h365zM219 669q-10 10 -10 28v8q0 18 10 27.5t28 9.5h7q37 0 37 -37v-8q0 -18 -9.5 -28t-27.5 -10h-7q-18 0 -28 10z" />
    <glyph glyph-name="Zcaron" unicode="&#x17d;" horiz-adv-x="580" 
d="M528 50v-50h-474v50l403 600h-405v50h468v-49l-397 -601h405zM149 886h50l92 -94l91 94h49l-114 -132h-53z" />
    <glyph glyph-name="zcaron" unicode="&#x17e;" horiz-adv-x="500" 
d="M470 48v-48h-440v38l359 465h-333v47h406v-36l-357 -466h365zM109 776h50l92 -94l91 94h49l-114 -132h-53z" />
    <glyph glyph-name="uni018F" unicode="&#x18f;" horiz-adv-x="692" 
d="M552.5 615q81.5 -95 81.5 -267q0 -175 -78.5 -266.5t-227.5 -91.5q-140 0 -213 83t-73 242v48h533q-4 143 -68 218.5t-182 75.5q-53 0 -99.5 -15.5t-81.5 -45.5q-14 -13 -29 -13q-19 0 -40 30q39 44 107.5 70.5t141.5 26.5q147 0 228.5 -95zM574 311h-475q0 -132 59 -201
t171 -69q230 0 245 270z" />
    <glyph glyph-name="florin" unicode="&#x192;" horiz-adv-x="552" 
d="M392.5 708.5q-23.5 -24.5 -40 -82t-31.5 -162.5h164v-43h-170l-61 -434q-13 -90 -55 -136.5t-128 -46.5q-27 0 -51 8l15 46q18 -6 42 -6q52 0 82.5 35.5t41.5 112.5l59 421h-152v43h158q17 118 39 186t56.5 99t87.5 31q35 0 67 -7l-10 -44q-24 4 -53 4q-37 0 -60.5 -24.5
z" />
    <glyph glyph-name="Ohorn" unicode="&#x1a0;" horiz-adv-x="680" 
d="M632 354q0 -176 -75 -270t-217 -94t-217 94t-75 270q0 173 75 264.5t217 91.5q100 0 166 -45q25 6 40.5 24t15.5 44q0 41 -38 58q2 12 11.5 19.5t21.5 7.5q25 0 41.5 -21t16.5 -54q0 -39 -19 -66.5t-53 -42.5q89 -92 89 -280zM514.5 120.5q58.5 78.5 58.5 233.5
q0 304 -233 304t-233 -304q0 -155 59 -233.5t174 -78.5q116 0 174.5 78.5z" />
    <glyph glyph-name="ohorn" unicode="&#x1a1;" horiz-adv-x="548" 
d="M530.5 505q-22.5 -29 -63.5 -41q41 -70 41 -188q0 -142 -59 -214t-175 -72t-175 72t-59 214q0 284 234 284q109 0 167 -61q26 6 42.5 24t16.5 45q0 41 -38 58q2 12 11.5 19.5t21.5 7.5q25 0 41.5 -21t16.5 -54q0 -44 -22.5 -73zM408.5 95.5q43.5 58.5 43.5 180.5
t-43.5 180t-134.5 58t-134.5 -58t-43.5 -180t43.5 -180.5t134.5 -58.5t134.5 58.5z" />
    <glyph glyph-name="Uhorn" unicode="&#x1af;" horiz-adv-x="708" 
d="M152.5 54.5q-66.5 64.5 -66.5 196.5v449h57v-454q0 -105 52 -155.5t161 -50.5q110 0 161 50t51 156v454h57v-449q0 -134 -65 -197.5t-204 -63.5q-137 0 -203.5 64.5zM625 695q32 1 55.5 20t23.5 52q0 41 -37 58q2 12 11 19.5t22 7.5q25 0 41.5 -21t16.5 -54
q0 -55 -35.5 -86.5t-97.5 -35.5v40z" />
    <glyph glyph-name="uhorn" unicode="&#x1b0;" horiz-adv-x="609" 
d="M607 543.5q-33 -31.5 -90 -37.5v-393q0 -58 15 -106q-16 -12 -35 -12q-18 0 -25.5 19.5t-9.5 67.5q-30 -42 -83 -67t-112 -25q-88 0 -132.5 48t-44.5 142v370h55v-368q0 -72 33.5 -109.5t97.5 -37.5q54 0 103.5 29.5t82.5 80.5v405h55v-4q29 3 49.5 22t20.5 49
q0 41 -38 58q2 12 11.5 19.5t21.5 7.5q25 0 41.5 -21t16.5 -54q0 -52 -33 -83.5z" />
    <glyph glyph-name="uni01CD" unicode="&#x1cd;" horiz-adv-x="620" 
d="M497 203h-373q-30 -102 -50 -203h-59q45 207 109.5 375t158.5 325h55q94 -156 158 -324t109 -376h-59q-22 112 -49 203zM482 253q-69 217 -172 387q-101 -166 -171 -387h343zM169 886h50l92 -94l91 94h49l-114 -132h-53z" />
    <glyph glyph-name="uni01CE" unicode="&#x1ce;" horiz-adv-x="558" 
d="M483.5 60.5q7.5 -25.5 26.5 -43.5q-5 -9 -16 -15.5t-21 -6.5q-21 0 -34.5 26.5t-16.5 70.5q-34 -47 -90 -74.5t-119 -27.5q-72 0 -117.5 40.5t-45.5 104.5q0 93 94 145.5t277 60.5v32q0 141 -143 141q-50 0 -92.5 -19t-83.5 -61q-5 -5 -14 -5t-19 7t-18 20q43 50 103 77
t127 27q92 0 143.5 -49.5t51.5 -137.5v-241q0 -46 7.5 -71.5zM329 68.5q53 32.5 92 91.5v135q-159 -7 -237 -46t-78 -113q0 -47 30 -73.5t82 -26.5q58 0 111 32.5zM136 776h50l92 -94l91 94h49l-114 -132h-53z" />
    <glyph glyph-name="uni01CF" unicode="&#x1cf;" horiz-adv-x="350" 
d="M147 700h57v-700h-57v700zM34 886h50l92 -94l91 94h49l-114 -132h-53z" />
    <glyph glyph-name="uni01D0" unicode="&#x1d0;" horiz-adv-x="289" 
d="M117 550h55v-550h-55v550zM4 776h50l92 -94l91 94h49l-114 -132h-53z" />
    <glyph glyph-name="uni01D1" unicode="&#x1d1;" horiz-adv-x="680" 
d="M123 84q-75 94 -75 270q0 173 75 264.5t217 91.5t217 -91.5t75 -264.5q0 -176 -75 -270t-217 -94t-217 94zM514.5 120.5q58.5 78.5 58.5 233.5q0 304 -233 304t-233 -304q0 -155 59 -233.5t174 -78.5q116 0 174.5 78.5zM199 886h50l92 -94l91 94h49l-114 -132h-53z" />
    <glyph glyph-name="uni01D2" unicode="&#x1d2;" horiz-adv-x="548" 
d="M99 62q-59 72 -59 214q0 284 234 284t234 -284q0 -142 -59 -214t-175 -72t-175 72zM408.5 95.5q43.5 58.5 43.5 180.5t-43.5 180t-134.5 58t-134.5 -58t-43.5 -180t43.5 -180.5t134.5 -58.5t134.5 58.5zM133 776h50l92 -94l91 94h49l-114 -132h-53z" />
    <glyph glyph-name="uni01D3" unicode="&#x1d3;" horiz-adv-x="708" 
d="M152.5 54.5q-66.5 64.5 -66.5 196.5v449h57v-454q0 -105 52 -155.5t161 -50.5q110 0 161 50t51 156v454h57v-449q0 -134 -65 -197.5t-204 -63.5q-137 0 -203.5 64.5zM213 886h50l92 -94l91 94h49l-114 -132h-53z" />
    <glyph glyph-name="uni01D4" unicode="&#x1d4;" horiz-adv-x="609" 
d="M532 7q-16 -12 -35 -12q-18 0 -25.5 19.5t-9.5 67.5q-30 -42 -83 -67t-112 -25q-88 0 -132.5 48t-44.5 142v370h55v-368q0 -72 33.5 -109.5t97.5 -37.5q54 0 103.5 29.5t82.5 80.5v405h55v-437q0 -58 15 -106zM164 776h50l92 -94l91 94h49l-114 -132h-53z" />
    <glyph glyph-name="uni01D5" unicode="&#x1d5;" horiz-adv-x="708" 
d="M152.5 54.5q-66.5 64.5 -66.5 196.5v449h57v-454q0 -105 52 -155.5t161 -50.5q110 0 161 50t51 156v454h57v-449q0 -134 -65 -197.5t-204 -63.5q-137 0 -203.5 64.5zM230 773q-10 10 -10 28v8q0 18 10 27.5t28 9.5h7q37 0 37 -37v-8q0 -18 -9.5 -28t-27.5 -10h-7
q-18 0 -28 10zM418 773q-10 10 -10 28v8q0 18 10 27.5t28 9.5h7q37 0 37 -37v-8q0 -18 -9.5 -28t-27.5 -10h-7q-18 0 -28 10zM191 948h326v-49h-326v49z" />
    <glyph glyph-name="uni01D6" unicode="&#x1d6;" horiz-adv-x="609" 
d="M532 7q-16 -12 -35 -12q-18 0 -25.5 19.5t-9.5 67.5q-30 -42 -83 -67t-112 -25q-88 0 -132.5 48t-44.5 142v370h55v-368q0 -72 33.5 -109.5t97.5 -37.5q54 0 103.5 29.5t82.5 80.5v405h55v-437q0 -58 15 -106zM181 663q-10 10 -10 28v8q0 18 10 27.5t28 9.5h7
q37 0 37 -37v-8q0 -18 -9.5 -28t-27.5 -10h-7q-18 0 -28 10zM369 663q-10 10 -10 28v8q0 18 10 27.5t28 9.5h7q37 0 37 -37v-8q0 -18 -9.5 -28t-27.5 -10h-7q-18 0 -28 10zM142 838h326v-49h-326v49z" />
    <glyph glyph-name="uni01D7" unicode="&#x1d7;" horiz-adv-x="708" 
d="M152.5 54.5q-66.5 64.5 -66.5 196.5v449h57v-454q0 -105 52 -155.5t161 -50.5q110 0 161 50t51 156v454h57v-449q0 -134 -65 -197.5t-204 -63.5q-137 0 -203.5 64.5zM231 768q-10 10 -10 28v8q0 18 10 27.5t28 9.5h7q37 0 37 -37v-8q0 -18 -9.5 -28t-27.5 -10h-7
q-18 0 -28 10zM419 768q-10 10 -10 28v8q0 18 10 27.5t28 9.5h7q37 0 37 -37v-8q0 -18 -9.5 -28t-27.5 -10h-7q-18 0 -28 10zM412 1023h65l-117 -151h-55z" />
    <glyph glyph-name="uni01D8" unicode="&#x1d8;" horiz-adv-x="609" 
d="M532 7q-16 -12 -35 -12q-18 0 -25.5 19.5t-9.5 67.5q-30 -42 -83 -67t-112 -25q-88 0 -132.5 48t-44.5 142v370h55v-368q0 -72 33.5 -109.5t97.5 -37.5q54 0 103.5 29.5t82.5 80.5v405h55v-437q0 -58 15 -106zM181 663q-10 10 -10 28v8q0 18 10 27.5t28 9.5h7
q37 0 37 -37v-8q0 -18 -9.5 -28t-27.5 -10h-7q-18 0 -28 10zM369 663q-10 10 -10 28v8q0 18 10 27.5t28 9.5h7q37 0 37 -37v-8q0 -18 -9.5 -28t-27.5 -10h-7q-18 0 -28 10zM362 918h65l-117 -151h-55z" />
    <glyph glyph-name="uni01D9" unicode="&#x1d9;" horiz-adv-x="708" 
d="M152.5 54.5q-66.5 64.5 -66.5 196.5v449h57v-454q0 -105 52 -155.5t161 -50.5q110 0 161 50t51 156v454h57v-449q0 -134 -65 -197.5t-204 -63.5q-137 0 -203.5 64.5zM229 768q-10 10 -10 28v8q0 18 10 27.5t28 9.5h7q37 0 37 -37v-8q0 -18 -9.5 -28t-27.5 -10h-7
q-18 0 -28 10zM417 768q-10 10 -10 28v8q0 18 10 27.5t28 9.5h7q37 0 37 -37v-8q0 -18 -9.5 -28t-27.5 -10h-7q-18 0 -28 10zM212 1016h50l92 -94l91 94h49l-114 -132h-53z" />
    <glyph glyph-name="uni01DA" unicode="&#x1da;" horiz-adv-x="609" 
d="M532 7q-16 -12 -35 -12q-18 0 -25.5 19.5t-9.5 67.5q-30 -42 -83 -67t-112 -25q-88 0 -132.5 48t-44.5 142v370h55v-368q0 -72 33.5 -109.5t97.5 -37.5q54 0 103.5 29.5t82.5 80.5v405h55v-437q0 -58 15 -106zM179 663q-10 10 -10 28v8q0 18 10 27.5t28 9.5h7
q37 0 37 -37v-8q0 -18 -9.5 -28t-27.5 -10h-7q-18 0 -28 10zM367 663q-10 10 -10 28v8q0 18 10 27.5t28 9.5h7q37 0 37 -37v-8q0 -18 -9.5 -28t-27.5 -10h-7q-18 0 -28 10zM162 911h50l92 -94l91 94h49l-114 -132h-53z" />
    <glyph glyph-name="uni01DB" unicode="&#x1db;" horiz-adv-x="708" 
d="M152.5 54.5q-66.5 64.5 -66.5 196.5v449h57v-454q0 -105 52 -155.5t161 -50.5q110 0 161 50t51 156v454h57v-449q0 -134 -65 -197.5t-204 -63.5q-137 0 -203.5 64.5zM231 768q-10 10 -10 28v8q0 18 10 27.5t28 9.5h7q37 0 37 -37v-8q0 -18 -9.5 -28t-27.5 -10h-7
q-18 0 -28 10zM419 768q-10 10 -10 28v8q0 18 10 27.5t28 9.5h7q37 0 37 -37v-8q0 -18 -9.5 -28t-27.5 -10h-7q-18 0 -28 10zM250 1023h64l102 -151h-56z" />
    <glyph glyph-name="uni01DC" unicode="&#x1dc;" horiz-adv-x="609" 
d="M532 7q-16 -12 -35 -12q-18 0 -25.5 19.5t-9.5 67.5q-30 -42 -83 -67t-112 -25q-88 0 -132.5 48t-44.5 142v370h55v-368q0 -72 33.5 -109.5t97.5 -37.5q54 0 103.5 29.5t82.5 80.5v405h55v-437q0 -58 15 -106zM181 663q-10 10 -10 28v8q0 18 10 27.5t28 9.5h7
q37 0 37 -37v-8q0 -18 -9.5 -28t-27.5 -10h-7q-18 0 -28 10zM369 663q-10 10 -10 28v8q0 18 10 27.5t28 9.5h7q37 0 37 -37v-8q0 -18 -9.5 -28t-27.5 -10h-7q-18 0 -28 10zM200 918h64l102 -151h-56z" />
    <glyph glyph-name="Gcaron" unicode="&#x1e6;" horiz-adv-x="666" 
d="M604 368v-295q-37 -38 -98.5 -60.5t-128.5 -22.5q-151 0 -233 93.5t-82 266.5q0 171 83 265.5t232 94.5q72 0 131.5 -23t92.5 -64q-6 -13 -15 -21t-19 -8q-14 0 -28 11q-35 28 -74.5 41t-88.5 13q-124 0 -189.5 -79.5t-65.5 -229.5q0 -151 65 -229.5t190 -78.5
q55 0 100.5 15t70.5 42v218h-159q-19 0 -26.5 11.5t-7.5 39.5h250zM236 886h50l92 -94l91 94h49l-114 -132h-53z" />
    <glyph glyph-name="gcaron" unicode="&#x1e7;" horiz-adv-x="585" 
d="M556 571.5q8 -7.5 8 -26.5q0 -10 -1 -15q-78 0 -111 -27q48 -48 48 -127q0 -192 -221 -192q-75 0 -107.5 -10t-32.5 -34q0 -28 36 -38.5t129 -10.5q118 0 180 -35t62 -102q0 -79 -63.5 -117.5t-193.5 -38.5q-115 0 -177 36.5t-62 105.5q0 44 27 74.5t78 44.5v3
q-30 7 -47.5 27t-17.5 48t20.5 47t57.5 25q-45 24 -70.5 64t-25.5 91q0 196 226 196q71 0 121 -31q26 23 55.5 36.5t55.5 13.5q18 0 26 -7.5zM405 264.5q38 33.5 38 107.5q0 73 -38.5 108t-119.5 35q-157 0 -157 -143q0 -68 40.5 -104.5t116.5 -36.5q82 0 120 33.5z
M443.5 20q-45.5 22 -150.5 22q-96 0 -141 -22.5t-45 -71.5q0 -53 44.5 -78t137.5 -25q104 0 152 24.5t48 78.5q0 50 -45.5 72zM152 776h50l92 -94l91 94h49l-114 -132h-53z" />
    <glyph glyph-name="Aringacute" unicode="&#x1fa;" horiz-adv-x="620" 
d="M497 203h-373q-30 -102 -50 -203h-59q45 207 109.5 375t158.5 325h55q94 -156 158 -324t109 -376h-59q-22 112 -49 203zM482 253q-69 217 -172 387q-101 -166 -171 -387h343zM232 769q-32 31 -32 78t32 78.5t78 31.5t78 -31.5t32 -78.5t-32 -78t-78 -31t-78 31z
M359 798.5q20 19.5 20 48.5q0 31 -19.5 50t-49.5 19t-49.5 -19t-19.5 -50q0 -29 20 -48.5t49 -19.5t49 19.5zM367 1190h65l-117 -151h-55z" />
    <glyph glyph-name="aringacute" unicode="&#x1fb;" horiz-adv-x="558" 
d="M483.5 60.5q7.5 -25.5 26.5 -43.5q-5 -9 -16 -15.5t-21 -6.5q-21 0 -34.5 26.5t-16.5 70.5q-34 -47 -90 -74.5t-119 -27.5q-72 0 -117.5 40.5t-45.5 104.5q0 93 94 145.5t277 60.5v32q0 141 -143 141q-50 0 -92.5 -19t-83.5 -61q-5 -5 -14 -5t-19 7t-18 20q43 50 103 77
t127 27q92 0 143.5 -49.5t51.5 -137.5v-241q0 -46 7.5 -71.5zM329 68.5q53 32.5 92 91.5v135q-159 -7 -237 -46t-78 -113q0 -47 30 -73.5t82 -26.5q58 0 111 32.5zM199 659q-32 31 -32 78t32 78.5t78 31.5t78 -31.5t32 -78.5t-32 -78t-78 -31t-78 31zM326 688.5
q20 19.5 20 48.5q0 31 -19.5 50t-49.5 19t-49.5 -19t-19.5 -50q0 -29 20 -48.5t49 -19.5t49 19.5zM334 1080h65l-117 -151h-55z" />
    <glyph glyph-name="AEacute" unicode="&#x1fc;" horiz-adv-x="930" 
d="M520 650v-257h312v-50h-312v-294h350q0 -28 -9 -38.5t-33 -10.5h-358v206h-330q-46 -102 -66 -206h-59q38 186 149 372t276 328h435v-50h-355zM470 256v394h-9q-85 -72 -163.5 -175.5t-134.5 -218.5h307zM582 933h65l-117 -151h-55z" />
    <glyph glyph-name="aeacute" unicode="&#x1fd;" horiz-adv-x="932" 
d="M889 278h-411q0 -119 49.5 -180.5t134.5 -61.5q66 0 104 23.5t60 71.5q6 13 18 13q14 0 37 -16q-23 -66 -77.5 -103t-141.5 -37q-71 0 -125 32t-83 95q-40 -61 -101 -94t-135 -33q-72 0 -120 38.5t-48 105.5q0 193 373 195v46q0 141 -150 141q-54 0 -92.5 -20.5
t-78.5 -61.5q-7 -8 -15 -8q-15 0 -36 27q42 50 98.5 79.5t126.5 29.5q67 0 117 -28t70 -83q32 55 85 83t118 28q108 0 166 -60.5t60 -181.5q0 -22 -3 -40zM837 322q-2 94 -46.5 144t-127.5 50q-75 0 -124.5 -49.5t-58.5 -144.5h357zM350 74q58 40 83 102q-10 50 -10 100v5
q-172 -6 -245 -41.5t-73 -106.5q0 -46 31.5 -72.5t86.5 -26.5q69 0 127 40zM506 783h65l-117 -151h-55z" />
    <glyph glyph-name="Oslashacute" unicode="&#x1fe;" horiz-adv-x="680" 
d="M632 354q0 -176 -75 -270t-217 -94q-111 0 -180 57l-32 -47h-60l56 82q-76 94 -76 272q0 173 75 264.5t217 91.5q106 0 176 -52l30 43h60l-53 -78q79 -91 79 -269zM158 132l328 481q-55 45 -146 45q-233 0 -233 -304q0 -144 51 -222zM514.5 120.5q58.5 78.5 58.5 233.5
q0 145 -53 221l-329 -482q57 -51 149 -51q116 0 174.5 78.5zM397 893h65l-117 -151h-55z" />
    <glyph glyph-name="oslashacute" unicode="&#x1ff;" horiz-adv-x="548" 
d="M456 481q52 -71 52 -205q0 -142 -59 -214t-175 -72q-95 0 -152 48l-28 -38h-54l53 70q-53 71 -53 206q0 284 234 284q94 0 152 -47l28 37h54zM127 115l268 357q-43 42 -121 42q-91 0 -134.5 -58t-43.5 -180q0 -103 31 -161zM422 435l-268 -356q44 -42 120 -42
q91 0 134.5 58.5t43.5 180.5q0 102 -30 159zM331 783h65l-117 -151h-55z" />
    <glyph glyph-name="uni0218" unicode="&#x218;" horiz-adv-x="642" 
d="M197 11.5q-59 21.5 -93.5 58.5t-34.5 80q0 16 10.5 25.5t29.5 10.5q14 -68 71.5 -107t146.5 -39q90 0 144.5 40t54.5 105q0 41 -19.5 69t-64 48.5t-122.5 37.5q-124 29 -177.5 73t-53.5 116q0 84 62 132.5t170 48.5q94 0 159 -43.5t87 -121.5q-9 -11 -30 -11
q-12 0 -20.5 6t-15.5 21q-24 49 -70 75t-110 26q-86 0 -130 -33.5t-44 -99.5q0 -34 17 -58t56.5 -42.5t108.5 -36.5q101 -26 155.5 -52t77.5 -60.5t23 -88.5q0 -93 -69.5 -147t-190.5 -54q-69 0 -128 21.5zM360 -92.5q10 -10.5 10 -29.5v-9q0 -31 -10 -64t-27 -59
q-14 -22 -23 -30t-19 -8q-13 0 -23 10q26 30 40.5 57t18.5 59h-4q-16 0 -25.5 10t-9.5 27v10q0 16 9.5 26.5t25.5 10.5h10q17 0 27 -10.5z" />
    <glyph glyph-name="uni0219" unicode="&#x219;" horiz-adv-x="485" 
d="M145 5.5q-47 15.5 -76 40.5t-29 52q0 12 7.5 21t18.5 11q30 -47 71.5 -70.5t109.5 -23.5q67 0 105 30t38 83q0 34 -20.5 55t-51 32.5t-82.5 24.5q-59 15 -95.5 29t-62 43.5t-25.5 77.5q0 50 27 83.5t69 49.5t89 16q64 0 112.5 -26.5t79.5 -76.5q-11 -11 -18.5 -15.5
t-15.5 -4.5q-12 0 -23 14q-26 32 -57.5 48t-78.5 16q-57 0 -93 -25t-36 -76q0 -32 20 -52.5t49.5 -31.5t79.5 -23q61 -16 98.5 -31t63.5 -45.5t26 -81.5q0 -73 -54.5 -116t-147.5 -43q-51 0 -98 15.5zM282 -92.5q10 -10.5 10 -29.5v-9q0 -31 -10 -64t-27 -59
q-14 -22 -23 -30t-19 -8q-13 0 -23 10q26 30 40.5 57t18.5 59h-4q-16 0 -25.5 10t-9.5 27v10q0 16 9.5 26.5t25.5 10.5h10q17 0 27 -10.5z" />
    <glyph glyph-name="uni021A" unicode="&#x21a;" horiz-adv-x="534" 
d="M523 679q0 -29 -31 -29h-194v-650h-57v650h-226v50h504q4 -14 4 -21zM308 -92.5q10 -10.5 10 -29.5v-9q0 -31 -10 -64t-27 -59q-14 -22 -23 -30t-19 -8q-13 0 -23 10q26 30 40.5 57t18.5 59h-4q-16 0 -25.5 10t-9.5 27v10q0 16 9.5 26.5t25.5 10.5h10q17 0 27 -10.5z" />
    <glyph glyph-name="uni021B" unicode="&#x21b;" horiz-adv-x="374" 
d="M356 31q0 -17 -14 -25q-31 -16 -88 -16q-62 0 -100 37.5t-38 98.5v379h-104v45h104v150h55v-150h157v-45h-157v-368q0 -49 22 -74t63 -25q46 0 86 19q14 -8 14 -26zM288 -92.5q10 -10.5 10 -29.5v-9q0 -31 -10 -64t-27 -59q-14 -22 -23 -30t-19 -8q-13 0 -23 10
q26 30 40.5 57t18.5 59h-4q-16 0 -25.5 10t-9.5 27v10q0 16 9.5 26.5t25.5 10.5h10q17 0 27 -10.5z" />
    <glyph glyph-name="uni0237" unicode="&#x237;" horiz-adv-x="270" 
d="M-13 -186q-23 6 -34 15q-7 7 -7 18q0 9 3.5 16t8.5 8q28 -15 77 -15q34 0 53 20.5t19 60.5v613h55v-608q0 -65 -35 -99.5t-94 -34.5q-23 0 -46 6z" />
    <glyph glyph-name="uni0251" unicode="&#x251;" horiz-adv-x="598" 
d="M521 8q-19 -12 -34 -12q-27 0 -32 69q-62 -75 -177 -75q-64 0 -116.5 29.5t-84.5 93t-32 159.5q0 134 66 211t181 77q49 0 91.5 -15.5t70.5 -37.5v43h53v-422q0 -80 14 -120zM454 122v331q-30 28 -72.5 45.5t-89.5 17.5q-87 0 -139.5 -64.5t-52.5 -179.5t50 -175.5
t133 -60.5q107 0 171 86z" />
    <glyph glyph-name="uni0259" unicode="&#x259;" horiz-adv-x="560" 
d="M397.5 525.5q54.5 -34.5 83.5 -99t29 -152.5q0 -134 -64.5 -209t-179.5 -75q-106 0 -166 67t-60 186q0 3 2 39h412q-2 107 -51 168.5t-133 61.5q-56 0 -94.5 -21.5t-66.5 -67.5q-11 -17 -24 -17q-12 0 -34 14q26 67 83 103.5t136 36.5q73 0 127.5 -34.5zM397 89.5
q48 51.5 56 146.5h-357q0 -97 44 -147.5t129 -50.5q80 0 128 51.5z" />
    <glyph glyph-name="uni02BB" unicode="&#x2bb;" horiz-adv-x="241" 
d="M81.5 574q-14.5 18 -14.5 49q0 63 47 123q26 31 44 31q7 0 13.5 -4.5t8.5 -10.5q-25 -19 -41.5 -46.5t-16.5 -60.5q0 -24 8 -39.5t25 -25.5q-1 -14 -10.5 -24t-25.5 -10q-23 0 -37.5 18z" />
    <glyph glyph-name="uni02BC" unicode="&#x2bc;" horiz-adv-x="241" 
d="M72.5 493.5q-6.5 4.5 -9.5 10.5q58 46 58 108q0 44 -32 65q0 14 9.5 23.5t25.5 9.5q23 0 37.5 -18t14.5 -49q0 -32 -12.5 -63.5t-34.5 -58.5q-24 -32 -43 -32q-7 0 -13.5 4.5z" />
    <glyph glyph-name="uni02BE" unicode="&#x2be;" 
d="M-55 669q29 0 49.5 20t20.5 48q0 31 -20 50t-50 19v41q46 0 78 -31.5t32 -78.5t-32 -78t-78 -31v41z" />
    <glyph glyph-name="uni02BF" unicode="&#x2bf;" 
d="M-23 659q-32 31 -32 78t32 78.5t78 31.5v-41q-30 0 -50 -19t-20 -50q0 -28 20.5 -48t49.5 -20v-41q-46 0 -78 31z" />
    <glyph glyph-name="circumflex" unicode="&#x2c6;" horiz-adv-x="243" 
d="M95 765h53l116 -133h-54l-88 93l-90 -93h-54z" />
    <glyph glyph-name="caron" unicode="&#x2c7;" horiz-adv-x="243" 
d="M-20 776h50l92 -94l91 94h49l-114 -132h-53z" />
    <glyph glyph-name="uni02C8" unicode="&#x2c8;" 
d="M-28 724h56v-147h-56v147z" />
    <glyph glyph-name="uni02C9" unicode="&#x2c9;" horiz-adv-x="440" 
d="M57 703h326v-49h-326v49z" />
    <glyph glyph-name="uni02CA" unicode="&#x2ca;" 
d="M22 783h65l-117 -151h-56z" />
    <glyph glyph-name="uni02CB" unicode="&#x2cb;" 
d="M-83 783h64l102 -151h-56z" />
    <glyph glyph-name="uni02CC" unicode="&#x2cc;" 
d="M-28 -40h56v-147h-56v147z" />
    <glyph glyph-name="breve" unicode="&#x2d8;" horiz-adv-x="243" 
d="M37.5 646.5q-34.5 15.5 -51 40t-16.5 50.5q0 15 10.5 23.5t28.5 8.5q5 -46 33 -72t79 -26t79 28t34 75q18 0 28.5 -9t10.5 -27q0 -44 -41 -75.5t-111 -31.5q-49 0 -83.5 15.5z" />
    <glyph glyph-name="dotaccent" unicode="&#x2d9;" horiz-adv-x="248" 
d="M93 669q-10 10 -10 28v8q0 18 10 27.5t28 9.5h7q37 0 37 -37v-8q0 -18 -9.5 -28t-27.5 -10h-7q-18 0 -28 10z" />
    <glyph glyph-name="ring" unicode="&#x2da;" horiz-adv-x="244" 
d="M44 659q-32 31 -32 78t32 78.5t78 31.5t78 -31.5t32 -78.5t-32 -78t-78 -31t-78 31zM171 688.5q20 19.5 20 48.5q0 31 -19.5 50t-49.5 19t-49.5 -19t-19.5 -50q0 -29 20 -48.5t49 -19.5t49 19.5z" />
    <glyph glyph-name="ogonek" unicode="&#x2db;" horiz-adv-x="243" 
d="M50.5 -181.5q-27.5 24.5 -27.5 63.5q0 42 23 71t65 51h41q-78 -49 -78 -117q0 -26 15.5 -40t42.5 -14q33 0 53 11q6 -9 6 -19q0 -13 -18 -22t-51 -9q-44 0 -71.5 24.5z" />
    <glyph glyph-name="tilde" unicode="&#x2dc;" horiz-adv-x="244" 
d="M-20 643.5q-8 5.5 -8 18.5q0 35 25 55.5t62 20.5q22 0 38.5 -8t35.5 -22q19 -12 30.5 -18t25.5 -6q22 0 33.5 14t14.5 43q17 0 26 -8t9 -22q0 -29 -22 -50t-58 -21q-24 0 -40.5 7.5t-39.5 22.5q-17 12 -29.5 18t-27.5 6q-23 0 -35.5 -13t-16.5 -43q-15 0 -23 5.5z" />
    <glyph glyph-name="hungarumlaut" unicode="&#x2dd;" horiz-adv-x="243" 
d="M94 763h65l-104 -151h-49zM245 763h65l-121 -151h-50z" />
    <glyph glyph-name="gravecomb" unicode="&#x300;" 
d="M-105 783h64l102 -151h-56z" />
    <glyph glyph-name="acutecomb" unicode="&#x301;" 
d="M-121 783h65l-117 -151h-55z" />
    <glyph glyph-name="uni0302" unicode="&#x302;" 
d="M-27 765h53l116 -133h-54l-88 93l-90 -93h-54z" />
    <glyph glyph-name="tildecomb" unicode="&#x303;" 
d="M-141 643.5q-8 5.5 -8 18.5q0 35 25 55.5t62 20.5q22 0 38.5 -8t35.5 -22q19 -12 30.5 -18t25.5 -6q22 0 33.5 14t14.5 43q17 0 26 -8t9 -22q0 -29 -22 -50t-58 -21q-24 0 -40.5 7.5t-39.5 22.5q-17 12 -29.5 18t-27.5 6q-23 0 -35.5 -13t-16.5 -43q-15 0 -23 5.5z" />
    <glyph glyph-name="uni0304" unicode="&#x304;" 
d="M-163 703h326v-49h-326v49z" />
    <glyph glyph-name="uni0306" unicode="&#x306;" 
d="M-83.5 646.5q-34.5 15.5 -51 40t-16.5 50.5q0 15 10.5 23.5t28.5 8.5q5 -46 33 -72t79 -26t79 28t34 75q18 0 28.5 -9t10.5 -27q0 -44 -41 -75.5t-111 -31.5q-49 0 -83.5 15.5z" />
    <glyph glyph-name="uni0307" unicode="&#x307;" 
d="M-31 669q-10 10 -10 28v8q0 18 10 27.5t28 9.5h7q37 0 37 -37v-8q0 -18 -9.5 -28t-27.5 -10h-7q-18 0 -28 10z" />
    <glyph glyph-name="uni0308" unicode="&#x308;" 
d="M-125 663q-10 10 -10 28v8q0 18 10 27.5t28 9.5h7q37 0 37 -37v-8q0 -18 -9.5 -28t-27.5 -10h-7q-18 0 -28 10zM63 663q-10 10 -10 28v8q0 18 10 27.5t28 9.5h7q37 0 37 -37v-8q0 -18 -9.5 -28t-27.5 -10h-7q-18 0 -28 10z" />
    <glyph glyph-name="hookabovecomb" unicode="&#x309;" 
d="M-178.5 620.5q-9.5 6.5 -10.5 16.5q37 21 55 45t18 56q0 24 -14.5 37.5t-38.5 13.5q-45 0 -60 -51q-13 0 -21.5 7t-8.5 19q0 27 25.5 47.5t65.5 20.5q45 0 72.5 -25t27.5 -69q0 -78 -88 -124q-13 0 -22.5 6.5z" />
    <glyph glyph-name="uni030A" unicode="&#x30a;" 
d="M-78 659q-32 31 -32 78t32 78.5t78 31.5t78 -31.5t32 -78.5t-32 -78t-78 -31t-78 31zM49 688.5q20 19.5 20 48.5q0 31 -19.5 50t-49.5 19t-49.5 -19t-19.5 -50q0 -29 20 -48.5t49 -19.5t49 19.5z" />
    <glyph glyph-name="uni030B" unicode="&#x30b;" 
d="M-18 763h65l-104 -151h-49zM133 763h65l-121 -151h-50z" />
    <glyph glyph-name="uni030C" unicode="&#x30c;" 
d="M-143 776h50l92 -94l91 94h49l-114 -132h-53z" />
    <glyph glyph-name="uni031B" unicode="&#x31b;" 
d="M-80 357q32 1 55.5 20t23.5 52q0 41 -37 58q2 12 11 19.5t22 7.5q25 0 41.5 -21t16.5 -54q0 -55 -35.5 -86.5t-97.5 -35.5v40z" />
    <glyph glyph-name="dotbelowcomb" unicode="&#x323;" 
d="M-143 -152q-10 10 -10 28v7q0 19 10 28.5t28 9.5h6q38 0 38 -38v-7q0 -18 -9.5 -28t-28.5 -10h-6q-18 0 -28 10z" />
    <glyph glyph-name="uni0324" unicode="&#x324;" 
d="M-135 -126v8q0 18 9.5 28t27.5 10h7q18 0 28 -10t10 -28v-8q0 -18 -10 -27.5t-28 -9.5h-7q-37 0 -37 37zM63 -153.5q-10 9.5 -10 27.5v8q0 18 10 28t28 10h7q18 0 27.5 -10t9.5 -28v-8q0 -37 -37 -37h-7q-18 0 -28 9.5z" />
    <glyph glyph-name="uni0326" unicode="&#x326;" 
d="M-203 -92.5q10 -10.5 10 -29.5v-9q0 -31 -10 -64t-27 -59q-14 -22 -23 -30t-19 -8q-13 0 -23 10q26 30 40.5 57t18.5 59h-4q-16 0 -25.5 10t-9.5 27v10q0 16 9.5 26.5t25.5 10.5h10q17 0 27 -10.5z" />
    <glyph glyph-name="uni0327" unicode="&#x327;" 
d="M62.5 -77.5q25.5 -20.5 25.5 -58.5q0 -44 -35 -68.5t-86 -24.5q-45 0 -70 10t-25 30q0 8 2 13q44 -13 88 -13q75 0 75 52q0 19 -14.5 30.5t-40.5 11.5q-17 0 -40 -6l-19 26l56 75h50l-46 -58q4 1 13 1q41 0 66.5 -20.5z" />
    <glyph glyph-name="uni0328" unicode="&#x328;" 
d="M-65.5 -181.5q-27.5 24.5 -27.5 63.5q0 42 23 71t65 51h41q-78 -49 -78 -117q0 -26 15.5 -40t42.5 -14q33 0 53 11q6 -9 6 -19q0 -13 -18 -22t-51 -9q-44 0 -71.5 24.5z" />
    <glyph glyph-name="uni032E" unicode="&#x32e;" 
d="M-85.5 -186.5q-34.5 15.5 -51 40t-16.5 50.5q0 15 10.5 23.5t28.5 8.5q5 -46 33 -72t79 -26t79 28t34 75q18 0 28.5 -9t10.5 -27q0 -44 -41 -75.5t-111 -31.5q-49 0 -83.5 15.5z" />
    <glyph glyph-name="uni0331" unicode="&#x331;" 
d="M-163 -81h326v-49h-326v49z" />
    <glyph glyph-name="uni0394" unicode="&#x394;" horiz-adv-x="546" 
d="M546 25v-25h-546v25l248 675h51zM485 48l-212 586l-211 -586h423z" />
    <glyph glyph-name="uni03A9" unicode="&#x3a9;" horiz-adv-x="676" 
d="M50 48h180v99q-52 14 -93 53t-64 94.5t-23 118.5q0 89 36 156.5t101 104t151 36.5t151.5 -36.5t101 -103.5t35.5 -157q0 -64 -23 -120t-64 -94.5t-93 -51.5v-99h180v-48h-230v177q50 11 90.5 45.5t63 84.5t22.5 106q0 114 -63.5 181t-170.5 67q-108 0 -170.5 -66.5
t-62.5 -181.5q0 -56 23 -106t63 -84.5t90 -45.5v-177h-231v48z" />
    <glyph glyph-name="uni03BC" unicode="&#x3bc;" horiz-adv-x="611" 
d="M533 7q-16 -12 -36 -12q-17 0 -25.5 18t-9.5 65q-65 -90 -172 -90q-47 0 -85 14.5t-60 44.5v-267h-55l1 770h54v-370q0 -71 40.5 -109t105.5 -38q54 0 97.5 30t73.5 82v405h56v-437q0 -72 15 -106z" />
    <glyph glyph-name="pi" unicode="&#x3c0;" horiz-adv-x="640" 
d="M449 19q-27 29 -27 80v403h-236v-502h-52v502h-105v48h568v-48h-122v-399q0 -36 16 -51.5t47 -15.5q20 0 41.5 5.5t33.5 12.5v-41q-39 -23 -86 -23q-51 0 -78 29z" />
    <glyph glyph-name="uni0E01" unicode="&#xe01;" horiz-adv-x="605" 
d="M413.5 563q51.5 -23 81.5 -68.5t30 -111.5v-383h-53v383q0 76 -47.5 117.5t-126.5 41.5q-53 0 -96.5 -16t-69 -39.5t-25.5 -43.5t26 -36.5t50 -16.5q13 0 35 8q18 6 25 6t16.5 -13t9.5 -22q0 -8 -7 -8q-68 0 -91.5 -34.5t-23.5 -104.5v-222h-54v222q0 50 11.5 82.5
t35.5 52.5q-30 10 -57.5 33.5t-27.5 49.5q0 34 31.5 68t87 56t124.5 22q64 0 115.5 -23z" />
    <glyph glyph-name="uni0E02" unicode="&#xe02;" horiz-adv-x="565" 
d="M183.5 31q-44.5 40 -44.5 120v107q0 18 13 27q43 30 67.5 51t40.5 48.5t16 62.5q0 46 -26 69.5t-67 23.5t-67.5 -23.5t-26.5 -63.5q0 -28 14.5 -43t37.5 -15t35.5 13t12.5 35q0 21 -12 32.5t-32 11.5q-13 0 -23 -2q1 10 11.5 18t27.5 8q27 0 47.5 -18t20.5 -53
q0 -37 -26 -60.5t-62 -23.5q-37 0 -65 26.5t-28 70.5q0 58 39 92t97 34q60 0 99.5 -33.5t39.5 -95.5q0 -44 -17 -78t-43 -59t-70 -58v-103q0 -60 28.5 -88t88.5 -28q68 0 95 27t27 96v417h53v-415q0 -91 -42.5 -130.5t-133.5 -39.5q-81 0 -125.5 40z" />
    <glyph glyph-name="uni0E03" unicode="&#xe03;" horiz-adv-x="596" 
d="M203.5 31q-48.5 40 -48.5 128v65q0 41 20 70.5t60 68.5q36 34 54 60t18 59q0 28 -12.5 42t-35.5 14q-38 0 -63 -44q-13 24 -27 35t-36 11q-25 0 -40 -14.5t-15 -40.5q0 -28 15 -43.5t40 -15.5q24 0 38.5 13t18.5 34q18 -4 18 -22q0 -26 -22.5 -44.5t-53.5 -18.5
q-41 0 -68 27t-27 69q0 44 27.5 70t63.5 26q46 0 69 -37q22 37 70 37q39 0 64.5 -24.5t25.5 -73.5q0 -43 -20 -74t-59 -71q-35 -34 -52 -59t-17 -58v-61q0 -63 32.5 -92.5t95.5 -29.5q68 0 97 29t29 93v417h53v-417q0 -82 -45 -125t-135 -43q-84 0 -132.5 40z" />
    <glyph glyph-name="uni0E04" unicode="&#xe04;" horiz-adv-x="624" 
d="M484.5 528q59.5 -58 59.5 -167v-361h-53v356q0 96 -45 141t-132 45q-88 0 -138 -46t-50 -140q0 -67 23 -116q26 65 68 104.5t102 39.5q43 0 71.5 -26.5t28.5 -68.5t-26.5 -67.5t-68.5 -25.5q-31 0 -52 16.5t-21 43.5q0 21 16 27q8 -25 21 -37t36 -12q26 0 39.5 14.5
t13.5 40.5t-15.5 40t-44.5 14q-46 0 -83 -45t-58.5 -123.5t-23.5 -174.5h-39q-15 0 -15 20q0 44 19 122q6 30 6 31q0 5 -11 29q-18 35 -29 70t-11 84q0 73 31 124.5t86 78.5t125 27q111 0 170.5 -58z" />
    <glyph glyph-name="uni0E05" unicode="&#xe05;" horiz-adv-x="640" 
d="M526.5 512q33.5 -51 33.5 -141v-371h-53v371q0 78 -21 115.5t-71 51.5q-18 -14 -62 -42l-27 -17q-14 8 -21 13q-53 32 -71 46q-49 -18 -78.5 -62.5t-29.5 -119.5q0 -67 23 -116q25 64 69 104t105 40q43 0 71.5 -26.5t28.5 -68.5t-27 -67.5t-69 -25.5q-31 0 -52 16.5
t-21 43.5q0 9 4.5 16.5t12.5 10.5q7 -25 20.5 -37t36.5 -12q25 0 38.5 14.5t13.5 40.5t-15 40t-44 14q-47 0 -84.5 -45t-60 -123.5t-24.5 -174.5h-39q-15 0 -15 20q0 44 19 122q6 30 6 31q0 5 -11 29q-18 35 -29 70t-11 84q0 90 41 146t121 84l20 -12q7 -5 31.5 -20
t40.5 -29q15 13 55 39q30 19 34 22q78 -23 111.5 -74z" />
    <glyph glyph-name="uni0E06" unicode="&#xe06;" horiz-adv-x="651" 
d="M556 44l2 -29q0 -15 -14 -15h-42q-31 90 -98.5 144.5t-149.5 65.5l1 -52q1 -16 1 -45q0 -55 -22 -88.5t-73 -33.5q-43 0 -70 30.5t-27 90.5q0 63 38.5 102t101.5 44q6 29 20.5 53t38.5 54q26 34 38.5 59t12.5 58q0 55 -47 55q-39 0 -64 -43q-11 23 -26 34.5t-37 11.5
q-25 0 -39.5 -15t-14.5 -40q0 -27 15 -42t39 -15q25 0 39.5 14t17.5 35q19 -1 19 -23q0 -26 -22.5 -45t-54.5 -19q-41 0 -68 26.5t-27 67.5q0 44 27 70t64 26q50 0 69 -37q19 36 71 36q39 0 64.5 -24t25.5 -73q0 -44 -15.5 -75.5t-44.5 -69.5q-20 -25 -31 -43t-16 -39
q76 -9 141 -51t100 -99v471h53v-465q0 -31 4 -67zM194 55q8 20 8 67q0 23 -1 38l-1 52q-87 -6 -87 -97q0 -40 12.5 -60t35.5 -20q25 0 33 20z" />
    <glyph glyph-name="uni0E07" unicode="&#xe07;" horiz-adv-x="520" 
d="M210 5q-36 9 -38 20q-24 120 -55.5 203.5t-76.5 145.5q7 9 17.5 15t20.5 6q9 0 16 -5.5t16 -18.5q66 -107 107 -316q1 -8 20 -13t48 -5q65 0 68 19q20 121 32 227t12 169q0 47 -16 67.5t-47 20.5q-24 0 -38.5 -12.5t-14.5 -34.5q0 -23 13 -36t36 -13q24 0 40 11
q3 -6 3 -11q0 -15 -14 -26t-38 -11q-36 0 -59.5 23t-23.5 63t27 64.5t71 24.5q55 0 84.5 -33t29.5 -94q0 -142 -53 -429q-2 -12 -35 -21t-74 -9q-42 0 -78 9z" />
    <glyph glyph-name="uni0E08" unicode="&#xe08;" horiz-adv-x="588" 
d="M296 -1q-27 8 -28 19q-11 159 -22 226q-6 35 -21 51t-41 16q-25 0 -39 -13t-14 -37q0 -23 14.5 -37.5t37.5 -14.5q17 0 35 7q2 -4 2 -11q-1 -13 -14 -22.5t-34 -9.5q-38 0 -61.5 24t-23.5 64t27 65.5t70 25.5q48 0 75 -26.5t35 -71.5q9 -55 23 -211q0 -4 14 -7.5t32 -3.5
q19 0 33 3.5t15 8.5q6 55 23 160q11 62 16 100.5t5 77.5q0 78 -42 118.5t-124 40.5q-61 0 -106 -21.5t-83 -62.5q-8 -8 -17 -8q-8 0 -18 9.5t-17 21.5q94 106 241 106q102 0 161 -52.5t59 -151.5q0 -38 -5.5 -74t-16.5 -94q-23 -113 -30 -196q-1 -12 -28.5 -19.5t-65.5 -7.5
q-40 0 -67 8z" />
    <glyph glyph-name="uni0E09" unicode="&#xe09;" horiz-adv-x="630" 
d="M570.5 158.5q19.5 -27.5 19.5 -62.5q0 -46 -30.5 -73t-71.5 -27t-70.5 26.5t-29.5 70.5q0 27 9.5 46.5t27.5 38.5h-5q-42 0 -78.5 -26.5t-62.5 -67.5t-39 -84h-30q-9 0 -12.5 3.5t-3.5 11.5v101q0 9 3 78q3 33 3 67q0 29 -14.5 44t-39.5 15q-23 0 -38 -14.5t-15 -36.5
q0 -23 14.5 -37t38.5 -14q22 0 35 10q4 -4 4 -12q0 -13 -13.5 -23.5t-36.5 -10.5q-35 0 -59.5 23.5t-24.5 63.5q0 39 28.5 66t69.5 27q46 0 75 -27t29 -74q0 -20 -2 -66q-3 -36 -3 -75v-1q32 46 78 73t97 27q22 0 43 -3q15 15 22.5 29.5t7.5 33.5v102q0 76 -47.5 118.5
t-133.5 42.5q-66 0 -116 -24.5t-93 -67.5q-5 -5 -11 -5q-9 0 -19.5 9t-18.5 22q46 50 111 80t147 30q107 0 170.5 -53t63.5 -152v-112q0 -37 -33 -68q35 -15 54.5 -42.5zM529.5 54.5q14.5 15.5 14.5 45.5q0 25 -16.5 43.5t-46.5 26.5q-23 -19 -35 -35.5t-12 -38.5
q0 -26 14 -41.5t40 -15.5q27 0 41.5 15.5z" />
    <glyph glyph-name="uni0E0A" unicode="&#xe0a;" horiz-adv-x="615" 
d="M514 339v-178q0 -170 -190 -170q-84 0 -135.5 42t-51.5 118v98q0 18 13 26q56 38 90 79.5t34 96.5q0 42 -24.5 65t-71.5 23q-39 0 -61 -20t-22 -51q0 -24 13 -38t36 -14q24 0 35.5 13.5t11.5 36.5q0 27 -20 43q6 3 16 3q17 0 29 -14t12 -37q0 -35 -23 -59.5t-63 -24.5
q-38 0 -64 25t-26 66q0 47 35.5 79t95.5 32q61 0 99.5 -34t38.5 -91q0 -70 -37 -118t-93 -89v-95q0 -117 134 -117q73 0 104.5 29t31.5 95v180q0 45 -14.5 66.5t-37.5 21.5q-7 0 -19 -2t-18 -2t-12.5 12t-6.5 19t6 8q112 12 138 149q20 0 33 -9t13 -24q0 -32 -27.5 -70.5
t-65.5 -56.5q64 -27 64 -112z" />
    <glyph glyph-name="uni0E0B" unicode="&#xe0b;" horiz-adv-x="615" 
d="M521 343v-184q0 -81 -51 -124.5t-142 -43.5q-84 0 -133.5 40t-49.5 128v65q0 41 20 70.5t60 68.5q36 35 53.5 60.5t17.5 58.5q0 27 -12.5 41.5t-34.5 14.5q-38 0 -63 -45q-13 24 -27 35.5t-36 11.5q-25 0 -39.5 -15t-14.5 -41t15 -41t39 -15t38 13t19 33q18 -3 18 -23
q0 -26 -21.5 -44t-54.5 -18q-41 0 -68 26.5t-27 67.5q0 45 27 71t64 26q45 0 69 -37q23 37 70 37q38 0 64 -24.5t26 -73.5q0 -43 -20 -73.5t-60 -70.5q-36 -37 -52.5 -61t-16.5 -57v-61q0 -66 33 -94.5t98 -28.5q73 0 105.5 29.5t32.5 93.5v184q0 87 -52 87q-7 0 -18.5 -2
t-17.5 -2t-12 11.5t-6 18.5q0 8 6 8q59 7 91.5 43.5t44.5 103.5q21 -1 33.5 -9t12.5 -23q0 -31 -27 -69t-64 -55q63 -24 63 -112z" />
    <glyph glyph-name="uni0E0C" unicode="&#xe0c;" horiz-adv-x="919" 
d="M824 58q2 -31 2 -39q0 -19 -14 -19h-40q-38 91 -99.5 139t-137.5 56l1 -94q-1 -52 -22 -81t-62 -29q-42 0 -68 30t-26 82q0 60 35 93.5t89 40.5v146q0 79 -50 119.5t-134 40.5q-53 0 -96.5 -16t-68.5 -40t-25 -44t26.5 -36.5t50.5 -16.5q11 0 33 6q15 5 26 5
q7 0 15.5 -14t8.5 -24q0 -6 -5 -6q-68 0 -92.5 -33.5t-24.5 -102.5v-107q0 -39 17 -59.5t46 -20.5q26 0 40 14t14 39q0 23 -13.5 36.5t-36.5 13.5q-19 0 -43 -8q-3 6 -3 11q0 14 13.5 24t36.5 10q37 0 62.5 -22.5t25.5 -64.5t-27.5 -68t-71.5 -26q-53 0 -83.5 33t-30.5 87
v108q0 49 11 81.5t35 53.5q-29 11 -56 35t-27 49q0 32 31 66t86.5 57t125.5 23q102 0 169.5 -51t67.5 -152v-145q69 -6 129.5 -38.5t104.5 -96.5v473h53v-445q0 -42 2 -73zM476.5 51q7.5 16 7.5 51l-2 92q-75 -10 -75 -88q0 -36 11.5 -53.5t32.5 -17.5q18 0 25.5 16z" />
    <glyph glyph-name="uni0E0D" unicode="&#xe0d;" horiz-adv-x="940" 
d="M514 32q-47 41 -47 133v218q0 80 -46 120t-130 40q-53 0 -95 -16t-65 -39.5t-23 -44.5q0 -20 29 -37t53 -17q16 0 35 7q4 1 11.5 3t13.5 2q7 0 15.5 -13t8.5 -22q0 -8 -8 -8q-67 0 -93.5 -34.5t-26.5 -102.5v-107q0 -39 17 -59.5t46 -20.5q26 0 40 14t14 39
q0 23 -13.5 36.5t-36.5 13.5q-19 0 -43 -8q-3 6 -3 11q0 14 13.5 24t36.5 10q37 0 62.5 -22.5t25.5 -64.5t-27.5 -68t-71.5 -26q-53 0 -83.5 33t-30.5 87v108q0 49 13 81.5t39 54.5q-31 10 -60 34t-29 49q0 32 29 66.5t82.5 57t124.5 22.5q102 0 166 -50.5t64 -152.5v-216
q0 -71 32 -100t107 -29q80 0 113.5 28.5t33.5 98.5v411h53v-411q0 -93 -48.5 -133.5t-151.5 -40.5q-99 0 -146 41zM523.5 -201.5q-41.5 26.5 -41.5 74.5q0 37 23.5 58.5t56.5 21.5q31 0 51 -19.5t20 -46.5q0 -21 -11 -34t-25 -13q-4 0 -12 2q11 15 11 35q0 17 -9 27.5
t-26 10.5t-27 -10.5t-10 -28.5q0 -28 27 -44.5t79 -16.5q62 0 95 22.5t51 71.5q10 23 27 23q12 0 34 -10q-15 -72 -70.5 -111t-136.5 -39q-65 0 -106.5 26.5z" />
    <glyph glyph-name="uni0E0E" unicode="&#xe0e;" horiz-adv-x="630" 
d="M484 534.5q66 -51.5 66 -168.5v-611h-54q-52 60 -107 97q-26 -46 -71.5 -73t-96.5 -27q-56 0 -92.5 25t-36.5 66q0 26 19 48.5t53.5 35.5t77.5 13q60 0 118 -25q9 35 10 67q21 0 32 -9.5t11 -24.5q0 -28 -8 -57q46 -28 92 -77v552q0 100 -48.5 138.5t-134.5 38.5
q-53 0 -97.5 -14t-70.5 -35t-26 -41q0 -17 16 -31.5t36 -24t28 -9.5q9 0 28 7q22 8 32 8q7 0 13.5 -10.5t8.5 -21.5t-3 -11q-47 0 -70.5 -22t-23.5 -70q0 -32 5 -61t6 -34q10 -54 10 -84q0 -44 -26.5 -70.5t-72.5 -26.5q-40 0 -65.5 25t-25.5 63q0 37 23 59t51 22
q17 0 27.5 -8.5t10.5 -23.5h-19q-25 0 -38.5 -13t-13.5 -36q0 -21 13.5 -34.5t36.5 -13.5q24 0 37.5 15.5t13.5 42.5q0 28 -6 56.5t-7 33.5q-7 29 -10.5 49t-3.5 41q0 55 32 85q-37 12 -67.5 39.5t-30.5 55.5q0 30 32.5 62t89.5 53t127 21q104 0 170 -51.5zM293 -185.5
q33 20.5 53 61.5q-53 25 -99 25q-50 0 -78 -16t-28 -43q0 -23 22.5 -35.5t56.5 -12.5q40 0 73 20.5z" />
    <glyph glyph-name="uni0E0F" unicode="&#xe0f;" horiz-adv-x="630" 
d="M484 534.5q66 -51.5 66 -168.5v-616h-56l-78 55l-81 -52l-51 51q-23 -26 -53.5 -41t-65.5 -15q-44 0 -73 24t-29 61q0 39 31 62t73 23q53 0 104 -45q14 37 14 85q18 0 30.5 -9t12.5 -28q0 -44 -21 -83l33 -32l77 48l81 -55l-1 567q0 100 -48.5 138.5t-134.5 38.5
q-53 0 -97.5 -14t-70.5 -35t-26 -41q0 -17 16 -31.5t36 -24t28 -9.5q9 0 28 7q22 8 32 8q7 0 13.5 -10.5t8.5 -21.5t-3 -11q-47 0 -70.5 -22t-23.5 -70q0 -32 5 -61t6 -34q10 -54 10 -84q0 -44 -26.5 -70.5t-72.5 -26.5q-40 0 -65.5 25t-25.5 63q0 37 23 59t51 22
q17 0 27.5 -8.5t10.5 -23.5h-19q-25 0 -38.5 -13t-13.5 -36q0 -21 13.5 -34.5t36.5 -13.5q24 0 37.5 15.5t13.5 42.5q0 28 -6 56.5t-7 33.5q-7 29 -10.5 49t-3.5 41q0 55 32 85q-37 12 -67.5 39.5t-30.5 55.5q0 30 32.5 62t89.5 53t127 21q104 0 170 -51.5zM214 -200.5
q22 12.5 38 35.5q-23 22 -42.5 33t-41.5 11q-27 0 -44.5 -11.5t-17.5 -32.5q0 -22 17 -35t46 -13q23 0 45 12.5z" />
    <glyph glyph-name="uni0E10" unicode="&#xe10;" horiz-adv-x="589" 
d="M518 561q0 -22 -32.5 -33.5t-80.5 -11.5q-24 0 -86 10q-5 1 -39.5 6t-66.5 5q-49 0 -74.5 -21.5t-25.5 -62.5q0 -18 4 -33.5t11 -23.5q9 0 29 3q94 10 155 9q88 -2 136.5 -40.5t48.5 -114.5q0 -31 -5 -64.5t-16 -87.5q-7 -29 -16 -83q-2 -12 -27.5 -19.5t-65.5 -7.5
t-68 8.5t-28 19.5q-1 45 -3.5 87.5t-8.5 77.5q-6 37 -19.5 52t-39.5 15q-22 0 -36 -13t-14 -36q0 -22 13.5 -35.5t36.5 -13.5t41 14q3 -6 3 -12q0 -15 -14.5 -26t-40.5 -11q-37 0 -59.5 23.5t-22.5 60.5q0 40 25.5 64.5t68.5 24.5q91 0 105 -96q12 -87 12 -152q0 -4 15.5 -8
t32.5 -4q19 0 34 3.5t16 8.5q2 17 11 67q17 93 17 139q0 60 -35 87t-117 27q-44 0 -151 -10l-43 -4q-17 17 -27.5 45t-10.5 58q0 61 43 95.5t110 34.5q39 0 107 -10q56 -8 75 -8q74 0 108 28q15 -15 15 -31zM483 -76.5q21 -20.5 21 -54.5q0 -15 -4.5 -31.5t-9.5 -32.5
q-18 -46 -18 -82h-49l-58 34l-67 -37l-46 50q-18 -23 -43.5 -36.5t-52.5 -13.5q-42 0 -65.5 23.5t-23.5 54.5q0 37 25 58.5t63 21.5q42 0 88 -46q8 32 8 69q19 0 28 -6t9 -21q0 -39 -16 -73l32 -36l59 32l70 -37q0 13 3.5 24.5t10.5 27.5q15 32 15 55q0 19 -10 30t-29 11
q-17 0 -27.5 -10t-10.5 -26q0 -17 11 -28t32 -13q-2 -15 -24 -15t-38.5 15.5t-16.5 39.5q0 33 21.5 53t53.5 20q38 0 59 -20.5zM228 -205q-21 23 -38.5 34.5t-34.5 11.5q-21 0 -34.5 -11t-13.5 -30q0 -22 13 -33t37 -11q48 0 71 39z" />
    <glyph glyph-name="uni0E11" unicode="&#xe11;" horiz-adv-x="655" 
d="M542 545.5q33 -34.5 33 -100.5v-445h-53v439q0 50 -16.5 72.5t-54.5 22.5q-25 0 -47 -14t-46 -43t-76 -97l-12 -16q-32 -41 -48 -72.5t-16 -69.5l-1 -222h-41q-15 0 -15 15q0 7 1.5 28t1.5 56v127q0 35 11 63t23 44t44 57q24 30 35.5 54.5t11.5 49.5q0 21 -9 32.5
t-27 11.5q-20 0 -34.5 -11t-26.5 -33q-13 24 -27 35t-35 11q-24 0 -38 -15t-14 -40q0 -27 14 -42t37 -15t37 13t19 33q16 -5 16 -22q0 -25 -21 -43.5t-52 -18.5q-41 0 -67 26.5t-26 67.5q0 44 26.5 70t63.5 26q47 0 68 -38q25 37 70 37q29 0 48.5 -18.5t24.5 -51.5
q25 32 57 51.5t68 19.5q60 0 93 -34.5z" />
    <glyph glyph-name="uni0E12" unicode="&#xe12;" horiz-adv-x="929" 
d="M834.5 47.5q1.5 -22.5 1.5 -28.5q0 -19 -17 -19h-34q-77 179 -238 194v-61v-32q-1 -52 -22 -81t-64 -29q-41 0 -67 30.5t-26 81.5q0 58 36 91.5t89 40.5v135q0 77 -21 114t-69 52q-20 -17 -63 -44l-24 -15q-6 3 -37 22t-52 37q-50 -17 -78.5 -65t-28.5 -128
q0 -66 19.5 -111t54.5 -80q17 17 49.5 39t40.5 27l32 22q45 33 45 73q0 26 -14 41t-40 15t-40.5 -14t-14.5 -38q0 -42 42 -58q-6 -16 -28 -16t-39 21t-17 52q0 42 27.5 68t70.5 26q45 0 71.5 -27.5t26.5 -64.5q0 -38 -16 -62t-50 -48l-25 -18q-50 -35 -79 -60t-48 -57
t-19 -73h-43q-5 0 -8 2t-3 9q0 20 8 38.5t22 41.5q12 17 12 23q0 2 -12 16q-33 37 -56.5 84.5t-23.5 127.5q0 92 41.5 154.5t120.5 89.5q67 -42 89 -62q22 19 68 49l19 13q79 -23 111.5 -72.5t32.5 -139.5v-138q147 -12 233 -135v475h53v-451q0 -55 1.5 -77.5zM494 171
l-1 22q-35 -6 -56 -27.5t-21 -59.5q0 -71 44 -71q18 0 26.5 15.5t8.5 51.5q1 23 -1 69z" />
    <glyph glyph-name="uni0E13" unicode="&#xe13;" horiz-adv-x="933" 
d="M875 168.5q20 -29.5 20 -68.5q0 -49 -30.5 -76.5t-75.5 -27.5t-74 27t-29 76q0 31 12.5 53t34.5 42q-5 1 -16 1q-46 0 -90.5 -27.5t-73 -72.5t-28.5 -95h-40q-17 0 -15 20q4 56 4 98l-1 265q0 80 -47 120t-131 40q-54 0 -97 -16t-67 -39.5t-24 -44.5q0 -20 29.5 -37
t53.5 -17q13 0 35 8q18 6 26 6q7 0 16 -12.5t9 -21.5q0 -6 -6 -6q-69 0 -96.5 -36.5t-27.5 -105.5v-107q0 -39 17 -59.5t46 -20.5q26 0 40 14t14 39q0 23 -13.5 36.5t-36.5 13.5q-19 0 -43 -8q-3 6 -3 11q0 14 13.5 24t36.5 10q37 0 62.5 -22.5t25.5 -64.5t-27.5 -68
t-71.5 -26q-53 0 -83.5 33t-30.5 87v108q0 91 53 136q-31 10 -60.5 33.5t-29.5 49.5q0 32 29.5 66.5t84 57t126.5 22.5q104 0 167 -50.5t63 -152.5v-250q34 49 84.5 76t110.5 27q26 0 54 -5q28 28 28 70v275h52v-278q0 -47 -34 -83q35 -17 55 -46.5zM833.5 55.5
q15.5 17.5 15.5 48.5q0 28 -17 48.5t-47 31.5q-28 -23 -41 -39.5t-13 -41.5q0 -29 15 -47t43 -18q29 0 44.5 17.5z" />
    <glyph glyph-name="uni0E14" unicode="&#xe14;" horiz-adv-x="622" 
d="M483 526.5q59 -59.5 59 -168.5v-358h-52v353q0 90 -44 139.5t-136 49.5q-89 0 -140 -52t-51 -143q0 -65 18 -112t52 -83q17 18 50 41t40 28l30 20q44 31 44 74q0 26 -13.5 40.5t-38.5 14.5t-39.5 -14t-14.5 -37q0 -22 11 -35.5t34 -22.5q-7 -15 -27 -15q-24 0 -42 21
t-18 51q0 41 27 67t69 26q44 0 70.5 -27.5t26.5 -63.5q0 -37 -16 -63t-49 -48q-64 -44 -95 -69.5t-53.5 -60.5t-22.5 -79h-44q-5 0 -8 2t-3 9q0 23 8.5 42.5t22.5 41.5q2 3 6.5 10.5t4.5 10.5q0 4 -6 13l-8 12q-29 41 -49.5 90t-20.5 121q0 69 31.5 122t87 82.5t126.5 29.5
q114 0 173 -59.5z" />
    <glyph glyph-name="uni0E15" unicode="&#xe15;" horiz-adv-x="630" 
d="M516.5 515q33.5 -50 33.5 -141v-374h-53v370q0 77 -22 115t-70 51q-16 -13 -66 -46l-20 -13q-65 40 -88 59q-50 -17 -80.5 -65.5t-30.5 -127.5q0 -64 20.5 -109t57.5 -82q19 19 76 55q30 18 44 28q25 17 35 34.5t10 39.5q0 25 -14 40t-40 15t-40.5 -14t-14.5 -38
q0 -41 45 -59q-5 -8 -11 -11.5t-17 -3.5q-24 0 -41.5 21t-17.5 52q0 42 27 68t70 26q45 0 72 -27.5t27 -65.5t-16 -62t-49 -47q-4 -3 -9 -6t-11 -8q-54 -36 -83.5 -59.5t-48.5 -55.5t-19 -74h-43q-5 0 -8 2t-3 9q0 19 7.5 36t19.5 38q13 24 13 31q0 4 -14 21q-33 38 -56 85
t-23 120q0 93 43 155.5t123 88.5q63 -40 88 -62q20 18 49.5 37.5t36.5 24.5q78 -21 111.5 -71z" />
    <glyph glyph-name="uni0E16" unicode="&#xe16;" horiz-adv-x="615" 
d="M467.5 535q67.5 -51 67.5 -152v-383h-53v383q0 79 -50 119.5t-134 40.5q-53 0 -96.5 -16t-68.5 -40t-25 -44t26.5 -36.5t50.5 -16.5q11 0 33 6q15 5 26 5q7 0 15.5 -14t8.5 -24q0 -6 -5 -6q-68 0 -92.5 -33.5t-24.5 -102.5v-107q0 -39 17 -59.5t46 -20.5q26 0 40 14
t14 39q0 23 -13.5 36.5t-36.5 13.5q-19 0 -43 -8q-3 6 -3 11q0 14 13.5 24t36.5 10q37 0 62.5 -22t25.5 -65q0 -42 -27.5 -68t-71.5 -26q-53 0 -83.5 33t-30.5 87v108q0 49 11.5 81.5t35.5 53.5q-30 11 -57 34.5t-27 49.5q0 32 31 66t86.5 57t125.5 23q102 0 169.5 -51z" />
    <glyph glyph-name="uni0E17" unicode="&#xe17;" horiz-adv-x="665" 
d="M554 553.5q31 -32.5 31 -94.5v-459h-53v455q0 43 -16.5 63.5t-51.5 20.5q-41 0 -69.5 -32t-58.5 -100q-55 -129 -78.5 -206t-25.5 -159l-1 -42h-43q-7 0 -9.5 3.5t-2.5 12.5q0 8 1.5 33.5t1.5 52.5v379q0 30 -13 47t-39 17q-24 0 -37 -13t-13 -36q0 -24 14 -37t37 -13h24
q0 -36 -41 -36q-29 0 -52.5 23.5t-23.5 62.5t26.5 64.5t67.5 25.5q47 0 75.5 -27.5t28.5 -77.5v-221q33 96 64 170q31 73 71 114.5t101 41.5q54 0 85 -32.5z" />
    <glyph glyph-name="uni0E18" unicode="&#xe18;" horiz-adv-x="590" 
d="M179 5.5q-41 14.5 -60 49t-19 95.5v114q14 4 28 4q26 0 26 -21v-93q0 -46 10.5 -70.5t39.5 -35.5t87 -11q59 0 91.5 10t46 33.5t13.5 65.5v79q0 48 -19.5 70.5t-61.5 29.5q-69 11 -225 11h-30q-17 15 -28 46.5t-11 62.5q0 64 42.5 100.5t111.5 36.5q25 0 56.5 -3t41.5 -4
q60 -6 80 -6q62 0 101 26q15 -15 15 -34q0 -20 -28 -30.5t-71 -10.5q-27 0 -93 8q-61 9 -102 9q-50 0 -76 -23.5t-26 -67.5q0 -40 16 -63q160 0 237 -14q59 -11 91 -42.5t32 -101.5v-75q0 -62 -22 -96.5t-66 -48.5t-116 -14q-71 0 -112 14.5z" />
    <glyph glyph-name="uni0E19" unicode="&#xe19;" horiz-adv-x="637" 
d="M598 97q0 -46 -30 -73.5t-76 -27.5q-45 0 -74 27.5t-29 73.5q0 30 12 51.5t33 39.5q-7 1 -21 1q-45 0 -92 -27t-77.5 -71t-30.5 -91h-37q-20 0 -20 20q0 11 1 20q3 51 3 73l-1 368q0 30 -13 47t-39 17q-24 0 -37 -13t-13 -36q0 -24 14 -37t37 -13h24q0 -36 -41 -36
q-29 0 -52.5 23.5t-23.5 62.5t26.5 64.5t67.5 25.5q47 0 75.5 -27.5t28.5 -77.5v-358q36 51 89 79.5t114 28.5q27 0 59 -5q15 16 22 31t7 35v284h53v-289q0 -23 -8.5 -41t-25.5 -35q75 -33 75 -114zM535.5 55.5q15.5 16.5 15.5 45.5q0 56 -64 78q-27 -21 -40 -37.5
t-13 -40.5q0 -28 15.5 -45t42.5 -17q28 0 43.5 16.5z" />
    <glyph glyph-name="uni0E1A" unicode="&#xe1a;" horiz-adv-x="665" 
d="M190 48q-19 20 -25 50.5t-6 86.5v296q0 30 -13 47t-39 17q-24 0 -37 -13t-13 -36q0 -24 14 -37t37 -13h24q0 -36 -41 -36q-29 0 -52.5 23.5t-23.5 62.5t26.5 64.5t67.5 25.5q47 0 75.5 -27.5t28.5 -77.5v-294q0 -48 4 -74t15 -37q20 -19 56.5 -30t84.5 -11
q49 0 85.5 10.5t55.5 30.5q12 12 15 33.5t3 68.5v398h53v-391q0 -60 -6 -88.5t-26 -48.5q-58 -57 -180 -57q-127 0 -183 57z" />
    <glyph glyph-name="uni0E1B" unicode="&#xe1b;" horiz-adv-x="665" 
d="M190 48q-19 20 -25 50.5t-6 86.5v296q0 30 -13 47t-39 17q-24 0 -37 -13t-13 -36q0 -24 14 -37t37 -13h24q0 -36 -41 -36q-29 0 -52.5 23.5t-23.5 62.5t26.5 64.5t67.5 25.5q47 0 75.5 -27.5t28.5 -77.5v-294q0 -48 4 -74t15 -37q20 -19 56.5 -30t84.5 -11
q49 0 85.5 10.5t55.5 30.5q12 12 15 33.5t3 68.5v605h53v-598q0 -60 -6 -88.5t-26 -48.5q-58 -57 -180 -57q-127 0 -183 57z" />
    <glyph glyph-name="uni0E1C" unicode="&#xe1c;" horiz-adv-x="624" 
d="M543 49l1 -27q0 -13 -3.5 -17.5t-11.5 -4.5h-41v14q0 49 -52 117.5t-124 127.5q-74 -59 -129 -127.5t-55 -117.5v-14h-45q-13 0 -13 11l2 31q4 42 4 78v347q0 55 32.5 87t82.5 32q45 0 72.5 -26t27.5 -67q0 -42 -25.5 -65.5t-63.5 -23.5q-22 0 -35.5 11.5t-13.5 25.5
q0 6 1 9q17 -9 45 -9q24 0 37 14t13 38q0 52 -56 52q-30 0 -47 -20t-17 -59l1 -336q29 45 79.5 95.5t99.5 85.5h7q48 -32 95.5 -82t75.5 -96v443h53v-444q0 -38 3 -83z" />
    <glyph glyph-name="uni0E1D" unicode="&#xe1d;" horiz-adv-x="624" 
d="M543 49l1 -27q0 -13 -3.5 -17.5t-11.5 -4.5h-41v14q0 49 -52 117.5t-124 127.5q-74 -59 -129 -127.5t-55 -117.5v-14h-45q-13 0 -13 11l2 31q4 42 4 78v347q0 55 32.5 87t82.5 32q45 0 72.5 -26t27.5 -67q0 -42 -25.5 -65.5t-63.5 -23.5q-22 0 -35.5 11.5t-13.5 25.5
q0 6 1 9q17 -9 45 -9q24 0 37 14t13 38q0 52 -56 52q-30 0 -47 -20t-17 -59l1 -336q29 45 79.5 95.5t99.5 85.5h7q48 -32 95.5 -82t75.5 -96v650h53v-651q0 -38 3 -83z" />
    <glyph glyph-name="uni0E1E" unicode="&#xe1e;" horiz-adv-x="719" 
d="M639 11q0 -7 -3 -9t-8 -2h-46v14q0 60 -55.5 187t-120.5 244q-64 -114 -120 -242.5t-56 -188.5v-14h-48q-5 0 -8 2t-3 9q0 5 1 9q5 23 6 50t1 120v291q0 30 -13 47t-39 17q-24 0 -37 -13t-13 -36q0 -24 14 -37t37 -13h24q0 -36 -41 -36q-29 0 -52.5 23.5t-23.5 62.5
t26.5 64.5t67.5 25.5q47 0 75.5 -27.5t28.5 -77.5v-291q47 132 165 335h16q45 -74 92.5 -167.5t74.5 -169.5v388h53v-386v-53q0 -96 4 -117q1 -4 1 -9z" />
    <glyph glyph-name="uni0E1F" unicode="&#xe1f;" horiz-adv-x="719" 
d="M639 11q0 -7 -3 -9t-8 -2h-46v14q0 60 -55.5 187t-120.5 244q-64 -114 -120 -242.5t-56 -188.5v-14h-48q-5 0 -8 2t-3 9q0 5 1 9q5 23 6 50t1 120v291q0 30 -13 47t-39 17q-24 0 -37 -13t-13 -36q0 -24 14 -37t37 -13h24q0 -36 -41 -36q-29 0 -52.5 23.5t-23.5 62.5
t26.5 64.5t67.5 25.5q47 0 75.5 -27.5t28.5 -77.5v-291q47 132 165 335h16q45 -74 92.5 -167.5t74.5 -169.5v595h53v-593v-53q0 -96 4 -117q1 -4 1 -9z" />
    <glyph glyph-name="uni0E20" unicode="&#xe20;" horiz-adv-x="630" 
d="M484 534.5q66 -51.5 66 -168.5v-366h-53v366q0 100 -48.5 138.5t-134.5 38.5q-53 0 -97.5 -14t-70.5 -35t-26 -41q0 -17 16 -31.5t36 -24t28 -9.5q9 0 28 7q22 8 32 8q7 0 13.5 -10.5t8.5 -21.5t-3 -11q-47 0 -70.5 -22t-23.5 -70q0 -32 5 -61t6 -34q10 -54 10 -84
q0 -44 -26.5 -70.5t-72.5 -26.5q-40 0 -65.5 25t-25.5 63q0 37 23 59t51 22q17 0 27.5 -8.5t10.5 -23.5h-19q-25 0 -38.5 -13t-13.5 -36q0 -21 13.5 -34.5t36.5 -13.5q24 0 37.5 15.5t13.5 42.5q0 28 -6 56.5t-7 33.5q-7 29 -10.5 49t-3.5 41q0 55 32 85q-37 12 -67.5 39.5
t-30.5 55.5q0 30 32.5 62t89.5 53t127 21q104 0 170 -51.5z" />
    <glyph glyph-name="uni0E21" unicode="&#xe21;" horiz-adv-x="657" 
d="M562 58q2 -31 2 -39q0 -19 -14 -19h-41q-26 99 -93 153.5t-162 60.5l1 -46q2 -45 1 -62q-1 -59 -23.5 -87t-66.5 -28q-42 0 -69 32t-27 85q0 63 37 101t93 46q-1 20 -1 45v181q0 30 -13 47t-39 17q-24 0 -37 -13t-13 -36q0 -24 14 -37t37 -13h24q0 -36 -41 -36
q-29 0 -52.5 23.5t-23.5 62.5t26.5 64.5t67.5 25.5q47 0 75.5 -27.5t28.5 -77.5v-224q79 0 146.5 -36.5t107.5 -100.5v456h53v-445q0 -42 2 -73zM195 51q9 16 9 56q0 24 -2 72l-1 32q-82 -15 -82 -100q0 -36 12 -56t34 -20q21 0 30 16z" />
    <glyph glyph-name="uni0E22" unicode="&#xe22;" horiz-adv-x="610" 
d="M530 193q0 -55 -7 -88t-29 -55q-32 -32 -82.5 -45.5t-102.5 -13.5q-53 0 -105 13t-83 45q-22 22 -32 50.5t-10 72.5v9q0 47 21.5 77.5t52.5 44.5q-34 15 -58.5 51t-24.5 92q0 40 18 72t48.5 50t66.5 18q47 0 74 -25t27 -65q0 -39 -24 -62.5t-61 -23.5q-26 0 -44 13.5
t-18 31.5q0 6 1 9q24 -18 52 -18q24 0 37 13t13 36q0 24 -13.5 37t-40.5 13q-38 0 -60 -25.5t-22 -75.5q0 -69 44 -99.5t148 -30.5q5 0 5 -7q0 -11 -8 -24.5t-16 -13.5q-12 0 -40 6q-30 6 -47 6q-33 0 -55 -26t-22 -71v-13q0 -35 6 -55.5t21 -36.5q19 -20 58.5 -31.5
t90.5 -11.5q50 0 87 12t57 33q14 16 19 42.5t5 71.5l-1 89v292h53v-292z" />
    <glyph glyph-name="uni0E23" unicode="&#xe23;" horiz-adv-x="508" 
d="M218 20q-30 29 -30 71q0 43 27 69.5t68 26.5q24 0 35.5 -11.5t10.5 -29.5q-20 3 -40 3q-26 0 -41.5 -15.5t-15.5 -42.5q0 -26 16.5 -41.5t42.5 -15.5q71 0 71 97v76q0 59 -18 86t-64 38q-48 12 -128 12l-72 -1q-16 15 -26.5 43t-10.5 56q0 66 42.5 103.5t104.5 37.5
q23 0 91 -7q48 -6 66 -6q65 0 99 23q6 -3 10.5 -11t4.5 -16q0 -21 -30 -32.5t-74 -11.5q-25 0 -79 8q-50 9 -88 9q-45 0 -69 -24t-24 -72q0 -33 15 -55h20q105 0 163 -13q59 -13 89.5 -51t30.5 -113v-79q0 -67 -34 -103.5t-90 -36.5q-43 0 -73 29z" />
    <glyph glyph-name="uni0E24" unicode="&#xe24;" horiz-adv-x="615" 
d="M482 383q0 79 -50 119.5t-134 40.5q-53 0 -96.5 -16t-68.5 -40t-25 -44t26.5 -36.5t50.5 -16.5q11 0 33 6q15 5 26 5q7 0 15.5 -14t8.5 -24q0 -6 -5 -6q-68 0 -92.5 -33.5t-24.5 -102.5v-107q0 -39 17 -59.5t46 -20.5q26 0 40 14t14 39q0 23 -13.5 36.5t-36.5 13.5
q-19 0 -43 -8q-3 6 -3 11q0 14 13.5 24t36.5 10q37 0 62.5 -22t25.5 -65q0 -42 -27.5 -68t-71.5 -26q-53 0 -83.5 33t-30.5 87v108q0 50 11.5 82.5t35.5 53.5q-30 10 -57 34t-27 49q0 32 31 66t86.5 57t125.5 23q102 0 169.5 -51t67.5 -152v-603h-53v603z" />
    <glyph glyph-name="uni0E25" unicode="&#xe25;" horiz-adv-x="618" 
d="M529 283q-6 -70 -6 -106q0 -50 6 -116q3 -30 3 -46q0 -15 -11 -15h-46q0 161 -53.5 244.5t-146.5 83.5q-65 0 -102 -43.5t-37 -118.5q0 -68 21 -101t57 -33q26 0 39.5 14t13.5 37q0 22 -12.5 34.5t-36.5 12.5q-17 0 -29 -7t-24 -20q-3 6 -3 16q0 18 18 33t46 15
q37 0 60 -24t23 -61q0 -41 -26 -66t-70 -25q-58 0 -93.5 44.5t-35.5 130.5q0 65 25 112t68.5 71t98.5 24q69 0 120.5 -36t79.5 -99q6 95 5 152q-1 71 -44.5 111t-122.5 40q-64 0 -109 -23t-87 -65q-7 -7 -15 -7q-9 0 -19 8t-16 21q35 46 98 78.5t149 32.5q102 0 161 -50
t59 -139q0 -40 -6 -114z" />
    <glyph glyph-name="uni0E26" unicode="&#xe26;" horiz-adv-x="630" 
d="M497 366q0 100 -48.5 138.5t-134.5 38.5q-53 0 -97.5 -14t-70.5 -35t-26 -41q0 -17 16 -31.5t36 -24t28 -9.5q9 0 28 7q22 8 32 8q7 0 13.5 -10.5t8.5 -21.5t-3 -11q-47 0 -70.5 -22t-23.5 -70q0 -32 5 -61t6 -34q10 -54 10 -84q0 -44 -26.5 -70.5t-72.5 -26.5
q-40 0 -65.5 25t-25.5 63q0 37 23 59t51 22q17 0 27.5 -8.5t10.5 -23.5h-19q-25 0 -38.5 -13t-13.5 -36q0 -21 13.5 -34.5t36.5 -13.5q24 0 37.5 15.5t13.5 42.5q0 28 -6 56.5t-7 33.5q-7 29 -10.5 49t-3.5 41q0 55 32 85q-37 12 -67.5 39.5t-30.5 55.5q0 30 32.5 62
t89.5 53t127 21q104 0 170 -51.5t66 -168.5v-586h-53v586z" />
    <glyph glyph-name="uni0E27" unicode="&#xe27;" horiz-adv-x="528" 
d="M248 18q-30 28 -30 71q0 42 27.5 68.5t66.5 26.5q24 0 36.5 -10t12.5 -24q0 -3 -2 -9q-14 6 -41 6q-25 0 -40 -15.5t-15 -41.5q0 -25 16 -40.5t42 -15.5q35 0 53 22.5t18 66.5v264q0 73 -38.5 114t-108.5 41q-58 0 -96 -23.5t-69 -68.5q-4 -6 -11 -6q-8 0 -20.5 8
t-19.5 18q29 49 83.5 82.5t132.5 33.5q94 0 146 -52t52 -150v-260q0 -62 -34 -98t-88 -36q-43 0 -73 28z" />
    <glyph glyph-name="uni0E28" unicode="&#xe28;" horiz-adv-x="609" 
d="M556.5 545q-26.5 -21 -58.5 -33q46 -57 46 -151v-361h-53v356q0 96 -45 141t-132 45q-88 0 -138 -46t-50 -140q0 -67 23 -116q26 65 68 104.5t102 39.5q43 0 71.5 -26.5t28.5 -68.5t-26.5 -67.5t-68.5 -25.5q-31 0 -52 16.5t-21 43.5q0 21 16 27q8 -25 21 -37t36 -12
q26 0 39.5 14.5t13.5 40.5t-15.5 40t-44.5 14q-46 0 -83 -45t-58.5 -123.5t-23.5 -174.5h-39q-15 0 -15 20q0 44 19 122q6 30 6 31q0 5 -11 29q-18 35 -29 70t-11 84q0 73 31 124.5t86 78.5t125 27q91 0 149 -40q52 18 80 72q18 -2 29 -11.5t11 -20.5q0 -20 -26.5 -41z" />
    <glyph glyph-name="uni0E29" unicode="&#xe29;" horiz-adv-x="665" 
d="M585 576v-391q0 -60 -6 -88.5t-26 -48.5q-58 -57 -180 -57q-127 0 -183 57q-19 20 -25 50.5t-6 86.5v296q0 30 -13 47t-39 17q-24 0 -37 -13t-13 -36q0 -24 14 -37t37 -13h24q0 -36 -41 -36q-29 0 -52.5 23.5t-23.5 62.5t26.5 64.5t67.5 25.5q47 0 75.5 -27.5t28.5 -77.5
v-294q0 -48 4 -74t15 -37q20 -19 56.5 -30t84.5 -11q49 0 85.5 10.5t55.5 30.5q12 12 15 33.5t3 68.5v64q-18 -25 -49.5 -40.5t-70.5 -15.5q-54 0 -90.5 29t-36.5 78q0 34 24.5 56t57.5 22q32 0 53 -18t21 -50q0 -23 -12.5 -37.5t-30.5 -14.5q-8 0 -16 4q22 15 22 41
q0 16 -10 26.5t-26 10.5q-18 0 -30 -10t-12 -29q0 -32 24.5 -50t64.5 -18q45 0 76.5 24.5t40.5 69.5v256h53z" />
    <glyph glyph-name="uni0E2A" unicode="&#xe2a;" horiz-adv-x="616" 
d="M556.5 545q-26.5 -21 -58.5 -33q37 -46 37 -115q0 -40 -6 -114q-6 -70 -6 -106q0 -50 6 -116q3 -30 3 -46q0 -15 -11 -15h-46q0 161 -53.5 244.5t-146.5 83.5q-65 0 -102 -43.5t-37 -118.5q0 -68 21 -101t57 -33q26 0 39.5 14t13.5 37q0 22 -12.5 34.5t-36.5 12.5
q-17 0 -29 -7t-24 -20q-3 6 -3 16q0 18 18 33t46 15q37 0 60 -24t23 -61q0 -41 -26 -66t-70 -25q-58 0 -93.5 44.5t-35.5 130.5q0 65 25 112t68.5 71t98.5 24q69 0 120.5 -36t79.5 -99q6 95 5 152q-1 71 -44.5 111t-122.5 40q-64 0 -109 -23t-87 -65q-7 -7 -15 -7
q-9 0 -19 8t-16 21q35 46 98 78.5t149 32.5q91 0 148 -40q52 18 80 72q18 -2 29 -11.5t11 -20.5q0 -20 -26.5 -41z" />
    <glyph glyph-name="uni0E2B" unicode="&#xe2b;" horiz-adv-x="658" 
d="M579 278v-278h-53v265q0 31 -8.5 48t-26.5 31q-98 -46 -156 -81.5t-90 -80t-32 -103.5v-79h-43q-15 0 -15 15l1 27q3 63 3 74v365q0 30 -13 47t-39 17q-24 0 -37 -13t-13 -36q0 -24 14 -37t37 -13h24q0 -36 -41 -36q-29 0 -52.5 23.5t-23.5 62.5t26.5 64.5t67.5 25.5
q47 0 75.5 -27.5t28.5 -77.5v-265q28 40 81 74.5t153 82.5q-62 46 -62 106q0 48 31.5 77.5t79.5 29.5q47 0 79 -28t32 -80q0 -36 -18.5 -62.5t-52.5 -48.5q43 -36 43 -89zM450 524.5q-17 -17.5 -17 -46.5q0 -26 14.5 -43.5t46.5 -38.5q34 18 49.5 36.5t15.5 46.5
q0 29 -15.5 46t-47.5 17q-29 0 -46 -17.5z" />
    <glyph glyph-name="uni0E2C" unicode="&#xe2c;" horiz-adv-x="708" 
d="M695.5 594q10.5 -8 10.5 -20q0 -13 -11 -37q-22 -41 -61 -68v-279q0 -141 4 -170q1 -3 1 -9q0 -7 -3 -9t-8 -2h-46v14q0 63 -49 141t-122 162q-180 -197 -180 -303v-14h-49q-5 0 -8 2.5t-3 9.5q0 5 1 8q5 23 6 50t1 120v291q0 30 -13 47t-39 17q-24 0 -37 -13t-13 -36
q0 -24 14 -37t37 -13h24q0 -36 -41 -36q-29 0 -52.5 23.5t-23.5 62.5t26.5 64.5t67.5 25.5q47 0 75.5 -27.5t28.5 -77.5v-318q25 46 63 93.5t95 110.5l15 16h10l27 -32q54 -63 85.5 -105t52.5 -84v281q-33 -11 -69 -11q-58 0 -94 26t-36 67q0 39 35 63.5t82 24.5
q45 0 79.5 -23t48.5 -61q25 29 43 75q15 -2 25.5 -10zM581 491q-1 37 -22.5 58.5t-59.5 21.5q-28 0 -47 -12t-19 -35q0 -24 20.5 -36.5t57.5 -12.5q41 0 70 16z" />
    <glyph glyph-name="uni0E2D" unicode="&#xe2d;" horiz-adv-x="615" 
d="M141 44.5q-54 53.5 -54 165.5q0 50 19 85.5t49 53.5t63 18q42 0 67.5 -25t25.5 -67q0 -40 -24.5 -63.5t-59.5 -23.5q-24 0 -40.5 13t-16.5 36q9 -5 22 -8t24 -3q24 0 38 13.5t14 37.5q0 22 -12.5 34.5t-38.5 12.5q-36 0 -56 -28.5t-20 -85.5q0 -95 39.5 -134t129.5 -39
q63 0 100 22.5t54.5 72.5t17.5 135v40q0 91 -21.5 142t-62 71.5t-102.5 20.5q-55 0 -101 -26.5t-80 -65.5q-4 -4 -8.5 -7t-10.5 -3q-8 0 -18 9t-18 21q37 48 97 82.5t139 34.5t131 -25t80 -86.5t28 -167.5v-40q0 -145 -52.5 -210.5t-172.5 -65.5q-115 0 -169 53.5z" />
    <glyph glyph-name="uni0E2E" unicode="&#xe2e;" horiz-adv-x="615" 
d="M551 520q-17 -28 -47 -55q32 -62 32 -155v-45q0 -139 -52.5 -206.5t-171.5 -67.5q-115 0 -169.5 51.5t-54.5 152.5q0 74 38 112.5t91 38.5q43 0 69 -24t26 -67q0 -40 -24 -63t-61 -23q-27 0 -42 10.5t-15 25.5q0 6 3 12q19 -10 44 -10q24 0 38 13t14 37q0 22 -13.5 34.5
t-39.5 12.5q-35 0 -55 -27.5t-20 -81.5q0 -84 40.5 -121.5t130.5 -37.5q91 0 130.5 54t39.5 175v45q0 73 -21 125q-77 -46 -179 -46q-96 0 -150 25.5t-54 70.5q0 28 23 51t67 36.5t103 13.5q136 0 204 -78q34 37 54 91q20 -2 29.5 -9.5t9.5 -22.5q0 -19 -17 -47zM438 476
q-51 66 -167 66q-64 0 -103 -15.5t-39 -38.5q0 -26 39 -40.5t114 -14.5q93 0 156 43z" />
    <glyph glyph-name="uni0E2F" unicode="&#xe2f;" horiz-adv-x="454" 
d="M362 561q0 -6 -1 -22t-1 -34v-505h-52l1 442q-45 -69 -138 -69q-59 0 -96.5 32t-37.5 84q0 41 27 67t65 26q37 0 59 -21t22 -60q0 -26 -15.5 -43t-35.5 -17q-7 0 -13 3t-8 8q14 3 24 16t10 32q0 20 -11.5 31t-31.5 11q-21 0 -34.5 -13.5t-13.5 -37.5q0 -35 24.5 -55
t70.5 -20q57 0 93 36.5t40 102.5l1 21h38q14 0 14 -15z" />
    <glyph glyph-name="uni0E30" unicode="&#xe30;" horiz-adv-x="438" 
d="M80 390.5q-40 30.5 -40 75.5q0 40 25.5 61.5t59.5 21.5t55.5 -19.5t21.5 -54.5q0 -23 -13 -37.5t-31 -14.5q-9 0 -16 5q21 19 21 41q0 39 -38 39q-20 0 -30 -11t-10 -30q0 -27 26.5 -45t72.5 -18q57 0 91 24.5t54 78.5q7 21 20 21q7 0 16.5 -3t17.5 -8
q-18 -76 -70.5 -116.5t-127.5 -40.5q-65 0 -105 30.5zM80 69.5q-40 30.5 -40 75.5q0 40 25.5 61.5t59.5 21.5t55.5 -19.5t21.5 -54.5q0 -23 -13 -37.5t-31 -14.5q-8 0 -16 5q21 19 21 41q0 39 -38 39q-20 0 -30 -11t-10 -30q0 -27 26.5 -45t72.5 -18q57 0 91.5 25t53.5 78
q7 21 20 21q7 0 16.5 -3t17.5 -8q-18 -76 -70.5 -116.5t-127.5 -40.5q-65 0 -105 30.5z" />
    <glyph glyph-name="uni0E31" unicode="&#xe31;" 
d="M-315.5 659.5q-43.5 29.5 -43.5 77.5q0 38 25.5 62t61.5 24t59 -21.5t23 -56.5q0 -25 -13.5 -39.5t-30.5 -14.5q-7 0 -14 3q8 8 14 20t6 26q0 20 -11.5 32t-31.5 12q-21 0 -33.5 -12.5t-12.5 -34.5q0 -31 31 -48.5t87 -17.5q92 0 147 39.5t69 110.5q44 0 44 -39
q0 -38 -32.5 -73t-91 -57t-130.5 -22q-79 0 -122.5 29.5z" />
    <glyph glyph-name="uni0E32" unicode="&#xe32;" horiz-adv-x="458" 
d="M329 5q-4 5 -4 20v389q0 62 -32 94.5t-89 32.5q-41 0 -70.5 -14.5t-58.5 -39.5q-14 -13 -18.5 -15.5t-13.5 -2.5t-16.5 7.5t-16.5 21.5q88 88 192 88q80 0 128 -44.5t48 -123.5v-418h-29q-16 0 -20 5z" />
    <glyph glyph-name="uni0E33" unicode="&#xe33;" horiz-adv-x="458" 
d="M329 5q-4 5 -4 20v389q0 62 -32 94.5t-89 32.5q-41 0 -70.5 -14.5t-58.5 -39.5q-14 -13 -18.5 -15.5t-13.5 -2.5t-16.5 7.5t-16.5 21.5q88 88 192 88q80 0 128 -44.5t48 -123.5v-418h-29q-16 0 -20 5zM-193.5 678.5q-29.5 29.5 -29.5 75.5q0 45 29.5 74.5t75.5 29.5
t75.5 -29t29.5 -75t-29.5 -75.5t-75.5 -29.5t-75.5 29.5zM-73 707.5q17 17.5 17 46.5q0 30 -16.5 47t-45.5 17q-28 0 -44.5 -17t-16.5 -46q0 -30 16.5 -47.5t44.5 -17.5t45 17.5z" />
    <glyph glyph-name="uni0E34" unicode="&#xe34;" 
d="M-306 657q-104 4 -232 4q-7 0 -9 2.5t-2 11.5q0 41 27 82t78 68t120 27q71 0 127 -28t87 -74.5t31 -97.5v-13q-123 14 -227 18zM-190.5 774.5q-53.5 38.5 -133.5 38.5q-75 0 -119.5 -33t-55.5 -82q210 0 371 -19q-9 57 -62.5 95.5z" />
    <glyph glyph-name="uni0E35" unicode="&#xe35;" 
d="M-79 638h-1v0q-123 14 -227 18t-232 4q-6 0 -8 2.5t-2 11.5q0 41 27 82t78 68t119 27q62 0 112.5 -21.5t84.5 -58.5v106h48v-208q1 -6 1 -18v-13zM-126 678q-8 36 -34.5 66.5t-69 49t-95.5 18.5q-75 0 -119.5 -33.5t-54.5 -81.5q211 0 373 -19z" />
    <glyph glyph-name="uni0E36" unicode="&#xe36;" 
d="M-65.5 767q-17.5 -21 -42.5 -26q21 -35 24 -77l1 -25q-123 14 -227 18t-232 4q-7 0 -9 2.5t-2 11.5q0 41 27 82t78 68t120 27q65 0 120 -25q4 29 26.5 49t54.5 20q35 0 57 -22t22 -58q0 -28 -17.5 -49zM-96.5 784.5q11.5 12.5 11.5 30.5q0 19 -11.5 31.5t-31.5 12.5
t-31.5 -12.5t-11.5 -30.5q0 -19 12 -31.5t32 -12.5q19 0 30.5 12.5zM-132 679q-9 57 -62.5 95.5t-133.5 38.5q-75 0 -119.5 -33t-55.5 -82q210 0 371 -19z" />
    <glyph glyph-name="uni0E37" unicode="&#xe37;" 
d="M-80 882v-244q-123 14 -227 18t-232 4q-7 0 -9 2.5t-2 11.5q0 41 27 82t78 68t120 27q53 0 99 -17v48h47v-71q30 -19 50 -42l1 113h48zM-129 678q-6 37 -33 67.5t-69.5 48.5t-93.5 18q-75 0 -119.5 -33t-55.5 -82q210 0 371 -19z" />
    <glyph glyph-name="uni0E38" unicode="&#xe38;" 
d="M-127 -250q0 41 4 69q2 16 2 21q0 24 -10.5 36.5t-29.5 12.5q-18 0 -29.5 -11t-11.5 -29q0 -19 11 -27.5t27 -8.5q18 0 28 5q0 -16 -10 -26t-30 -10q-27 0 -44.5 18t-17.5 49q0 33 22 54.5t57 21.5q36 0 57.5 -23t21.5 -62l-1 -28q-3 -21 -3 -63v-34q0 -20 -3.5 -26.5
t-18.5 -6.5h-21v68z" />
    <glyph glyph-name="uni0E39" unicode="&#xe39;" 
d="M-288 -235q0 25 8 49q6 22 6 35q0 42 -33 42q-17 0 -26 -9.5t-9 -24.5q0 -33 45 -35q-2 -7 -10.5 -12.5t-20.5 -5.5q-21 0 -35.5 15t-14.5 39q0 29 21 48t52 19q34 0 53.5 -20.5t19.5 -55.5q0 -20 -5 -38q-5 -28 -5 -42q0 -25 12.5 -36t44.5 -11q59 0 59 44v154h46v-154
q0 -40 -26 -59.5t-80 -19.5q-102 0 -102 78z" />
    <glyph glyph-name="uni0E3A" unicode="&#xe3a;" 
d="M-147 -163q-16 15 -16 37q0 23 16 38t40 15q23 0 38.5 -15t15.5 -38q0 -22 -15.5 -37t-38.5 -15q-24 0 -40 15z" />
    <glyph glyph-name="uni0E3F" unicode="&#xe3f;" horiz-adv-x="615" 
d="M537 299q34 -44 34 -110q0 -92 -62 -140.5t-178 -48.5v-120h-52v120h-193v700h193v109h52v-109q100 -2 156 -50.5t56 -133.5q0 -57 -26.5 -99.5t-72.5 -59.5q59 -14 93 -58zM279 650h-136v-274h136v274zM445 613q-40 35 -114 37v-274q74 3 114 39t40 101q0 62 -40 97z
M279 50v278h-136v-278h136zM470 84q43 33 43 105t-42.5 105t-139.5 34v-278q96 1 139 34z" />
    <glyph glyph-name="uni0E40" unicode="&#xe40;" horiz-adv-x="310" 
d="M118.5 25.5q-29.5 30.5 -29.5 85.5v444q0 11 5.5 16t12.5 5h36v-468q0 -34 14.5 -52t41.5 -18q25 0 39 15.5t14 38.5q0 25 -13.5 39t-36.5 14t-43 -10v6q0 18 13 29.5t38 11.5q37 0 61.5 -23t24.5 -67t-27 -70.5t-72 -26.5q-49 0 -78.5 30.5z" />
    <glyph glyph-name="uni0E41" unicode="&#xe41;" horiz-adv-x="580" 
d="M118.5 25.5q-29.5 30.5 -29.5 85.5v444q0 11 5.5 16t12.5 5h36v-468q0 -34 14.5 -52t41.5 -18q25 0 39 15.5t14 38.5q0 25 -13.5 39t-36.5 14t-43 -10v6q0 18 13 29.5t38 11.5q37 0 61.5 -23t24.5 -67t-27 -70.5t-72 -26.5q-49 0 -78.5 30.5zM388.5 25.5
q-29.5 30.5 -29.5 85.5v444q0 11 5.5 16t12.5 5h36v-468q0 -34 14.5 -52t41.5 -18q25 0 39 15.5t14 38.5q0 25 -13.5 39t-36.5 14t-43 -10v6q0 18 13 29.5t38 11.5q37 0 61.5 -23t24.5 -67t-27 -70.5t-72 -26.5q-49 0 -78.5 30.5z" />
    <glyph glyph-name="uni0E42" unicode="&#xe42;" horiz-adv-x="322" 
d="M134 26q-30 31 -30 86v557q0 44 -19.5 65.5t-41 26.5t-65.5 9q-14 11 -23 35t-9 51q0 55 38 85t89 30q19 0 69 -6q44 -7 73 -7q54 0 85 21q13 -13 13 -34q0 -16 -26 -25t-66 -9q-29 0 -83 8q-42 7 -62 7q-36 0 -58 -17.5t-22 -52.5q0 -26 11 -44q59 -6 105 -35.5
t46 -106.5v-562q0 -34 14.5 -52t42.5 -18q25 0 39 15t14 39q0 25 -13.5 39t-37.5 14q-25 0 -43 -9v6q0 16 13.5 28t36.5 12q37 0 62 -23.5t25 -66.5q0 -44 -26.5 -70.5t-71.5 -26.5q-49 0 -79 31z" />
    <glyph glyph-name="uni0E43" unicode="&#xe43;" horiz-adv-x="329" 
d="M134 26q-30 31 -30 86v374q0 63 20 105t57 91q30 42 44 69t14 64q0 49 -30 81.5t-94 32.5q-51 0 -83 -26.5t-32 -67.5q0 -35 16.5 -52.5t46.5 -17.5q28 0 42 16t14 45q0 44 -43 61q10 8 21 8q27 0 46 -20.5t19 -52.5q0 -43 -28.5 -71.5t-70.5 -28.5q-47 0 -78.5 29
t-31.5 82q0 35 20.5 67t57.5 51.5t86 19.5q82 0 128 -43t46 -109q0 -43 -15.5 -75.5t-46.5 -76.5q-35 -49 -53 -89t-18 -95v-375q0 -34 14.5 -52t42.5 -18q25 0 39 15t14 39q0 25 -13.5 39t-37.5 14q-25 0 -43 -9v6q0 16 13.5 28t36.5 12q37 0 62 -23.5t25 -66.5
q0 -44 -26.5 -70.5t-71.5 -26.5q-49 0 -79 31z" />
    <glyph glyph-name="uni0E44" unicode="&#xe44;" horiz-adv-x="322" 
d="M286.5 159.5q24.5 -22.5 24.5 -66.5t-27 -71t-72 -27q-49 0 -78.5 31t-29.5 86v505q0 101 27 164t79 118q-36 -13 -95 -13q-58 0 -99.5 16t-41.5 43q0 10 6.5 17t14.5 8q22 -18 52 -29t77 -11q44 0 71.5 8t51.5 20q14 7 19 7q6 0 9.5 -3t8.5 -9l14 -19q-55 -58 -80 -90.5
t-42.5 -85.5t-17.5 -134v-516q0 -34 14 -52t42 -18q26 0 39.5 15t13.5 40t-13.5 38.5t-36.5 13.5q-25 0 -43 -9v6q0 16 13.5 28t36.5 12q38 0 62.5 -22.5z" />
    <glyph glyph-name="uni0E45" unicode="&#xe45;" horiz-adv-x="458" 
d="M325 414q0 64 -32 95.5t-90 31.5q-41 0 -70.5 -13t-57.5 -40q-3 -3 -10.5 -10t-15.5 -11t-18.5 3t-20.5 23q34 40 82.5 66.5t108.5 26.5q80 0 128.5 -42.5t48.5 -121.5v-642h-53v634z" />
    <glyph glyph-name="uni0E46" unicode="&#xe46;" horiz-adv-x="500" 
d="M369 453q0 75 -59 75q-44 0 -79 -53h-4q-16 28 -34 42t-45 14q-33 0 -50.5 -26t-17.5 -75q0 -55 21 -84t57 -29q24 0 38 14.5t14 36.5q0 23 -12 35.5t-35 12.5q-22 0 -48 -12v7q0 16 15.5 29t42.5 13q34 0 58 -23t24 -61q0 -41 -27.5 -67.5t-76.5 -26.5q-52 0 -86.5 40
t-34.5 112q0 65 31.5 106.5t85.5 41.5q57 0 84 -47q13 24 34 35.5t54 11.5q39 0 70 -30t31 -84v-661h-51v653z" />
    <glyph glyph-name="uni0E47" unicode="&#xe47;" 
d="M-467 672.5q-28 33.5 -28 87.5q0 64 40 96t109 32q16 0 54 -2l50 -1q52 0 72.5 11.5t26.5 48.5q44 0 44 -32q0 -29 -32 -49t-82 -20l-66 1l-68 2q-102 0 -102 -86q0 -79 57 -79q28 0 45 12.5t32 41.5q17 -31 40 -44.5t59 -13.5q28 0 46 16t18 41q0 19 -10.5 30t-28.5 11
q-17 0 -27 -9.5t-10 -25.5q0 -23 21 -35q-8 -10 -22 -10q-13 0 -23.5 14.5t-10.5 32.5q0 29 20.5 48.5t50.5 19.5q34 0 56 -22t22 -55q0 -41 -29 -68t-73 -27q-32 0 -57.5 10.5t-40.5 28.5q-27 -39 -80 -39q-45 0 -73 33.5z" />
    <glyph glyph-name="uni0E48" unicode="&#xe48;" 
d="M-135 803l1 58h53l-1 -58q0 -30 -6 -138h-41q-6 64 -6 138z" />
    <glyph glyph-name="uni0E49" unicode="&#xe49;" 
d="M-37.5 855q12.5 -10 12.5 -34q0 -48 -33.5 -87.5t-88 -62t-114.5 -22.5q-107 0 -107 26q0 3 3 21q12 -3 29 -3q41 0 67 27t26 68q0 23 -11.5 35t-30.5 12t-29.5 -10.5t-10.5 -27.5q0 -39 49 -39q0 -10 -7 -16t-20 -6q-26 0 -41.5 17t-15.5 45q0 32 22.5 51.5t53.5 19.5
q34 0 58 -20.5t24 -60.5q0 -32 -14.5 -59t-39.5 -43q78 7 128.5 46t53.5 133q24 0 36.5 -10z" />
    <glyph glyph-name="uni0E4A" unicode="&#xe4a;" 
d="M-24 855q6 -7 6 -26q0 -46 -18.5 -85.5t-52.5 -63t-77 -23.5q-21 0 -34 5q10 18 16.5 44.5t6.5 50.5q0 67 -52 67q-34 0 -57 -36q-13 19 -27.5 28t-35.5 9q-30 0 -48.5 -19t-18.5 -54q0 -30 13.5 -47.5t35.5 -17.5q18 0 29.5 9.5t11.5 27.5t-9 28.5t-27 10.5q-9 0 -21 -3
l-2 8q0 7 10.5 13.5t25.5 6.5q26 0 42.5 -17.5t16.5 -46.5q0 -31 -21.5 -52t-56.5 -21q-38 0 -64 29t-26 73q0 51 30.5 82t71.5 31q47 0 69 -35q21 34 64 34q39 0 64 -26t25 -74q0 -37 -8 -69q78 24 78 166h19q15 0 21 -7z" />
    <glyph glyph-name="uni0E4B" unicode="&#xe4b;" 
d="M-131 750h-97v42h97v85h49v-85h98v-42h-98v-85h-49v85z" />
    <glyph glyph-name="uni0E4C" unicode="&#xe4c;" 
d="M-231 666.5q-24 23.5 -24 58.5t21 57t58 40q39 19 56.5 29.5t29 25.5t11.5 36h16q11 0 18.5 -5.5t7.5 -14.5q0 -22 -13 -38t-31.5 -26.5t-71.5 -37.5q-30 -15 -44.5 -29t-14.5 -35q0 -22 12.5 -35t34.5 -13q21 0 33.5 13t12.5 34q0 26 -29 41q8 10 20 10q19 0 32.5 -15
t13.5 -40q0 -34 -23 -56.5t-64 -22.5q-38 0 -62 23.5z" />
    <glyph glyph-name="uni0E4D" unicode="&#xe4d;" 
d="M-193.5 678.5q-29.5 29.5 -29.5 75.5q0 45 29.5 74.5t75.5 29.5t75.5 -29t29.5 -75t-29.5 -75.5t-75.5 -29.5t-75.5 29.5zM-73 707.5q17 17.5 17 46.5q0 30 -16.5 47t-45.5 17q-28 0 -44.5 -17t-16.5 -46q0 -30 16.5 -47.5t44.5 -17.5t45 17.5z" />
    <glyph glyph-name="uni0E4E" unicode="&#xe4e;" 
d="M-151.5 892.5q-22.5 -10.5 -22.5 -30.5q0 -17 18.5 -25t63.5 -8q4 0 4 -6q0 -8 -7 -18.5t-15 -10.5l-31 1q-36 0 -60.5 -18.5t-24.5 -52.5q0 -22 12.5 -33.5t31.5 -11.5q17 0 27.5 10.5t10.5 27.5q0 30 -29 38q1 6 7.5 9.5t15.5 3.5q16 0 29.5 -15t13.5 -38
q0 -31 -22.5 -51t-55.5 -20q-35 0 -58 21t-23 56q0 36 23 61t54 34q-12 7 -19.5 18.5t-7.5 25.5q0 37 36.5 59.5t91.5 22.5q31 0 51 -8t20 -19q0 -12 -10 -24q-33 12 -66 12q-36 0 -58.5 -10.5z" />
    <glyph glyph-name="uni0E4F" unicode="&#xe4f;" horiz-adv-x="700" 
d="M214.5 77q-61.5 35 -97 95t-35.5 132q0 73 35.5 133.5t97 96t135.5 35.5t135.5 -35.5t97 -96t35.5 -133.5q0 -72 -35.5 -132t-97 -95t-135.5 -35t-135.5 35zM460.5 117.5q49.5 28.5 78 77.5t28.5 109q0 61 -28.5 111t-78 79t-110.5 29t-110.5 -29t-78 -79t-28.5 -111
q0 -60 28.5 -109t78 -77.5t110.5 -28.5t110.5 28.5zM288 198q-29 17 -46 46.5t-17 63.5t17 63.5t46 46.5t63 17q53 0 90 -37t37 -90t-37 -90t-90 -37q-34 0 -63 17zM409.5 249q23.5 24 23.5 59q0 36 -23.5 59.5t-58.5 23.5t-57.5 -23.5t-22.5 -59.5q0 -35 23 -59t57 -24
q35 0 58.5 24z" />
    <glyph glyph-name="uni0E50" unicode="&#xe50;" horiz-adv-x="606" 
d="M121.5 51.5q-67.5 63.5 -67.5 178.5t67.5 178.5t181.5 63.5q115 0 182.5 -63.5t67.5 -178.5t-68 -178.5t-182 -63.5t-181.5 63.5zM443.5 81q54.5 48 54.5 149q0 102 -54.5 149.5t-140.5 47.5t-140 -47.5t-54 -149.5q0 -101 54.5 -149t139.5 -48q86 0 140.5 48z" />
    <glyph glyph-name="uni0E51" unicode="&#xe51;" horiz-adv-x="606" 
d="M220 -9q76 1 140 27t103 78.5t39 129.5q0 98 -56.5 148.5t-149.5 50.5q-86 0 -140 -49.5t-54 -131.5q0 -72 36.5 -110.5t92.5 -38.5q47 0 72.5 20t25.5 57q0 22 -11.5 35t-34.5 13q-22 0 -34.5 -12t-12.5 -34q0 -26 23 -45q-7 -5 -17 -5q-19 0 -32.5 16.5t-13.5 40.5
q0 33 24.5 56t62.5 23q41 0 66 -25t25 -64q0 -50 -37.5 -84t-103.5 -34q-79 0 -131 49t-52 146q0 62 30.5 112.5t87 80t129.5 29.5q76 0 134.5 -29.5t91.5 -84.5t33 -130q0 -88 -45 -150.5t-112 -94.5t-130 -32q-46 0 -49 42z" />
    <glyph glyph-name="uni0E52" unicode="&#xe52;" horiz-adv-x="644" 
d="M555 448.5q31 -32.5 31 -87.5v-202q0 -60 -26.5 -97t-84 -54t-153.5 -17q-133 0 -190 44t-57 131v264q0 52 -14 78.5t-53 45.5q12 24 36 24q38 0 59.5 -42.5t21.5 -104.5v-261q0 -49 16.5 -78t59 -43t121.5 -14q82 0 128.5 13t66 39t19.5 68v191q0 43 -17 66t-46 23
q-51 0 -80 -51h-4q-15 25 -34.5 39t-49.5 14q-35 0 -58.5 -27t-23.5 -77q0 -56 22.5 -82t56.5 -26q26 0 40.5 14t14.5 37q0 21 -12 34t-33 13q-30 0 -50 -28q-9 7 -9 20q0 18 18 31.5t48 13.5q33 0 57.5 -23t24.5 -62t-28.5 -65.5t-75.5 -26.5q-51 0 -87 39t-36 108
q0 67 34 109t96 42q53 0 88 -41q16 21 36.5 31t53.5 10q42 0 73 -32.5z" />
    <glyph glyph-name="uni0E53" unicode="&#xe53;" horiz-adv-x="646" 
d="M581 291v-291h-51v291q0 78 -19.5 112.5t-65.5 34.5q-44 0 -68 -33t-24 -90v-315h-50v315q0 60 -22 91.5t-73 31.5q-49 0 -80 -41.5t-31 -136.5v-72q0 -157 76 -157q24 0 37.5 13.5t13.5 35.5t-12 35t-35 13q-25 0 -50 -19q-4 7 -4 15q0 15 16.5 27.5t43.5 12.5
q35 0 58.5 -22.5t23.5 -61.5q0 -38 -24.5 -64t-67.5 -26q-55 0 -90 47t-35 149v74q0 109 45 165t115 56q47 0 76.5 -23t43.5 -56q14 33 43 56t76 23q134 0 134 -190z" />
    <glyph glyph-name="uni0E54" unicode="&#xe54;" horiz-adv-x="613" 
d="M560.5 48.5q18.5 -7.5 18.5 -23.5q0 -14 -7 -29q-34 11 -63.5 15.5t-75.5 4.5q-30 0 -82 -10q-58 -12 -99 -12q-86 0 -144 54.5t-58 181.5q0 137 63.5 192.5t173.5 55.5q26 0 58 -3l47 -2q44 0 70 7t41.5 26t21.5 57q17 0 27 -7.5t10 -21.5q0 -53 -43.5 -80t-115.5 -27
q-28 0 -90 4l-35 2q-176 0 -176 -193q0 -116 46 -159t116 -43q21 0 49 3.5t49 8.5q-38 18 -65.5 57t-27.5 92q0 47 32 78t79 31q41 0 68 -24t27 -62t-22.5 -60.5t-49.5 -22.5q-14 0 -24.5 7.5t-13.5 19.5q32 0 50.5 13.5t18.5 38.5q0 23 -14.5 36t-39.5 13q-29 0 -47 -18.5
t-18 -50.5q0 -65 52 -103.5t135 -38.5q40 0 58.5 -7.5z" />
    <glyph glyph-name="uni0E55" unicode="&#xe55;" horiz-adv-x="613" 
d="M560.5 48.5q18.5 -7.5 18.5 -23.5q0 -14 -7 -29q-34 11 -63.5 15.5t-75.5 4.5q-30 0 -82 -10q-58 -12 -99 -12q-86 0 -144 54.5t-58 181.5q0 72 26.5 115t72 64t112.5 32q-19 25 -19 56q0 37 25.5 61t63.5 24q36 0 61 -21.5t25 -56.5q0 -51 -41 -75q7 -1 21 -1
q61 0 94 37.5t34 107.5q26 0 35 -11t9 -32q0 -32 -19 -65t-58.5 -55.5t-96.5 -22.5q-54 0 -94 21q-93 -11 -146 -48.5t-53 -119.5q0 -116 46 -159t116 -43q21 0 49 3.5t49 8.5q-38 18 -65.5 57t-27.5 92q0 47 32 78t79 31q41 0 68 -24.5t27 -62.5t-22.5 -60t-49.5 -22
q-14 0 -24.5 7.5t-13.5 19.5q32 0 50.5 13t18.5 39q0 23 -14.5 36t-39.5 13q-29 0 -47 -18.5t-18 -50.5q0 -66 52 -104t135 -38q40 0 58.5 -7.5zM297.5 531.5q-13.5 -12.5 -13.5 -33.5q0 -34 26 -50q34 5 49 18t15 37q0 19 -11.5 30t-30.5 11q-21 0 -34.5 -12.5z" />
    <glyph glyph-name="uni0E56" unicode="&#xe56;" horiz-adv-x="588" 
d="M481.5 399q55.5 -63 55.5 -175q0 -69 -27.5 -121t-78.5 -81t-120 -29q-57 0 -98.5 18.5t-63.5 49t-22 67.5q0 45 29 72t70 27t67 -25t26 -62q0 -32 -16 -50.5t-39 -18.5q-17 0 -24 9q38 17 38 53q0 26 -14 40t-38 14t-39.5 -14.5t-15.5 -41.5q0 -45 37.5 -69t103.5 -24
q79 0 126 46t47 140q0 193 -170 193q-96 0 -146 -77h-40q-4 75 -32.5 124t-78.5 89q13 25 36 25q27 0 50.5 -27.5t39.5 -69t21 -81.5q56 62 156 62q105 0 160.5 -63z" />
    <glyph glyph-name="uni0E57" unicode="&#xe57;" horiz-adv-x="714" 
d="M597 532q26 -31 43 -89.5t17 -136.5q0 -128 -59.5 -204t-144.5 -107l-30 16q31 91 31 216q0 97 -22 144t-62 47q-62 0 -85 -81h-7q-13 40 -33 60.5t-53 20.5q-42 0 -67.5 -48t-25.5 -135q0 -104 28.5 -154t72.5 -50q27 0 41.5 13.5t14.5 38.5q0 20 -13 33t-38 13
q-30 0 -52 -24q-4 5 -4 15q0 18 17.5 32.5t46.5 14.5q35 0 60 -22.5t25 -61.5q0 -41 -27 -66.5t-71 -25.5q-63 0 -106.5 54t-43.5 190q0 74 19.5 125t52.5 76.5t74 25.5q30 0 53 -14t33 -39q12 25 37 38.5t59 13.5q127 0 127 -234q0 -52 -6.5 -97.5t-18.5 -75.5
q57 30 91.5 92.5t34.5 159.5q0 82 -28 144t-71 92q10 21 37 21t53 -31z" />
    <glyph glyph-name="uni0E58" unicode="&#xe58;" horiz-adv-x="608" 
d="M546 235q29 -29 29 -83q0 -73 -41.5 -115.5t-105.5 -42.5q-34 0 -55.5 8t-39.5 20q-15 10 -24 10q-4 0 -18 -9q-22 -13 -42 -21t-49 -8q-79 0 -115.5 57.5t-36.5 171.5q0 129 62.5 182t147.5 53q28 0 82 -2l81 -1q98 0 105 122q19 0 30 -10.5t11 -28.5q0 -56 -38.5 -92.5
t-106.5 -36.5q-25 0 -75 2q-39 3 -82 3q-71 0 -118 -43.5t-47 -143.5q0 -101 26 -144.5t79 -43.5q41 0 78 24q-17 16 -25 37t-8 42q0 10 13.5 21.5t23.5 11.5q5 0 5 -5q0 -60 38 -97t92 -37q51 0 78.5 29t27.5 86q0 75 -59 75q-23 0 -36 -11t-13 -32q0 -22 13 -34.5
t36 -12.5q14 0 31 5q0 -16 -12 -26t-34 -10q-30 0 -52.5 20t-22.5 57q0 38 25.5 60t63.5 22q49 0 78 -29z" />
    <glyph glyph-name="uni0E59" unicode="&#xe59;" horiz-adv-x="590" 
d="M388 287l130 -287h-51l-121 269q-25 55 -41.5 84t-37.5 46.5t-50 17.5q-61 0 -88.5 -52.5t-27.5 -157.5q0 -83 23.5 -128t70.5 -45q27 0 41.5 14t14.5 38t-13.5 38.5t-37.5 14.5q-14 0 -29.5 -5t-26.5 -13q-2 8 -2 11q0 19 19.5 31.5t45.5 12.5q38 0 62.5 -24t24.5 -66
q0 -41 -28.5 -67.5t-72.5 -26.5q-63 0 -103 56t-40 157q0 122 41 188t125 66q59 0 101 -50q13 24 34 38.5t48 14.5t49 -13t33 -35q17 40 17 80q0 50 -23 75q11 8 28 8q21 0 34 -16.5t13 -53.5q0 -46 -12 -82.5t-29 -57.5t-29 -21q-13 0 -17.5 3t-6.5 14q-7 28 -20.5 42.5
t-37.5 14.5q-37 0 -55 -45q16 -26 45 -88z" />
    <glyph glyph-name="uni0E5A" unicode="&#xe5a;" horiz-adv-x="592" 
d="M364 561q0 -6 -1 -22t-1 -34v-505h-53l1 443q-21 -32 -55.5 -52t-83.5 -20q-59 0 -96.5 32.5t-37.5 84.5q0 41 26.5 67.5t65.5 26.5q38 0 60 -21t22 -60q0 -26 -15 -42t-35 -16q-7 0 -13 3t-8 8q13 3 23 15t10 31q0 21 -11.5 32t-32.5 11q-22 0 -35.5 -14.5t-13.5 -38.5
q0 -36 24.5 -56.5t71.5 -20.5q59 0 95 36.5t39 104.5l1 22h39q14 0 14 -15zM487.5 568q3.5 -8 3.5 -34v-534h-51l-3 576h31q16 0 19.5 -8z" />
    <glyph glyph-name="uni0E5B" unicode="&#xe5b;" horiz-adv-x="1132" 
d="M906 386q38 -46 58.5 -65t47.5 -28t76 -9v-6q-25 -23 -65 -23q-34 0 -66 21t-59 62q-6 -40 -25.5 -86.5t-39.5 -71.5h-14q-15 49 -34.5 95t-39.5 78q-5 -46 -24 -103t-43 -97h-16q-11 70 -32.5 127.5t-43.5 82.5q0 -107 -31.5 -185t-90 -119t-138.5 -41q-105 0 -165.5 72
t-60.5 195q0 127 51.5 196t146.5 69q78 0 123.5 -50.5t45.5 -160.5q0 -73 -36.5 -111.5t-87.5 -38.5q-39 0 -69 27t-30 67q0 43 23.5 66.5t61.5 23.5q29 0 44 -14t15 -36q-8 6 -22.5 10.5t-26.5 4.5q-24 0 -37.5 -14t-13.5 -37t14.5 -38.5t39.5 -15.5q36 0 56 25.5t20 80.5
q0 87 -30.5 127.5t-83.5 40.5q-72 0 -113 -58t-41 -172q0 -67 23.5 -115.5t63.5 -73.5t89 -25q68 0 117 40.5t74.5 111t25.5 159.5q0 54 -6 79h20q47 -35 80.5 -87t42.5 -113q31 99 31 179h18q41 -36 63.5 -76t41.5 -98q14 27 24 75t10 79h17q10 -11 21 -26z" />
    <glyph glyph-name="uni1E0C" unicode="&#x1e0c;" horiz-adv-x="672" 
d="M531.5 609.5q83.5 -90.5 83.5 -259.5q0 -108 -38.5 -187t-111 -121t-172.5 -42h-207v700h207q155 0 238.5 -90.5zM488 128q68 78 68 221q0 149 -66.5 225t-196.5 76h-150v-600h150q127 0 195 78zM305 -152q-10 10 -10 28v7q0 19 10 28.5t28 9.5h6q38 0 38 -38v-7
q0 -18 -9.5 -28t-28.5 -10h-6q-18 0 -28 10z" />
    <glyph glyph-name="uni1E0D" unicode="&#x1e0d;" horiz-adv-x="598" 
d="M521 8q-19 -12 -35 -12q-27 0 -33 68q-62 -74 -175 -74q-109 0 -171 75.5t-62 207.5q0 135 65.5 211t181.5 76q42 0 86 -14t74 -37v282h55v-663q0 -80 14 -120zM452 121v333q-32 29 -74 45t-86 16q-90 0 -140.5 -64t-50.5 -178q0 -112 48 -174t134 -62q105 0 169 84z
M268 -152q-10 10 -10 28v7q0 19 10 28.5t28 9.5h6q38 0 38 -38v-7q0 -18 -9.5 -28t-28.5 -10h-6q-18 0 -28 10z" />
    <glyph glyph-name="uni1E0E" unicode="&#x1e0e;" horiz-adv-x="672" 
d="M531.5 609.5q83.5 -90.5 83.5 -259.5q0 -108 -38.5 -187t-111 -121t-172.5 -42h-207v700h207q155 0 238.5 -90.5zM488 128q68 78 68 221q0 149 -66.5 225t-196.5 76h-150v-600h150q127 0 195 78zM173 -81h326v-49h-326v49z" />
    <glyph glyph-name="uni1E0F" unicode="&#x1e0f;" horiz-adv-x="598" 
d="M521 8q-19 -12 -35 -12q-27 0 -33 68q-62 -74 -175 -74q-109 0 -171 75.5t-62 207.5q0 135 65.5 211t181.5 76q42 0 86 -14t74 -37v282h55v-663q0 -80 14 -120zM452 121v333q-32 29 -74 45t-86 16q-90 0 -140.5 -64t-50.5 -178q0 -112 48 -174t134 -62q105 0 169 84z
M136 -81h326v-49h-326v49z" />
    <glyph glyph-name="uni1E20" unicode="&#x1e20;" horiz-adv-x="666" 
d="M604 368v-295q-37 -38 -98.5 -60.5t-128.5 -22.5q-151 0 -233 93.5t-82 266.5q0 171 83 265.5t232 94.5q72 0 131.5 -23t92.5 -64q-6 -13 -15 -21t-19 -8q-14 0 -28 11q-35 28 -74.5 41t-88.5 13q-124 0 -189.5 -79.5t-65.5 -229.5q0 -151 65 -229.5t190 -78.5
q55 0 100.5 15t70.5 42v218h-159q-19 0 -26.5 11.5t-7.5 39.5h250zM214 813h326v-49h-326v49z" />
    <glyph glyph-name="uni1E21" unicode="&#x1e21;" horiz-adv-x="585" 
d="M556 571.5q8 -7.5 8 -26.5q0 -10 -1 -15q-78 0 -111 -27q48 -48 48 -127q0 -192 -221 -192q-75 0 -107.5 -10t-32.5 -34q0 -28 36 -38.5t129 -10.5q118 0 180 -35t62 -102q0 -79 -63.5 -117.5t-193.5 -38.5q-115 0 -177 36.5t-62 105.5q0 44 27 74.5t78 44.5v3
q-30 7 -47.5 27t-17.5 48t20.5 47t57.5 25q-45 24 -70.5 64t-25.5 91q0 196 226 196q71 0 121 -31q26 23 55.5 36.5t55.5 13.5q18 0 26 -7.5zM405 264.5q38 33.5 38 107.5q0 73 -38.5 108t-119.5 35q-157 0 -157 -143q0 -68 40.5 -104.5t116.5 -36.5q82 0 120 33.5z
M443.5 20q-45.5 22 -150.5 22q-96 0 -141 -22.5t-45 -71.5q0 -53 44.5 -78t137.5 -25q104 0 152 24.5t48 78.5q0 50 -45.5 72zM130 703h326v-49h-326v49z" />
    <glyph glyph-name="uni1E24" unicode="&#x1e24;" horiz-adv-x="680" 
d="M594 700v-700h-58v340h-392v-340h-58v700h58v-311h392v311h58zM309 -152q-10 10 -10 28v7q0 19 10 28.5t28 9.5h6q38 0 38 -38v-7q0 -18 -9.5 -28t-28.5 -10h-6q-18 0 -28 10z" />
    <glyph glyph-name="uni1E25" unicode="&#x1e25;" horiz-adv-x="630" 
d="M487.5 510q51.5 -50 51.5 -134v-376h-55v369q0 70 -36 107t-104 37q-47 0 -100.5 -20.5t-97.5 -54.5v-438h-55v791h55v-299q98 68 204 68q86 0 137.5 -50zM284 -152q-10 10 -10 28v7q0 19 10 28.5t28 9.5h6q38 0 38 -38v-7q0 -18 -9.5 -28t-28.5 -10h-6q-18 0 -28 10z
" />
    <glyph glyph-name="uni1E2A" unicode="&#x1e2a;" horiz-adv-x="680" 
d="M594 700v-700h-58v340h-392v-340h-58v700h58v-311h392v311h58zM255.5 -186.5q-34.5 15.5 -51 40t-16.5 50.5q0 15 10.5 23.5t28.5 8.5q5 -46 33 -72t79 -26t79 28t34 75q18 0 28.5 -9t10.5 -27q0 -44 -41 -75.5t-111 -31.5q-49 0 -83.5 15.5z" />
    <glyph glyph-name="uni1E2B" unicode="&#x1e2b;" horiz-adv-x="630" 
d="M487.5 510q51.5 -50 51.5 -134v-376h-55v369q0 70 -36 107t-104 37q-47 0 -100.5 -20.5t-97.5 -54.5v-438h-55v791h55v-299q98 68 204 68q86 0 137.5 -50zM230.5 -186.5q-34.5 15.5 -51 40t-16.5 50.5q0 15 10.5 23.5t28.5 8.5q5 -46 33 -72t79 -26t79 28t34 75
q18 0 28.5 -9t10.5 -27q0 -44 -41 -75.5t-111 -31.5q-49 0 -83.5 15.5z" />
    <glyph glyph-name="uni1E36" unicode="&#x1e36;" horiz-adv-x="513" 
d="M498 49v-49h-412v700h57v-651h355zM261 -152q-10 10 -10 28v7q0 19 10 28.5t28 9.5h6q38 0 38 -38v-7q0 -18 -9.5 -28t-28.5 -10h-6q-18 0 -28 10z" />
    <glyph glyph-name="uni1E37" unicode="&#x1e37;" horiz-adv-x="269" 
d="M107 791h55v-791h-55v791zM103 -152q-10 10 -10 28v7q0 19 10 28.5t28 9.5h6q38 0 38 -38v-7q0 -18 -9.5 -28t-28.5 -10h-6q-18 0 -28 10z" />
    <glyph glyph-name="uni1E38" unicode="&#x1e38;" horiz-adv-x="513" 
d="M498 49v-49h-412v700h57v-651h355zM261 -152q-10 10 -10 28v7q0 19 10 28.5t28 9.5h6q38 0 38 -38v-7q0 -18 -9.5 -28t-28.5 -10h-6q-18 0 -28 10zM-48 813h326v-49h-326v49z" />
    <glyph glyph-name="uni1E39" unicode="&#x1e39;" horiz-adv-x="269" 
d="M107 791h55v-791h-55v791zM103 -152q-10 10 -10 28v7q0 19 10 28.5t28 9.5h6q38 0 38 -38v-7q0 -18 -9.5 -28t-28.5 -10h-6q-18 0 -28 10zM-29 903h326v-49h-326v49z" />
    <glyph glyph-name="uni1E3A" unicode="&#x1e3a;" horiz-adv-x="513" 
d="M498 49v-49h-412v700h57v-651h355zM129 -81h326v-49h-326v49z" />
    <glyph glyph-name="uni1E3B" unicode="&#x1e3b;" horiz-adv-x="269" 
d="M107 791h55v-791h-55v791zM-29 -81h326v-49h-326v49z" />
    <glyph glyph-name="uni1E42" unicode="&#x1e42;" horiz-adv-x="829" 
d="M696 0q-14 360 -59 619q-54 -115 -97 -231.5t-104 -312.5h-42q-53 171 -97 289.5t-105 251.5q-45 -261 -59 -616h-57q17 428 75 700h60q72 -149 118 -265.5t86 -245.5q39 128 85.5 244.5t117.5 266.5h60q58 -272 75 -700h-57zM384 -152q-10 10 -10 28v7q0 19 10 28.5
t28 9.5h6q38 0 38 -38v-7q0 -18 -9.5 -28t-28.5 -10h-6q-18 0 -28 10z" />
    <glyph glyph-name="uni1E43" unicode="&#x1e43;" horiz-adv-x="912" 
d="M775 515.5q46 -44.5 46 -120.5v-395h-55v392q0 123 -124 123q-44 0 -86 -20t-77 -58q3 -18 3 -38v-399h-55v397q0 58 -27.5 88t-80.5 30q-93 0 -173 -83v-432h-55v388q0 76 -2.5 108.5t-9.5 42.5q23 15 41 15q26 0 26 -63v-4q79 73 180 73q47 0 82.5 -20.5t54.5 -57.5
q78 78 188 78q78 0 124 -44.5zM425 -152q-10 10 -10 28v7q0 19 10 28.5t28 9.5h6q38 0 38 -38v-7q0 -18 -9.5 -28t-28.5 -10h-6q-18 0 -28 10z" />
    <glyph glyph-name="uni1E44" unicode="&#x1e44;" horiz-adv-x="690" 
d="M602 64q2 -28 2 -37q0 -27 -26 -27h-35v64q0 28 -7.5 49.5t-26.5 45.5l-366 463v-622h-57v700h47q10 0 16 -3t14 -13l380 -481v497h57v-563q0 -31 2 -73zM313 779q-10 10 -10 28v8q0 18 10 27.5t28 9.5h7q37 0 37 -37v-8q0 -18 -9.5 -28t-27.5 -10h-7q-18 0 -28 10z" />
    <glyph glyph-name="uni1E45" unicode="&#x1e45;" horiz-adv-x="610" 
d="M523 45.5q3 -21.5 12 -38.5q-8 -5 -18.5 -8.5t-20.5 -3.5q-17 0 -24 24t-7 83v271q0 74 -29.5 108.5t-93.5 34.5q-49 0 -100 -24t-97 -68v-424h-55v388q0 76 -2.5 108.5t-9.5 42.5q23 15 41 15q14 0 20 -15t6 -48v-11q95 80 204 80q86 0 128.5 -46.5t42.5 -141.5v-254
q0 -51 3 -72.5zM274 669q-10 10 -10 28v8q0 18 10 27.5t28 9.5h7q37 0 37 -37v-8q0 -18 -9.5 -28t-27.5 -10h-7q-18 0 -28 10z" />
    <glyph glyph-name="uni1E46" unicode="&#x1e46;" horiz-adv-x="690" 
d="M602 64q2 -28 2 -37q0 -27 -26 -27h-35v64q0 28 -7.5 49.5t-26.5 45.5l-366 463v-622h-57v700h47q10 0 16 -3t14 -13l380 -481v497h57v-563q0 -31 2 -73zM312 -152q-10 10 -10 28v7q0 19 10 28.5t28 9.5h6q38 0 38 -38v-7q0 -18 -9.5 -28t-28.5 -10h-6q-18 0 -28 10z" />
    <glyph glyph-name="uni1E47" unicode="&#x1e47;" horiz-adv-x="610" 
d="M523 45.5q3 -21.5 12 -38.5q-8 -5 -18.5 -8.5t-20.5 -3.5q-17 0 -24 24t-7 83v271q0 74 -29.5 108.5t-93.5 34.5q-49 0 -100 -24t-97 -68v-424h-55v388q0 76 -2.5 108.5t-9.5 42.5q23 15 41 15q14 0 20 -15t6 -48v-11q95 80 204 80q86 0 128.5 -46.5t42.5 -141.5v-254
q0 -51 3 -72.5zM274 -152q-10 10 -10 28v7q0 19 10 28.5t28 9.5h6q38 0 38 -38v-7q0 -18 -9.5 -28t-28.5 -10h-6q-18 0 -28 10z" />
    <glyph glyph-name="uni1E48" unicode="&#x1e48;" horiz-adv-x="690" 
d="M602 64q2 -28 2 -37q0 -27 -26 -27h-35v64q0 28 -7.5 49.5t-26.5 45.5l-366 463v-622h-57v700h47q10 0 16 -3t14 -13l380 -481v497h57v-563q0 -31 2 -73zM181 -81h326v-49h-326v49z" />
    <glyph glyph-name="uni1E49" unicode="&#x1e49;" horiz-adv-x="610" 
d="M523 45.5q3 -21.5 12 -38.5q-8 -5 -18.5 -8.5t-20.5 -3.5q-17 0 -24 24t-7 83v271q0 74 -29.5 108.5t-93.5 34.5q-49 0 -100 -24t-97 -68v-424h-55v388q0 76 -2.5 108.5t-9.5 42.5q23 15 41 15q14 0 20 -15t6 -48v-11q95 80 204 80q86 0 128.5 -46.5t42.5 -141.5v-254
q0 -51 3 -72.5zM142 -81h326v-49h-326v49z" />
    <glyph glyph-name="uni1E5A" unicode="&#x1e5a;" horiz-adv-x="629" 
d="M585 3q-14 -11 -35 -11q-14 0 -23 6t-20 24l-119 195q-28 46 -61.5 63t-94.5 17h-89v-297h-57v700h227q124 0 191.5 -52.5t67.5 -149.5q0 -79 -51 -133.5t-135 -65.5q32 -25 55 -61zM308 347q99 0 151.5 39t52.5 112q0 151 -199 151h-170v-302h165zM284 -152
q-10 10 -10 28v7q0 19 10 28.5t28 9.5h6q38 0 38 -38v-7q0 -18 -9.5 -28t-28.5 -10h-6q-18 0 -28 10z" />
    <glyph glyph-name="uni1E5B" unicode="&#x1e5b;" horiz-adv-x="400" 
d="M358.5 546.5q19.5 -10.5 19.5 -29.5q0 -17 -11 -25q-23 14 -67 14q-46 0 -82.5 -26t-57 -71.5t-20.5 -103.5v-305h-55v550h55v-103q25 48 70 79t95 31q34 0 53.5 -10.5zM88 -152q-10 10 -10 28v7q0 19 10 28.5t28 9.5h6q38 0 38 -38v-7q0 -18 -9.5 -28t-28.5 -10h-6
q-18 0 -28 10z" />
    <glyph glyph-name="uni1E5C" unicode="&#x1e5c;" horiz-adv-x="629" 
d="M585 3q-14 -11 -35 -11q-14 0 -23 6t-20 24l-119 195q-28 46 -61.5 63t-94.5 17h-89v-297h-57v700h227q124 0 191.5 -52.5t67.5 -149.5q0 -79 -51 -133.5t-135 -65.5q32 -25 55 -61zM308 347q99 0 151.5 39t52.5 112q0 151 -199 151h-170v-302h165zM284 -152
q-10 10 -10 28v7q0 19 10 28.5t28 9.5h6q38 0 38 -38v-7q0 -18 -9.5 -28t-28.5 -10h-6q-18 0 -28 10zM150 813h326v-49h-326v49z" />
    <glyph glyph-name="uni1E5D" unicode="&#x1e5d;" horiz-adv-x="400" 
d="M358.5 546.5q19.5 -10.5 19.5 -29.5q0 -17 -11 -25q-23 14 -67 14q-46 0 -82.5 -26t-57 -71.5t-20.5 -103.5v-305h-55v550h55v-103q25 48 70 79t95 31q34 0 53.5 -10.5zM88 -152q-10 10 -10 28v7q0 19 10 28.5t28 9.5h6q38 0 38 -38v-7q0 -18 -9.5 -28t-28.5 -10h-6
q-18 0 -28 10zM37 703h326v-49h-326v49z" />
    <glyph glyph-name="uni1E5E" unicode="&#x1e5e;" horiz-adv-x="629" 
d="M585 3q-14 -11 -35 -11q-14 0 -23 6t-20 24l-119 195q-28 46 -61.5 63t-94.5 17h-89v-297h-57v700h227q124 0 191.5 -52.5t67.5 -149.5q0 -79 -51 -133.5t-135 -65.5q32 -25 55 -61zM308 347q99 0 151.5 39t52.5 112q0 151 -199 151h-170v-302h165zM152 -81h326v-49h-326
v49z" />
    <glyph glyph-name="uni1E5F" unicode="&#x1e5f;" horiz-adv-x="400" 
d="M358.5 546.5q19.5 -10.5 19.5 -29.5q0 -17 -11 -25q-23 14 -67 14q-46 0 -82.5 -26t-57 -71.5t-20.5 -103.5v-305h-55v550h55v-103q25 48 70 79t95 31q34 0 53.5 -10.5zM-44 -81h326v-49h-326v49z" />
    <glyph glyph-name="uni1E60" unicode="&#x1e60;" horiz-adv-x="642" 
d="M197 11.5q-59 21.5 -93.5 58.5t-34.5 80q0 16 10.5 25.5t29.5 10.5q14 -68 71.5 -107t146.5 -39q90 0 144.5 40t54.5 105q0 41 -19.5 69t-64 48.5t-122.5 37.5q-124 29 -177.5 73t-53.5 116q0 84 62 132.5t170 48.5q94 0 159 -43.5t87 -121.5q-9 -11 -30 -11
q-12 0 -20.5 6t-15.5 21q-24 49 -70 75t-110 26q-86 0 -130 -33.5t-44 -99.5q0 -34 17 -58t56.5 -42.5t108.5 -36.5q101 -26 155.5 -52t77.5 -60.5t23 -88.5q0 -93 -69.5 -147t-190.5 -54q-69 0 -128 21.5zM290 779q-10 10 -10 28v8q0 18 10 27.5t28 9.5h7q37 0 37 -37v-8
q0 -18 -9.5 -28t-27.5 -10h-7q-18 0 -28 10z" />
    <glyph glyph-name="uni1E61" unicode="&#x1e61;" horiz-adv-x="485" 
d="M145 5.5q-47 15.5 -76 40.5t-29 52q0 12 7.5 21t18.5 11q30 -47 71.5 -70.5t109.5 -23.5q67 0 105 30t38 83q0 34 -20.5 55t-51 32.5t-82.5 24.5q-59 15 -95.5 29t-62 43.5t-25.5 77.5q0 50 27 83.5t69 49.5t89 16q64 0 112.5 -26.5t79.5 -76.5q-11 -11 -18.5 -15.5
t-15.5 -4.5q-12 0 -23 14q-26 32 -57.5 48t-78.5 16q-57 0 -93 -25t-36 -76q0 -32 20 -52.5t49.5 -31.5t79.5 -23q61 -16 98.5 -31t63.5 -45.5t26 -81.5q0 -73 -54.5 -116t-147.5 -43q-51 0 -98 15.5zM212 669q-10 10 -10 28v8q0 18 10 27.5t28 9.5h7q37 0 37 -37v-8
q0 -18 -9.5 -28t-27.5 -10h-7q-18 0 -28 10z" />
    <glyph glyph-name="uni1E62" unicode="&#x1e62;" horiz-adv-x="642" 
d="M197 11.5q-59 21.5 -93.5 58.5t-34.5 80q0 16 10.5 25.5t29.5 10.5q14 -68 71.5 -107t146.5 -39q90 0 144.5 40t54.5 105q0 41 -19.5 69t-64 48.5t-122.5 37.5q-124 29 -177.5 73t-53.5 116q0 84 62 132.5t170 48.5q94 0 159 -43.5t87 -121.5q-9 -11 -30 -11
q-12 0 -20.5 6t-15.5 21q-24 49 -70 75t-110 26q-86 0 -130 -33.5t-44 -99.5q0 -34 17 -58t56.5 -42.5t108.5 -36.5q101 -26 155.5 -52t77.5 -60.5t23 -88.5q0 -93 -69.5 -147t-190.5 -54q-69 0 -128 21.5zM290 -152q-10 10 -10 28v7q0 19 10 28.5t28 9.5h6q38 0 38 -38v-7
q0 -18 -9.5 -28t-28.5 -10h-6q-18 0 -28 10z" />
    <glyph glyph-name="uni1E63" unicode="&#x1e63;" horiz-adv-x="485" 
d="M145 5.5q-47 15.5 -76 40.5t-29 52q0 12 7.5 21t18.5 11q30 -47 71.5 -70.5t109.5 -23.5q67 0 105 30t38 83q0 34 -20.5 55t-51 32.5t-82.5 24.5q-59 15 -95.5 29t-62 43.5t-25.5 77.5q0 50 27 83.5t69 49.5t89 16q64 0 112.5 -26.5t79.5 -76.5q-11 -11 -18.5 -15.5
t-15.5 -4.5q-12 0 -23 14q-26 32 -57.5 48t-78.5 16q-57 0 -93 -25t-36 -76q0 -32 20 -52.5t49.5 -31.5t79.5 -23q61 -16 98.5 -31t63.5 -45.5t26 -81.5q0 -73 -54.5 -116t-147.5 -43q-51 0 -98 15.5zM212 -152q-10 10 -10 28v7q0 19 10 28.5t28 9.5h6q38 0 38 -38v-7
q0 -18 -9.5 -28t-28.5 -10h-6q-18 0 -28 10z" />
    <glyph glyph-name="uni1E6C" unicode="&#x1e6c;" horiz-adv-x="534" 
d="M523 679q0 -29 -31 -29h-194v-650h-57v650h-226v50h504q4 -14 4 -21zM238 -152q-10 10 -10 28v7q0 19 10 28.5t28 9.5h6q38 0 38 -38v-7q0 -18 -9.5 -28t-28.5 -10h-6q-18 0 -28 10z" />
    <glyph glyph-name="uni1E6D" unicode="&#x1e6d;" horiz-adv-x="374" 
d="M356 31q0 -17 -14 -25q-31 -16 -88 -16q-62 0 -100 37.5t-38 98.5v379h-104v45h104v150h55v-150h157v-45h-157v-368q0 -49 22 -74t63 -25q46 0 86 19q14 -8 14 -26zM218 -152q-10 10 -10 28v7q0 19 10 28.5t28 9.5h6q38 0 38 -38v-7q0 -18 -9.5 -28t-28.5 -10h-6
q-18 0 -28 10z" />
    <glyph glyph-name="uni1E6E" unicode="&#x1e6e;" horiz-adv-x="534" 
d="M523 679q0 -29 -31 -29h-194v-650h-57v650h-226v50h504q4 -14 4 -21zM106 -81h326v-49h-326v49z" />
    <glyph glyph-name="uni1E6F" unicode="&#x1e6f;" horiz-adv-x="374" 
d="M356 31q0 -17 -14 -25q-31 -16 -88 -16q-62 0 -100 37.5t-38 98.5v379h-104v45h104v150h55v-150h157v-45h-157v-368q0 -49 22 -74t63 -25q46 0 86 19q14 -8 14 -26zM86 -81h326v-49h-326v49z" />
    <glyph glyph-name="Wgrave" unicode="&#x1e80;" horiz-adv-x="856" 
d="M841 700q-22 -149 -63.5 -307t-121.5 -393h-62q-73 244 -106.5 361.5t-54.5 210.5q-24 -104 -59.5 -230.5t-101.5 -341.5h-62q-80 224 -125 385t-70 315h57q41 -253 168 -622q44 131 83.5 271.5t91.5 350.5h32q67 -249 104.5 -379t74.5 -242q123 363 162 621h53zM326 893
h64l102 -151h-56z" />
    <glyph glyph-name="wgrave" unicode="&#x1e81;" horiz-adv-x="760" 
d="M724 550q-41 -293 -161 -550h-47q-53 114 -86.5 216t-51.5 207q-18 -106 -50.5 -208t-83.5 -215h-49q-60 125 -99.5 259t-62.5 291h57q16 -131 48 -247t84 -228q94 206 131 475h52q41 -276 136 -477q102 234 124 477h59zM275 783h64l102 -151h-56z" />
    <glyph glyph-name="Wacute" unicode="&#x1e82;" horiz-adv-x="856" 
d="M841 700q-22 -149 -63.5 -307t-121.5 -393h-62q-73 244 -106.5 361.5t-54.5 210.5q-24 -104 -59.5 -230.5t-101.5 -341.5h-62q-80 224 -125 385t-70 315h57q41 -253 168 -622q44 131 83.5 271.5t91.5 350.5h32q67 -249 104.5 -379t74.5 -242q123 363 162 621h53zM488 893
h65l-117 -151h-55z" />
    <glyph glyph-name="wacute" unicode="&#x1e83;" horiz-adv-x="760" 
d="M724 550q-41 -293 -161 -550h-47q-53 114 -86.5 216t-51.5 207q-18 -106 -50.5 -208t-83.5 -215h-49q-60 125 -99.5 259t-62.5 291h57q16 -131 48 -247t84 -228q94 206 131 475h52q41 -276 136 -477q102 234 124 477h59zM437 783h65l-117 -151h-55z" />
    <glyph glyph-name="Wdieresis" unicode="&#x1e84;" horiz-adv-x="856" 
d="M841 700q-22 -149 -63.5 -307t-121.5 -393h-62q-73 244 -106.5 361.5t-54.5 210.5q-24 -104 -59.5 -230.5t-101.5 -341.5h-62q-80 224 -125 385t-70 315h57q41 -253 168 -622q44 131 83.5 271.5t91.5 350.5h32q67 -249 104.5 -379t74.5 -242q123 363 162 621h53zM307 773
q-10 10 -10 28v8q0 18 10 27.5t28 9.5h7q37 0 37 -37v-8q0 -18 -9.5 -28t-27.5 -10h-7q-18 0 -28 10zM495 773q-10 10 -10 28v8q0 18 10 27.5t28 9.5h7q37 0 37 -37v-8q0 -18 -9.5 -28t-27.5 -10h-7q-18 0 -28 10z" />
    <glyph glyph-name="wdieresis" unicode="&#x1e85;" horiz-adv-x="760" 
d="M724 550q-41 -293 -161 -550h-47q-53 114 -86.5 216t-51.5 207q-18 -106 -50.5 -208t-83.5 -215h-49q-60 125 -99.5 259t-62.5 291h57q16 -131 48 -247t84 -228q94 206 131 475h52q41 -276 136 -477q102 234 124 477h59zM256 663q-10 10 -10 28v8q0 18 10 27.5t28 9.5h7
q37 0 37 -37v-8q0 -18 -9.5 -28t-27.5 -10h-7q-18 0 -28 10zM444 663q-10 10 -10 28v8q0 18 10 27.5t28 9.5h7q37 0 37 -37v-8q0 -18 -9.5 -28t-27.5 -10h-7q-18 0 -28 10z" />
    <glyph glyph-name="uni1E8E" unicode="&#x1e8e;" horiz-adv-x="590" 
d="M570 700l-246 -406v-294h-57v294l-247 406h63l213 -358l212 358h62zM264 779q-10 10 -10 28v8q0 18 10 27.5t28 9.5h7q37 0 37 -37v-8q0 -18 -9.5 -28t-27.5 -10h-7q-18 0 -28 10z" />
    <glyph glyph-name="uni1E8F" unicode="&#x1e8f;" horiz-adv-x="485" 
d="M474 550l-218 -592q-29 -79 -71 -115t-105 -36q-36 0 -57.5 10t-21.5 27t16 26q10 -7 29 -11.5t40 -4.5q43 0 76 38t58 117l-206 541h58l176 -460l168 460h58zM212 669q-10 10 -10 28v8q0 18 10 27.5t28 9.5h7q37 0 37 -37v-8q0 -18 -9.5 -28t-27.5 -10h-7q-18 0 -28 10z
" />
    <glyph glyph-name="uni1E92" unicode="&#x1e92;" horiz-adv-x="580" 
d="M528 50v-50h-474v50l403 600h-405v50h468v-49l-397 -601h405zM259 -152q-10 10 -10 28v7q0 19 10 28.5t28 9.5h6q38 0 38 -38v-7q0 -18 -9.5 -28t-28.5 -10h-6q-18 0 -28 10z" />
    <glyph glyph-name="uni1E93" unicode="&#x1e93;" horiz-adv-x="500" 
d="M470 48v-48h-440v38l359 465h-333v47h406v-36l-357 -466h365zM219 -152q-10 10 -10 28v7q0 19 10 28.5t28 9.5h6q38 0 38 -38v-7q0 -18 -9.5 -28t-28.5 -10h-6q-18 0 -28 10z" />
    <glyph glyph-name="uni1E97" unicode="&#x1e97;" horiz-adv-x="374" 
d="M356 31q0 -17 -14 -25q-31 -16 -88 -16q-62 0 -100 37.5t-38 98.5v379h-104v45h104v150h55v-150h157v-45h-157v-368q0 -49 22 -74t63 -25q46 0 86 19q14 -8 14 -26zM26 773q-10 10 -10 28v8q0 18 10 27.5t28 9.5h7q37 0 37 -37v-8q0 -18 -9.5 -28t-27.5 -10h-7
q-18 0 -28 10zM214 773q-10 10 -10 28v8q0 18 10 27.5t28 9.5h7q37 0 37 -37v-8q0 -18 -9.5 -28t-27.5 -10h-7q-18 0 -28 10z" />
    <glyph glyph-name="uni1E9E" unicode="&#x1e9e;" horiz-adv-x="700" 
d="M569 333.5q57 -48.5 57 -139.5q0 -65 -30 -111t-82 -69.5t-116 -23.5q-43 0 -84 11.5t-63 29.5q-15 12 -15 32q0 10 5 17.5t14 9.5q66 -50 147 -50q75 0 120 40t45 113q0 78 -51 115.5t-137 37.5q-17 0 -27.5 12.5t-10.5 29.5l178 162q-16 51 -63.5 79.5t-125.5 28.5
q-53 0 -96 -23.5t-68 -66.5t-25 -99v-469h-57v469q0 73 34 127.5t91 83t124 28.5t121 -22.5t87.5 -60.5t44.5 -86l-164 -147q90 -10 147 -58.5z" />
    <glyph glyph-name="uni1EA0" unicode="&#x1ea0;" horiz-adv-x="620" 
d="M497 203h-373q-30 -102 -50 -203h-59q45 207 109.5 375t158.5 325h55q94 -156 158 -324t109 -376h-59q-22 112 -49 203zM482 253q-69 217 -172 387q-101 -166 -171 -387h343zM279 -152q-10 10 -10 28v7q0 19 10 28.5t28 9.5h6q38 0 38 -38v-7q0 -18 -9.5 -28t-28.5 -10
h-6q-18 0 -28 10z" />
    <glyph glyph-name="uni1EA1" unicode="&#x1ea1;" horiz-adv-x="558" 
d="M483.5 60.5q7.5 -25.5 26.5 -43.5q-5 -9 -16 -15.5t-21 -6.5q-21 0 -34.5 26.5t-16.5 70.5q-34 -47 -90 -74.5t-119 -27.5q-72 0 -117.5 40.5t-45.5 104.5q0 93 94 145.5t277 60.5v32q0 141 -143 141q-50 0 -92.5 -19t-83.5 -61q-5 -5 -14 -5t-19 7t-18 20q43 50 103 77
t127 27q92 0 143.5 -49.5t51.5 -137.5v-241q0 -46 7.5 -71.5zM329 68.5q53 32.5 92 91.5v135q-159 -7 -237 -46t-78 -113q0 -47 30 -73.5t82 -26.5q58 0 111 32.5zM248 -152q-10 10 -10 28v7q0 19 10 28.5t28 9.5h6q38 0 38 -38v-7q0 -18 -9.5 -28t-28.5 -10h-6
q-18 0 -28 10z" />
    <glyph glyph-name="uni1EA2" unicode="&#x1ea2;" horiz-adv-x="620" 
d="M497 203h-373q-30 -102 -50 -203h-59q45 207 109.5 375t158.5 325h55q94 -156 158 -324t109 -376h-59q-22 112 -49 203zM482 253q-69 217 -172 387q-101 -166 -171 -387h343zM298.5 730.5q-9.5 6.5 -10.5 16.5q37 21 55 45t18 56q0 24 -14.5 37.5t-38.5 13.5
q-45 0 -60 -51q-13 0 -21.5 7t-8.5 19q0 27 25.5 47.5t65.5 20.5q45 0 72.5 -25t27.5 -69q0 -78 -88 -124q-13 0 -22.5 6.5z" />
    <glyph glyph-name="uni1EA3" unicode="&#x1ea3;" horiz-adv-x="558" 
d="M483.5 60.5q7.5 -25.5 26.5 -43.5q-5 -9 -16 -15.5t-21 -6.5q-21 0 -34.5 26.5t-16.5 70.5q-34 -47 -90 -74.5t-119 -27.5q-72 0 -117.5 40.5t-45.5 104.5q0 93 94 145.5t277 60.5v32q0 141 -143 141q-50 0 -92.5 -19t-83.5 -61q-5 -5 -14 -5t-19 7t-18 20q43 50 103 77
t127 27q92 0 143.5 -49.5t51.5 -137.5v-241q0 -46 7.5 -71.5zM329 68.5q53 32.5 92 91.5v135q-159 -7 -237 -46t-78 -113q0 -47 30 -73.5t82 -26.5q58 0 111 32.5zM265.5 620.5q-9.5 6.5 -10.5 16.5q37 21 55 45t18 56q0 24 -14.5 37.5t-38.5 13.5q-45 0 -60 -51
q-13 0 -21.5 7t-8.5 19q0 27 25.5 47.5t65.5 20.5q45 0 72.5 -25t27.5 -69q0 -78 -88 -124q-13 0 -22.5 6.5z" />
    <glyph glyph-name="uni1EA4" unicode="&#x1ea4;" horiz-adv-x="620" 
d="M497 203h-373q-30 -102 -50 -203h-59q45 207 109.5 375t158.5 325h55q94 -156 158 -324t109 -376h-59q-22 112 -49 203zM482 253q-69 217 -172 387q-101 -166 -171 -387h343zM283 875h53l116 -133h-54l-88 93l-90 -93h-54zM543 979h65l-117 -151h-55z" />
    <glyph glyph-name="uni1EA5" unicode="&#x1ea5;" horiz-adv-x="558" 
d="M483.5 60.5q7.5 -25.5 26.5 -43.5q-5 -9 -16 -15.5t-21 -6.5q-21 0 -34.5 26.5t-16.5 70.5q-34 -47 -90 -74.5t-119 -27.5q-72 0 -117.5 40.5t-45.5 104.5q0 93 94 145.5t277 60.5v32q0 141 -143 141q-50 0 -92.5 -19t-83.5 -61q-5 -5 -14 -5t-19 7t-18 20q43 50 103 77
t127 27q92 0 143.5 -49.5t51.5 -137.5v-241q0 -46 7.5 -71.5zM329 68.5q53 32.5 92 91.5v135q-159 -7 -237 -46t-78 -113q0 -47 30 -73.5t82 -26.5q58 0 111 32.5zM250 765h53l116 -133h-54l-88 93l-90 -93h-54zM510 869h65l-117 -151h-55z" />
    <glyph glyph-name="uni1EA6" unicode="&#x1ea6;" horiz-adv-x="620" 
d="M497 203h-373q-30 -102 -50 -203h-59q45 207 109.5 375t158.5 325h55q94 -156 158 -324t109 -376h-59q-22 112 -49 203zM482 253q-69 217 -172 387q-101 -166 -171 -387h343zM283 875h53l116 -133h-54l-88 93l-90 -93h-54zM336 1003h64l102 -151h-56z" />
    <glyph glyph-name="uni1EA7" unicode="&#x1ea7;" horiz-adv-x="558" 
d="M483.5 60.5q7.5 -25.5 26.5 -43.5q-5 -9 -16 -15.5t-21 -6.5q-21 0 -34.5 26.5t-16.5 70.5q-34 -47 -90 -74.5t-119 -27.5q-72 0 -117.5 40.5t-45.5 104.5q0 93 94 145.5t277 60.5v32q0 141 -143 141q-50 0 -92.5 -19t-83.5 -61q-5 -5 -14 -5t-19 7t-18 20q43 50 103 77
t127 27q92 0 143.5 -49.5t51.5 -137.5v-241q0 -46 7.5 -71.5zM329 68.5q53 32.5 92 91.5v135q-159 -7 -237 -46t-78 -113q0 -47 30 -73.5t82 -26.5q58 0 111 32.5zM250 765h53l116 -133h-54l-88 93l-90 -93h-54zM303 893h64l102 -151h-56z" />
    <glyph glyph-name="uni1EA8" unicode="&#x1ea8;" horiz-adv-x="620" 
d="M497 203h-373q-30 -102 -50 -203h-59q45 207 109.5 375t158.5 325h55q94 -156 158 -324t109 -376h-59q-22 112 -49 203zM482 253q-69 217 -172 387q-101 -166 -171 -387h343zM283 875h53l116 -133h-54l-88 93l-90 -93h-54zM419.5 849.5q-9.5 6.5 -10.5 16.5q37 21 55 45
t18 56q0 24 -14.5 37.5t-38.5 13.5q-45 0 -60 -51q-13 0 -21.5 7t-8.5 19q0 27 25.5 47.5t65.5 20.5q45 0 72.5 -25t27.5 -69q0 -78 -88 -124q-13 0 -22.5 6.5z" />
    </font>
</defs>
</svg>
